<svg width="96" height="15" viewBox="0 0 96 15" fill="none" xmlns="http://www.w3.org/2000/svg">
<g clip-path="url(#clip0_2105:11094)">
<path d="M91.013 14.0727C91.0157 14.0366 91.0208 14.0006 91.0208 13.9645C91.0211 9.34679 91.0212 4.72903 91.0211 0.111294L91.0211 0.0131524C91.2314 5.43926e-05 95.4398 -0.00502327 95.9624 0.00640544C96.0135 0.0250866 95.9864 0.0483634 95.991 0.0696519C95.9934 0.0890136 95.9937 0.108571 95.9919 0.127991C95.9919 4.74295 95.992 9.35788 95.9922 13.9728C95.9922 14.0061 95.9973 14.0394 96 14.0727L91.013 14.0727Z" fill="#F9F9F9" fill-opacity="0.5"/>
<path d="M13.0662 14.0732C13.0689 13.8372 13.0716 13.6011 13.0742 13.365C13.0749 13.2931 13.0743 13.2211 13.0743 13.146C12.8783 13.1268 12.6858 13.1441 12.4889 13.1331L12.4889 12.1927L13.6893 12.1927C13.7314 11.8814 13.7347 11.5665 13.6989 11.2544L13.0743 11.2544L13.0743 11.1558C13.0743 10.5974 13.0741 10.039 13.0737 9.48064C13.0717 9.45002 13.0676 9.41961 13.0613 9.38951L13.0713 9.38617L14.3048 9.39354L14.3048 9.70391C14.3048 9.80664 14.302 9.90933 14.3056 10.012C14.2967 10.1148 14.3016 10.2183 14.3201 10.3199L16.1844 10.3199C16.1974 10.3107 16.21 10.306 16.2101 10.3011C16.2127 10.0153 16.2146 9.72939 16.2157 9.44349C16.2146 9.42938 16.2116 9.41545 16.2066 9.40212C16.2059 9.39975 16.1992 9.39744 16.1942 9.39538C16.1891 9.39323 16.1826 9.39141 16.1594 9.38365L14.9919 9.38365C14.9554 9.35147 14.9703 9.32359 14.9701 9.29642C14.9689 9.03825 14.9698 8.78008 14.9688 8.52192C14.9667 8.49408 14.9625 8.46643 14.9562 8.43918L14.9664 8.43584C15.3547 8.44682 16.0233 8.44301 16.1984 8.42882C16.2291 8.11979 16.2242 7.80843 16.1836 7.50043L15.5678 7.50043L15.5678 7.03515C15.5678 6.95749 15.5719 6.87974 15.5666 6.80213C15.5614 6.72564 15.5903 6.64851 15.5433 6.567C15.1275 6.56985 14.7228 6.56204 14.3179 6.57177L14.308 6.56857C14.3142 6.55262 14.3184 6.53604 14.3205 6.51916C14.3212 6.24453 14.3213 5.96987 14.3207 5.69525C14.3192 5.67746 14.3163 5.65982 14.3121 5.64243C14.1257 5.62299 13.933 5.64195 13.7246 5.62826L13.7246 4.69101C13.5063 4.67508 13.3068 4.68941 13.1082 4.68072C13.0489 4.66041 13.0758 4.63418 13.0756 4.61065C13.0735 4.35267 13.0747 4.09468 13.0737 3.8367C13.0716 3.80888 13.0672 3.78125 13.0608 3.75403L13.0711 3.75056C13.2769 3.75863 13.4824 3.75581 13.701 3.75178C13.7266 3.67704 13.7336 3.59762 13.7215 3.51986C13.7265 3.44225 13.7226 3.36456 13.7226 3.28691L13.7226 2.82183L14.9603 2.82183C14.9709 2.71757 14.9738 2.61276 14.9689 2.50812C14.9709 2.40551 14.9694 2.30287 14.9694 2.20027L14.9694 1.89099L15.5555 1.88335L15.5658 1.88683C15.559 1.91672 15.5544 1.94708 15.5522 1.97761C15.5513 2.53688 15.551 3.09615 15.5513 3.65541C15.5513 3.68584 15.548 3.71625 15.5462 3.74667C15.1372 3.75578 14.7256 3.74203 14.3201 3.75424C14.2891 4.06478 14.2945 4.37773 14.3363 4.68712L15.5429 4.69053C15.5458 4.71805 15.5511 4.74554 15.5512 4.77306C15.5518 5.0326 15.5508 5.29212 15.5526 5.55165C15.5528 5.57838 15.5312 5.60659 15.5849 5.63664L16.1941 5.64175C16.196 5.66943 16.1996 5.69715 16.1996 5.72483C16.2 5.97981 16.199 6.23474 16.2011 6.48972C16.2013 6.51624 16.1745 6.54518 16.2358 6.5685C16.6372 6.57938 17.2713 6.57556 17.4454 6.56128C17.4751 6.25305 17.4708 5.94272 17.4326 5.63534L16.2248 5.63187C16.2219 5.60434 16.2166 5.57686 16.2165 5.54933C16.2158 5.28978 16.2168 5.03023 16.2151 4.77068C16.2149 4.74395 16.2365 4.71576 16.1827 4.68576L15.5734 4.68065C15.5716 4.55858 15.5677 4.43645 15.5683 4.31439C15.5691 4.12853 15.5731 3.94268 15.5757 3.75683C16.1103 3.7562 16.645 3.75554 17.1797 3.75478C17.2696 3.75461 17.3596 3.75201 17.4495 3.75049L17.4599 3.7539C17.4538 3.76408 17.4495 3.77515 17.4473 3.78668C17.4466 4.07009 17.4465 4.35355 17.4471 4.63696C17.449 4.65251 17.4525 4.66779 17.4576 4.68269C17.6466 4.69669 17.8383 4.68207 18.0397 4.69278L18.0397 6.56216C18.2574 6.5829 18.4633 6.56721 18.6585 6.57327C18.7365 6.54658 18.7081 6.51735 18.7084 6.49094C18.7105 6.2381 18.7096 5.98531 18.7096 5.73246L18.7096 5.64073L19.9206 5.64073C19.9661 5.01359 19.9714 4.38438 19.9365 3.75662C19.8326 3.74821 19.7283 3.74594 19.6241 3.74981C19.5255 3.74861 19.4266 3.74953 19.3167 3.74953C19.2686 3.83053 19.2983 3.90787 19.293 3.98446C19.2876 4.06222 19.2918 4.14003 19.2918 4.21782L19.2918 4.67908L18.7377 4.67908C18.6964 4.06105 18.6913 3.44129 18.7224 2.82271L19.9213 2.82271C19.9658 2.51153 19.97 2.19633 19.9338 1.88417L19.3188 1.88417L19.3188 0.939358L19.8978 0.939358C19.9215 0.931457 19.9277 0.929547 19.9331 0.927431C19.9382 0.925398 19.9464 0.923088 19.9464 0.920888C19.947 0.618364 19.9472 0.316381 19.947 0.0148544C20.1595 0.000399677 21.2266 -0.00371091 21.7538 0.00653976C21.8038 0.0221 21.7817 0.0426808 21.7845 0.0612671C21.7865 0.0834431 21.7868 0.105776 21.7854 0.127989C21.7854 4.74036 21.7854 9.35271 21.7857 13.9651C21.7857 14.0011 21.7907 14.0372 21.7935 14.0732L19.2999 14.0732C19.3036 14.0654 19.3061 14.057 19.3074 14.0485C19.3078 13.7603 19.3079 13.472 19.3075 13.1838C19.3075 13.1704 19.3142 13.1559 19.2663 13.1399C19.0754 13.1321 18.8841 13.1344 18.6933 13.1468C18.6933 13.2255 18.6927 13.3003 18.6935 13.375C18.6959 13.6077 18.6985 13.8405 18.7015 14.0732L18.0531 14.0732C18.0558 14.0428 18.0609 14.0124 18.0609 13.9819C18.0613 13.1054 18.0616 12.229 18.0615 11.3525C18.0615 11.322 18.0648 11.2915 18.0666 11.261C18.2759 11.2494 18.4929 11.2705 18.696 11.2487C18.7004 11.2415 18.7035 11.2388 18.7035 11.2361C18.7058 10.3156 18.708 9.39513 18.7102 8.47469C18.7106 8.46898 18.7121 8.46342 18.7145 8.4582C18.7158 8.45492 18.7183 8.45216 18.7215 8.45049C18.7295 8.44721 18.7377 8.44437 18.7461 8.44204L19.2832 8.44204C19.2861 8.47246 19.2914 8.5029 19.2914 8.5333C19.2919 9.09916 19.2914 9.66501 19.2929 10.2309C19.293 10.2603 19.2714 10.2914 19.3219 10.3213C19.5306 10.3253 19.734 10.3275 19.9564 10.3201L19.9564 10.2239C19.9564 9.70515 19.9565 9.1864 19.9566 8.6677C19.9567 8.59284 19.96 8.518 19.9618 8.44313C20.1538 8.43173 20.3541 8.4528 20.5548 8.4295C20.5548 8.37194 20.5543 8.3169 20.5549 8.26185C20.5573 8.0107 20.5599 7.75955 20.5627 7.50841C20.7668 7.50131 20.9739 7.51345 21.2031 7.50009L21.2031 7.03501C21.2031 6.95745 21.207 6.87986 21.202 6.80234C21.2141 6.72386 21.2067 6.64372 21.1806 6.56843C20.9653 6.56812 20.7621 6.5642 20.5663 6.57034C20.5218 6.60663 20.5398 6.63732 20.5394 6.66719C20.5361 6.94417 20.535 7.22119 20.5332 7.49818C20.3428 7.50308 20.1524 7.50245 19.9621 7.49839C19.9602 7.47073 19.9566 7.44311 19.9566 7.41545C19.9562 7.16068 19.9572 6.90586 19.955 6.6511C19.9548 6.62461 19.9823 6.59572 19.9103 6.56796C19.7152 6.56883 19.5117 6.56356 19.2918 6.5717C19.2918 6.63623 19.2923 6.69394 19.2917 6.7517C19.2892 7.00086 19.2866 7.25005 19.2838 7.49921L18.045 7.50296L18.045 7.60791C18.045 8.79168 18.0449 9.97542 18.0447 11.1592C18.0447 11.1897 18.0397 11.2202 18.0371 11.2507L17.4597 11.2571L17.4495 11.2537C17.4556 11.2435 17.4599 11.2324 17.4621 11.2209C17.4628 10.9358 17.4629 10.6508 17.4622 10.3657C17.4622 10.3523 17.469 10.3378 17.4358 10.327C17.2258 10.3128 17.0151 10.3149 16.8055 10.3332C16.8021 10.3466 16.7997 10.3603 16.7986 10.3741C16.7982 10.6536 16.7982 10.9331 16.7988 11.2127C16.801 11.2268 16.8053 11.2407 16.8115 11.2537L16.8018 11.257C16.6059 11.251 16.4103 11.2473 16.1998 11.2605L16.1998 12.5114C16.1998 12.6141 16.2024 12.7167 16.1991 12.8193C16.2068 12.9246 16.2026 13.0305 16.1864 13.135L15.5764 13.135C15.5735 13.1073 15.5682 13.0796 15.5681 13.052C15.5675 12.7937 15.5689 12.5353 15.5662 12.277C15.5659 12.2479 15.5968 12.216 15.5159 12.1841L14.9693 12.1841L14.9693 11.7213C14.9693 11.6436 14.9732 11.5658 14.9682 11.488C14.9804 11.4101 14.9733 11.3306 14.9475 11.2558C14.7306 11.2523 14.5269 11.2482 14.3269 11.2575C14.2932 11.8847 14.296 12.5132 14.3353 13.1401L15.5458 13.1448C15.5477 13.2885 15.5496 13.4322 15.5515 13.5759C15.554 13.7417 15.5567 13.9074 15.5596 14.0732L13.0662 14.0732ZM21.1869 5.63562C21.2229 5.31977 21.2167 5.00085 21.1683 4.68651C20.9669 4.68182 20.7637 4.68095 20.5552 4.68644C20.548 4.69824 20.5427 4.7111 20.5396 4.72447C20.5419 5.02405 20.545 5.32364 20.5488 5.62321L20.5625 5.62969L20.579 5.63568L21.1869 5.63562ZM21.1874 2.81774C21.2236 2.50744 21.217 2.19394 21.1679 1.88526C20.9665 1.88072 20.7632 1.87967 20.5513 1.88553C20.5454 1.90047 20.5414 1.91599 20.5391 1.93181C20.5417 2.22305 20.545 2.51429 20.5489 2.80554L20.5629 2.81194L20.5809 2.81774L21.1874 2.81774Z" fill="#F9F9F9" fill-opacity="0.5"/>
<path d="M6.83212 14.0732C6.83482 14.0372 6.8399 14.0011 6.8399 13.9651C6.84026 9.34735 6.84036 4.72957 6.84023 0.11184L6.84023 0.0136991C7.04973 0.000628947 10.6682 -0.00434824 11.1832 0.00695206C11.2342 0.0256388 11.2071 0.0489101 11.2117 0.0701986C11.2141 0.0895588 11.2144 0.10912 11.2126 0.128538C11.2126 4.74072 11.2127 9.3529 11.2129 13.9651C11.2129 14.0011 11.218 14.0372 11.2207 14.0732L6.83212 14.0732Z" fill="#F9F9F9" fill-opacity="0.5"/>
<path d="M28.6704 10.3198C28.6766 10.2953 28.6808 10.2704 28.6828 10.2453C28.6835 9.35942 28.6837 8.47356 28.6834 7.58766L28.6834 7.51045C28.4718 7.48877 28.2622 7.51024 28.0485 7.49573L28.0485 6.57429C28.2497 6.57369 28.4544 6.57259 28.6591 6.57259C28.8584 6.57259 29.0577 6.57368 29.2569 6.57429C29.2598 6.60181 29.2651 6.6293 29.2652 6.65682C29.2658 6.91081 29.2649 7.1648 29.2666 7.41878C29.2668 7.4455 29.2452 7.47367 29.299 7.5037L29.9081 7.50888L29.9179 8.43972L31.1607 8.43972L31.1607 8.91352C31.1607 8.99404 31.1567 9.07458 31.1618 9.15506C31.1494 9.2328 31.1565 9.3122 31.1823 9.38685C31.3829 9.39195 31.5696 9.3923 31.7625 9.38692L31.7625 7.5022L29.9388 7.499C29.9359 7.47148 29.9306 7.44398 29.9305 7.41646C29.9299 7.16243 29.9309 6.90844 29.9291 6.65444C29.9289 6.62771 29.9506 6.59951 29.8967 6.56952L29.2875 6.56441C29.2856 6.54221 29.2821 6.52002 29.2821 6.49782C29.2818 5.61152 29.2818 4.72519 29.2819 3.83888L29.2819 3.75962L29.8972 3.75962C29.9189 3.83375 29.9242 3.9114 29.9128 3.98759C29.9179 4.06535 29.9139 4.14315 29.9139 4.22095L29.9139 4.67628C30.1145 4.69084 30.8428 4.6937 31.1574 4.68194C31.1813 4.60776 31.1875 4.52945 31.1758 4.45267C31.1807 4.37491 31.1769 4.2971 31.1769 4.21931L31.1769 3.75655L31.7175 3.75655C31.7412 3.74865 31.7476 3.74682 31.7528 3.74469C31.7579 3.74264 31.7651 3.74035 31.7656 3.73801C31.7707 3.72184 31.7739 3.70519 31.7749 3.68833C31.7737 3.40498 31.7717 3.1216 31.769 2.83825C31.769 2.83347 31.7558 2.82874 31.7401 2.81807L29.966 2.81807C29.9109 2.51282 29.9017 2.20158 29.9387 1.89384C30.1191 1.8774 30.3115 1.89517 30.5094 1.88239C30.5325 1.80742 30.5387 1.72864 30.5276 1.65122C30.5321 1.57068 30.5286 1.49005 30.5286 1.40948L30.5286 0.938536L31.1439 0.938536C31.2078 0.87433 31.1683 0.813204 31.1753 0.753431C31.1794 0.692391 31.18 0.631194 31.1769 0.570098L31.1769 0.00469556C31.3861 0.00413725 31.5828 0.00338487 31.7796 0.00312805C31.9785 0.00286565 32.1774 0.00305991 32.3683 0.00305992C32.429 0.0253925 32.4019 0.0486301 32.4065 0.0699186C32.4089 0.0892804 32.4092 0.108838 32.4074 0.128258C32.4074 4.74041 32.4075 9.35258 32.4077 13.9647C32.4077 14.0008 32.4128 14.0368 32.4155 14.0729L31.1687 14.0729C31.1693 13.7678 31.1695 13.4626 31.1694 13.1575C31.1694 13.1529 31.1545 13.1483 31.1315 13.1349L30.5339 13.1349L30.5339 12.1944C30.7433 12.1827 30.9605 12.204 31.1835 12.1797L31.1835 11.2616C31.3848 11.2515 31.5762 11.2657 31.7562 11.2519C31.7907 10.9408 31.7851 10.6268 31.7394 10.317L30.5286 10.317L30.5286 9.75079C30.5318 9.68974 30.5312 9.62859 30.5269 9.56759C30.5196 9.50792 30.5608 9.44684 30.496 9.38487C30.3972 9.38487 30.3061 9.38366 30.2153 9.38522C30.1198 9.38036 30.0241 9.38338 29.9292 9.39428C29.8953 10.0139 29.9013 10.6348 29.9471 11.2537C30.1285 11.266 30.3208 11.2488 30.5123 11.2639C30.5123 11.3212 30.5127 11.3738 30.5122 11.4264C30.5097 11.679 30.5071 11.9316 30.5044 12.1841C30.2062 12.1848 29.9081 12.1854 29.6099 12.186C29.3059 12.1863 29.0019 12.1861 28.6834 12.1861L28.6834 12.0953C28.6834 11.8432 28.6837 11.5912 28.6828 11.3391C28.6808 11.3113 28.6767 11.2837 28.6706 11.2565L28.6804 11.2533C28.8755 11.2597 29.0703 11.2623 29.2707 11.2512C29.2759 11.2367 29.2794 11.2218 29.2813 11.2066C29.2791 10.9166 29.2764 10.6267 29.2732 10.3368C29.2732 10.3345 29.2674 10.3319 29.2628 10.3298C29.258 10.3276 29.2514 10.3258 29.2317 10.3193C29.0571 10.3207 28.8688 10.3137 28.6802 10.323L28.6704 10.3198ZM31.758 6.56918C31.7939 6.25777 31.7874 5.94326 31.7388 5.63343C31.3406 5.6335 30.9381 5.63269 30.5305 5.63404C30.5222 5.65296 30.5133 5.66349 30.5134 5.67405C30.5156 5.96814 30.5186 6.26221 30.5224 6.5563C30.5224 6.55849 30.5306 6.56078 30.5358 6.56284L30.5545 6.56918L31.758 6.56918Z" fill="#F9F9F9" fill-opacity="0.5"/>
<path d="M83.5274 3.75054C83.5336 3.72888 83.5378 3.70673 83.5398 3.68436C83.5405 3.11204 83.5407 2.53975 83.5404 1.96744L83.5404 1.88892C83.3246 1.87345 83.1166 1.88859 82.9039 1.87829L82.9039 0.937021L83.5321 0.937021L83.5321 0.00713358C83.727 -0.000342239 83.907 0.00406688 84.1012 0.00440746C84.1451 0.0812259 84.1162 0.158361 84.1214 0.234767C84.1267 0.312512 84.1225 0.390318 84.1225 0.468124L84.1225 0.929115C84.3416 0.943313 84.5459 0.935944 84.7754 0.934431C84.7895 0.832736 84.7932 0.729983 84.7865 0.627604C84.7892 0.524818 84.7871 0.422 84.7871 0.319209L84.7871 0.00761071L85.3431 0.00761073C85.3901 0.0265264 85.3676 0.0497497 85.3681 0.0709936C85.3706 0.190473 85.3693 0.309883 85.3693 0.429345C85.3693 4.94395 85.3694 9.45856 85.3697 13.9732C85.3697 14.0064 85.3747 14.0397 85.3774 14.073L82.8839 14.073C82.8863 13.7723 82.8886 13.4716 82.8908 13.1709C82.8908 13.1599 82.885 13.1491 82.8366 13.1372C82.6672 13.1387 82.4789 13.1317 82.2904 13.141L82.2805 13.1376C82.2868 13.116 82.291 13.0938 82.293 13.0715C82.2937 12.1774 82.2937 11.2833 82.2931 10.3892C82.291 10.3669 82.2867 10.3447 82.2804 10.3231L82.2906 10.3197C82.4858 10.3262 82.6806 10.3288 82.881 10.3177C82.8861 10.3032 82.8897 10.2882 82.8915 10.273C82.8894 9.98307 82.8867 9.69316 82.8834 9.40326C82.8834 9.40089 82.8777 9.39829 82.8731 9.39618C82.8683 9.39394 82.8617 9.3922 82.8483 9.38772C82.6675 9.38431 82.479 9.38112 82.2904 9.38943L82.2803 9.38602C82.2867 9.35882 82.2909 9.33121 82.293 9.30342C82.294 9.04016 82.2928 8.77692 82.2949 8.51366C82.2951 8.48992 82.2686 8.46379 82.3327 8.44005C82.4188 8.44005 82.5098 8.44078 82.6007 8.43984C82.6979 8.44269 82.7952 8.44003 82.8921 8.43187L82.8921 7.96788C82.8921 7.89028 82.8962 7.81269 82.8909 7.73514C82.8856 7.65875 82.9152 7.58166 82.867 7.50069C82.4513 7.50331 82.0468 7.49559 81.6422 7.50532L81.632 7.50185C81.6381 7.49169 81.6424 7.48064 81.6446 7.46913C81.6453 7.18084 81.6453 6.89256 81.6446 6.60426C81.6424 6.59276 81.6381 6.58172 81.6321 6.57155L81.6417 6.56821L82.8776 6.56821C82.8952 6.49333 82.8998 6.41627 82.8913 6.33997C82.8948 6.26257 82.8921 6.18511 82.8921 6.1077L82.8921 5.64207L83.5275 5.63451L83.5374 5.63785C83.5313 5.64799 83.5271 5.65907 83.5248 5.67056C83.5241 5.95565 83.5241 6.24073 83.5247 6.52582C83.5247 6.53922 83.5179 6.55372 83.5661 6.56944C83.7543 6.57715 83.9428 6.57515 84.1307 6.56337C84.1345 6.54828 84.1371 6.53296 84.1385 6.51751C84.1389 6.23795 84.1388 5.95836 84.1382 5.67881C84.1361 5.66465 84.1318 5.65088 84.1256 5.63785L84.1359 5.63444C84.3476 5.64082 84.5588 5.64309 84.7871 5.63185L84.7871 5.31425C84.7871 5.20929 84.7894 5.10435 84.7865 4.99938C84.7934 4.89395 84.7896 4.7881 84.7752 4.68336C84.5458 4.68535 84.3408 4.67762 84.1357 4.68745L84.1256 4.68404C84.1434 4.61935 84.1475 4.55195 84.1379 4.48571C84.1429 4.24271 84.1441 3.99968 84.1467 3.75667C84.3511 3.74941 84.5585 3.76181 84.7595 3.74992C84.802 3.12882 84.799 2.50561 84.7506 1.8849C84.549 1.88062 84.3457 1.87945 84.15 1.88476C84.1063 1.92147 84.1235 1.9522 84.1235 1.98216C84.1222 2.47318 84.1229 2.96421 84.1223 3.45523C84.1222 3.5523 84.1191 3.64938 84.1173 3.74645L83.5372 3.75374L83.5274 3.75054ZM82.8935 11.2557C82.8588 11.566 82.8641 11.8792 82.9095 12.1883C83.1107 12.1933 83.3138 12.1936 83.523 12.1886C83.5304 12.1721 83.5394 12.1616 83.5393 12.151C83.5371 11.857 83.5342 11.5629 83.5305 11.2689C83.5305 11.2667 83.5227 11.2643 83.5176 11.2623C83.5124 11.2602 83.5061 11.2584 83.4981 11.2557L82.8935 11.2557ZM84.1207 10.321C84.1551 10.0107 84.15 9.69751 84.1056 9.38834C83.9211 9.38286 83.7345 9.3835 83.5572 9.38752C83.5419 9.39908 83.5297 9.40398 83.5297 9.40885C83.5272 9.69737 83.5256 9.98589 83.5246 10.2744C83.5257 10.2858 83.5288 10.297 83.5337 10.3074C83.5347 10.3098 83.5414 10.3121 83.5464 10.3141C83.5516 10.3163 83.558 10.3181 83.5667 10.321L84.1207 10.321ZM84.1233 8.43651C84.1595 8.12624 84.1529 7.81271 84.1035 7.5041C83.9185 7.49895 83.7319 7.49899 83.5369 7.5043C83.531 7.51928 83.5269 7.5348 83.5247 7.55065C83.5273 7.84188 83.5306 8.13314 83.5345 8.42437L83.5486 8.43078L83.5667 8.43651L84.1233 8.43651Z" fill="#F9F9F9" fill-opacity="0.5"/>
<path d="M72.9153 1.8868C72.9092 1.89698 72.9049 1.90811 72.9027 1.91965C72.9019 2.20303 72.9019 2.48641 72.9025 2.76979C72.904 2.78331 72.907 2.79663 72.9115 2.80953C73.0935 2.82423 73.7769 2.82786 74.128 2.81661C74.1339 2.81466 74.1405 2.81289 74.1454 2.81069C74.1496 2.80918 74.1533 2.80673 74.1563 2.8036C74.1599 2.79865 74.1624 2.79306 74.1638 2.78717C74.1649 2.77888 74.1652 2.77058 74.1649 2.76223C74.1654 1.85096 74.1659 0.939653 74.1664 0.0283837C74.1669 0.0252849 74.1684 0.0224258 74.1707 0.0202052C74.1754 0.0159575 74.1803 0.0119399 74.1855 0.00827835L74.7708 0.00827838C74.8181 0.0267921 74.7912 0.0500096 74.7961 0.0713204C74.7986 0.0906719 74.7989 0.110244 74.797 0.12966C74.797 4.74437 74.7972 9.35905 74.7974 13.9738C74.7974 14.007 74.8025 14.0403 74.8052 14.0736L73.5584 14.0736C73.5611 14.0432 73.5662 14.0127 73.5662 13.9823C73.5666 13.1058 73.5668 12.2293 73.5668 11.3528C73.5668 11.3223 73.5702 11.2918 73.572 11.2613C73.7645 11.2494 73.9661 11.2719 74.165 11.2471C74.165 10.3278 74.1649 9.41043 74.1647 8.49504C74.1637 8.48097 74.1609 8.46712 74.1565 8.45367C74.1559 8.45119 74.1509 8.44864 74.1463 8.44651C74.1416 8.44428 74.1349 8.44252 74.1113 8.43465L73.571 8.43465C73.5575 8.12227 73.5771 7.81549 73.5595 7.5002L72.9315 7.5002L72.9315 6.57317C73.1427 6.57317 73.3411 6.57475 73.5392 6.57276C73.7431 6.57073 73.9497 6.58165 74.149 6.56533C74.1877 6.42754 74.1724 3.81783 74.1296 3.75005C73.7312 3.74996 73.3285 3.74956 72.9007 3.75039L72.9007 5.62965C72.6914 5.64151 72.4988 5.62378 72.3006 5.64383L72.3006 6.56438L71.6684 6.57215L71.6585 6.56895C71.6647 6.55296 71.6688 6.53637 71.6709 6.51947C71.6717 6.24714 71.6717 5.97483 71.671 5.70251C71.671 5.6834 71.681 5.66371 71.6443 5.63885C71.4715 5.62601 71.2797 5.64068 71.0781 5.62993L71.0781 4.69384C70.8603 4.67441 70.6535 4.6862 70.4498 4.68409C70.2421 4.68194 70.0342 4.68361 69.8264 4.68361L69.2086 4.68361C69.1647 4.06428 69.1588 3.44302 69.1908 2.82302L69.7913 2.82302C69.8356 2.51179 69.8396 2.19659 69.8033 1.88441L69.1885 1.88441L69.1885 0.0077329L69.8101 0.00773293L69.8101 0.933259L70.4166 0.933259C70.4264 0.830356 70.429 0.72694 70.4243 0.623705C70.4262 0.523672 70.4248 0.423595 70.4248 0.323557L70.4248 0.0159795C70.6049 0.000771071 71.995 -0.00224265 72.3018 0.0120949L72.3018 1.87943C72.5026 1.89084 72.7039 1.89216 72.9049 1.88339L72.9153 1.8868ZM71.0489 2.8143C70.8448 2.8214 70.6377 2.80931 70.4085 2.82268L70.4085 3.28769C70.4085 3.36526 70.4047 3.44284 70.4096 3.52037C70.3976 3.59885 70.4049 3.67891 70.431 3.7542C70.6463 3.75452 70.8495 3.7585 71.0453 3.75236C71.0898 3.71607 71.0718 3.68538 71.0722 3.65552C71.0755 3.37853 71.0767 3.10151 71.0785 2.82452C71.271 2.81292 71.4723 2.83498 71.6599 2.81171C71.697 2.5034 71.6886 2.19165 71.6349 1.88557C71.4499 1.88078 71.2633 1.88036 71.0568 1.88632C71.0568 1.94485 71.0573 1.99703 71.0567 2.04921C71.0542 2.30423 71.0516 2.55927 71.0489 2.8143ZM72.3023 4.6858C72.3375 4.37486 72.3315 4.06095 72.2848 3.75141C72.0848 3.7502 71.8816 3.74717 71.6725 3.75291C71.6651 3.76941 71.6562 3.77997 71.6563 3.79053C71.6585 4.08455 71.6614 4.37862 71.6651 4.67264C71.6651 4.67487 71.673 4.6772 71.6781 4.67925C71.6834 4.68137 71.6897 4.6832 71.6974 4.6858L72.3023 4.6858Z" fill="#F9F9F9" fill-opacity="0.5"/>
<path d="M47.9887 12.1846C47.9869 11.9059 47.9854 11.6272 47.9825 11.3485C47.9803 11.3181 47.976 11.2879 47.9696 11.258L47.9799 11.2545C48.0625 11.256 48.145 11.2587 48.2275 11.2587C48.884 11.2591 49.5404 11.2591 50.1969 11.2587C50.2785 11.2619 50.3603 11.2602 50.4417 11.2535C50.4919 11.2374 50.4759 11.2169 50.4759 11.1982C50.4767 10.2925 50.4767 9.38692 50.4761 8.48126C50.4738 8.46704 50.4695 8.45315 50.4632 8.4401L50.4734 8.43669C50.6794 8.44644 50.885 8.43907 51.0758 8.44017C51.0965 8.43323 51.1034 8.43152 51.108 8.42926C51.1117 8.42779 51.1149 8.42522 51.117 8.4219C51.121 8.41413 51.1235 8.4057 51.1245 8.39709C51.1266 7.79486 51.1286 7.19269 51.1306 6.59048C51.1306 6.588 51.136 6.58547 51.1491 6.57419L51.6914 6.57419C51.732 5.9471 51.7364 5.31839 51.7047 4.69083C51.5129 4.67867 51.3171 4.68264 51.121 4.68831L51.1107 4.68484C51.1175 4.65765 51.1221 4.62997 51.1244 4.6021C51.1254 4.34932 51.125 4.09654 51.125 3.84375L51.125 3.75665L52.3301 3.75665C52.3891 3.44965 52.3989 3.13589 52.3591 2.82608C52.1631 2.80304 51.9527 2.82699 51.7526 2.81252C51.7058 2.1894 51.6994 1.56415 51.7334 0.940275L52.362 0.940275C52.3733 0.836006 52.3764 0.731072 52.3713 0.62636C52.3733 0.523586 52.3717 0.420813 52.3717 0.318033L52.3717 0.00793452L53.6022 0.00793457L53.6022 7.72421C53.6022 9.80756 53.6023 11.8909 53.6026 13.9743C53.6026 14.0076 53.6076 14.0408 53.6104 14.0741L52.962 14.0741C52.9657 14.0662 52.9682 14.0579 52.9695 14.0493C52.9699 13.4459 52.9699 12.8424 52.9696 12.239C52.9696 12.2229 52.9798 12.2054 52.9184 12.1881C52.7462 12.1892 52.5575 12.1824 52.3686 12.1917L52.3584 12.1883C52.3648 12.161 52.369 12.1333 52.3711 12.1055C52.3721 11.8527 52.3711 11.6 52.3725 11.3473C52.3726 11.3201 52.3571 11.2922 52.3988 11.2571L52.9468 11.2571C52.9824 10.9451 52.979 10.6302 52.9369 10.3189L52.3853 10.3189C52.3795 10.3085 52.3752 10.2973 52.3725 10.2858C52.3737 9.98869 52.3752 9.69153 52.3771 9.39439L52.9622 9.38839C52.9651 9.35104 52.9698 9.31839 52.9698 9.28575C52.9702 8.28535 52.9703 7.28494 52.9702 6.28454C52.9702 6.0928 52.9711 5.90106 52.969 5.70932C52.9687 5.68547 52.9941 5.65901 52.9255 5.63653C52.743 5.6365 52.5547 5.62717 52.3525 5.64389L52.3525 7.49815C52.1343 7.50872 51.9262 7.49354 51.729 7.50769C51.694 7.81864 51.6982 8.13251 51.7417 8.44248L52.3555 8.44248C52.3555 8.51503 52.356 8.57873 52.3553 8.64245C52.3529 8.8897 52.3504 9.13697 52.3476 9.38423L51.1271 9.38791C51.119 9.40512 51.1097 9.41561 51.1098 9.42615C51.1121 9.72059 51.1152 10.015 51.119 10.3095L51.133 10.316C51.1385 10.318 51.1449 10.3197 51.1699 10.3277L51.6959 10.3277L51.6959 11.256L51.1195 11.256C51.1145 11.2749 51.1111 11.2942 51.1092 11.3136C51.1086 11.5915 51.1086 11.8693 51.1093 12.1472C51.1115 12.1614 51.1158 12.1752 51.122 12.1883L51.1123 12.1916C51.0879 12.1902 51.0635 12.1876 51.0391 12.1876C50.474 12.1873 49.9089 12.1873 49.3438 12.1875C49.2995 12.1845 49.2551 12.1908 49.2137 12.206L49.2137 12.4314L49.2137 12.6647C49.2137 12.7453 49.2177 12.8259 49.2125 12.9065C49.2076 12.9828 49.2358 13.0598 49.1912 13.138C48.9971 13.1356 48.817 13.1412 48.6222 13.134L48.6222 12.1902L47.9887 12.1846Z" fill="#F9F9F9" fill-opacity="0.5"/>
<path d="M36.1697 11.25C36.1678 10.9724 36.1664 10.6948 36.1633 10.4173C36.163 10.3874 36.1766 10.3568 36.1403 10.319C35.3284 10.3186 34.5174 10.319 33.7146 10.3188C33.7003 10.3144 33.6935 10.3128 33.6884 10.3107C33.6835 10.3086 33.6772 10.3062 33.6772 10.3039C33.6747 10.0124 33.6726 9.721 33.6711 9.42958C33.6733 9.4167 33.6774 9.40412 33.683 9.39223L34.8602 9.39223C34.8834 9.38448 34.8897 9.38266 34.895 9.38051C34.9 9.37845 34.9076 9.37609 34.9076 9.37383C34.9081 9.066 34.9081 8.75818 34.9081 8.44156L35.4805 8.44156C35.5248 8.13363 35.5308 7.82182 35.4984 7.51256C35.3234 7.49818 34.6695 7.49426 34.2652 7.5052L34.2557 7.50193C34.2618 7.49177 34.266 7.48072 34.2683 7.46921C34.269 7.18091 34.269 6.89263 34.2683 6.60434C34.266 6.59284 34.2618 6.58179 34.2557 6.57163L34.2653 6.56836C34.7208 6.5779 35.1767 6.57038 35.6324 6.57252C35.7968 6.57329 35.9611 6.57265 36.1454 6.57265L36.1454 9.37751C36.3432 9.39335 37.0026 9.39711 37.3979 9.38617L37.4078 9.3895C37.4015 9.40829 37.3972 9.42767 37.3951 9.4473C37.3945 10.6552 37.3945 11.8632 37.3954 13.0712C37.3954 13.0925 37.377 13.1155 37.4292 13.1375L38.0097 13.1375L38.0097 11.2632C38.2351 11.2493 38.4441 11.2687 38.6575 11.249L38.6575 11.18C38.6575 10.6052 38.6574 10.0304 38.657 9.45555C38.6549 9.43319 38.6506 9.41106 38.6443 9.38944L38.6545 9.3861C38.8506 9.39325 39.0468 9.39325 39.2429 9.3861L39.253 9.3895C39.2467 9.40542 39.2424 9.42196 39.2403 9.43885C39.2396 10.0239 39.2396 10.609 39.2402 11.1941C39.2402 11.2129 39.2274 11.2329 39.2663 11.2497C39.4804 11.2642 39.6955 11.2617 39.9092 11.2423L39.9092 10.3277L40.4896 10.3198L40.4996 10.3232C40.4933 10.3391 40.4891 10.3557 40.487 10.3726C40.4863 10.9583 40.4864 11.5441 40.4872 12.1298C40.4872 12.1485 40.4709 12.1689 40.5263 12.1882C40.7186 12.1986 40.9262 12.1842 41.1243 12.1965C41.1549 12.5081 41.149 12.8219 41.1068 13.1322C40.9069 13.1467 40.6971 13.1239 40.4865 13.1469C40.4865 13.2215 40.4858 13.2934 40.4866 13.3654C40.489 13.6013 40.4916 13.8372 40.4946 14.0731L39.8961 14.0731C39.9 14.0624 39.9026 14.0512 39.9039 14.04C39.9043 13.4405 39.9041 12.8411 39.9036 12.2416C39.9036 12.2256 39.9164 12.208 39.8779 12.1944C39.5848 12.1791 38.8129 12.1829 38.6413 12.2014L38.6413 12.2665C38.6413 12.8493 38.6414 13.4322 38.6416 14.015C38.6429 14.0345 38.6455 14.0538 38.6494 14.073L36.7544 14.073C36.758 14.0651 36.7605 14.0568 36.7618 14.0483C36.7623 13.7599 36.7623 13.4716 36.7619 13.1832C36.7619 13.1698 36.7687 13.1552 36.7103 13.1366L36.1179 13.1366C35.9188 13.1366 35.7196 13.1349 35.5208 13.1371C35.3177 13.1393 35.1113 13.1272 34.9011 13.1464C34.9011 13.2222 34.9004 13.2942 34.9012 13.3662C34.9036 13.6018 34.9062 13.8374 34.9092 14.073L33.0141 14.073C33.0168 13.8373 33.0195 13.6017 33.0221 13.366C33.0229 13.2942 33.0223 13.2225 33.0223 13.1422L33.6611 13.1422L33.6611 12.2004C33.8691 12.1839 34.0662 12.1935 34.2608 12.192C34.4681 12.1903 34.6756 12.1916 34.8829 12.1916L35.4932 12.1916C35.5193 12.1164 35.5266 12.0364 35.5147 11.958C35.5195 11.8804 35.5157 11.8027 35.5157 11.7251L35.5157 11.2602C35.73 11.2561 35.9345 11.2574 36.1392 11.2597C36.142 11.2873 36.1473 11.3149 36.1474 11.3426C36.1481 11.5977 36.147 11.8528 36.149 12.1079C36.1492 12.1344 36.1229 12.1633 36.1881 12.1891C36.373 12.1909 36.5603 12.1972 36.7434 12.1853C36.775 11.8758 36.7712 11.564 36.7319 11.2553L36.1697 11.25Z" fill="#F9F9F9" fill-opacity="0.5"/>
<path d="M38.6447 8.43627C38.6509 8.42034 38.655 8.40373 38.6571 8.38686C38.6579 8.1125 38.658 7.83813 38.6574 7.56377C38.656 7.546 38.6533 7.52837 38.6494 7.51095C38.4481 7.48819 38.2386 7.51139 38.0387 7.49725C37.9993 7.19131 37.9975 6.88202 38.0333 6.57568L39.2433 6.56866L39.2531 6.57207C39.2471 6.58224 39.2428 6.59327 39.2405 6.60478C39.2398 6.88785 39.2398 7.17092 39.2405 7.45398C39.2405 7.47004 39.2293 7.48764 39.2828 7.50359C39.4734 7.51484 39.6819 7.49672 39.8967 7.51504L39.8967 8.43048C40.1707 8.4465 40.9684 8.4439 41.1512 8.42619L41.1512 8.36975C41.1512 7.78973 41.151 7.20975 41.1506 6.62973C41.1485 6.61011 41.1443 6.59078 41.138 6.572L41.1482 6.56859C41.5436 6.57976 42.2044 6.57595 42.3851 6.5611L42.3851 4.69294C42.1667 4.67769 41.9472 4.67953 41.7291 4.69846L41.7291 5.63032L41.1481 5.6383L41.1382 5.63503C41.1444 5.60497 41.1486 5.57455 41.1507 5.54397C41.1514 4.98075 41.1516 4.41753 41.1512 3.85431L41.1512 3.75522L41.7127 3.75522C41.7661 3.72361 41.7488 3.69816 41.7488 3.67391C41.7498 2.7833 41.7499 1.89269 41.7491 1.00209C41.7471 0.979753 41.7431 0.957636 41.7371 0.935977L41.7475 0.932569C41.9534 0.941296 42.1591 0.938086 42.3799 0.933932C42.4012 0.85812 42.407 0.779105 42.3971 0.701188C42.4011 0.623432 42.398 0.545609 42.398 0.46783L42.398 0.00738523L42.9801 0.00738525L42.9801 3.10653C42.9801 6.72887 42.9802 10.3513 42.9805 13.9736C42.9805 14.0069 42.9856 14.0401 42.9883 14.0734L42.3898 14.0734C42.3937 14.0627 42.3963 14.0515 42.3976 14.0403C42.3979 13.1294 42.3978 12.2186 42.3972 11.3078C42.3972 11.2918 42.4104 11.2742 42.3445 11.2518L41.755 11.2518L41.755 10.3275C41.9643 10.3158 42.1816 10.3371 42.398 10.3136C42.398 9.70821 42.398 9.10602 42.3976 8.50381C42.3967 8.48704 42.3941 8.47038 42.3899 8.45406C42.3894 8.45154 42.3851 8.44893 42.3807 8.44677C42.3761 8.44453 42.3692 8.4428 42.3491 8.43607C42.1597 8.43591 41.9562 8.43177 41.7603 8.43811C41.7173 8.4748 41.7343 8.50552 41.7342 8.5355C41.7331 9.09895 41.7327 9.6624 41.7331 10.2258C41.7331 10.2563 41.7282 10.2868 41.7255 10.3172C41.6192 10.3179 41.5129 10.3185 41.4066 10.3191C41.1044 10.3215 40.8017 10.314 40.4998 10.3236L40.4898 10.3201C40.4959 10.3099 40.5001 10.2989 40.5023 10.2874C40.503 10.0042 40.503 9.72093 40.5024 9.43772C40.5023 9.42163 40.5131 9.40402 40.4642 9.38981L39.2531 9.38981L39.243 9.3864C39.249 9.37621 39.2532 9.36513 39.2555 9.35362C39.2562 9.06488 39.2562 8.77619 39.2555 8.48746C39.2555 8.47138 39.2663 8.45377 39.2119 8.43784C39.033 8.43403 38.8439 8.43128 38.6545 8.43941L38.6447 8.43627Z" fill="#F9F9F9" fill-opacity="0.5"/>
<path d="M62.3425 5.63565C62.532 5.64336 62.7213 5.64124 62.924 5.63653C62.9483 5.56137 62.955 5.48202 62.9435 5.40413C62.9481 5.32358 62.9445 5.24299 62.9445 5.16239L62.9445 4.69131L63.5481 4.69131C63.6133 4.38493 63.6245 4.07032 63.5813 3.7604C63.3858 3.73661 63.1759 3.75992 62.9698 3.74677C62.9622 3.74007 62.9465 3.73264 62.9465 3.72523C62.9467 3.42518 62.9484 3.12512 62.9498 2.82506C63.1591 2.81342 63.3762 2.83457 63.5811 2.81252C63.6182 2.50409 63.6098 2.19225 63.5561 1.88604C63.3546 1.88176 63.1514 1.88056 62.9282 1.88659C62.9282 1.94536 62.9287 1.99758 62.9282 2.04975C62.9257 2.30478 62.9231 2.5598 62.9204 2.81484L62.3764 2.81484C62.3293 2.19213 62.3224 1.56727 62.3557 0.943751C62.5566 0.931703 62.7628 0.939908 62.967 0.938367C63.1649 0.936871 63.363 0.938026 63.5839 0.938026C63.5944 0.834466 63.5972 0.730301 63.5924 0.62636C63.5943 0.523585 63.5928 0.420813 63.5928 0.318033L63.5928 0.00793454L64.175 0.00793457L64.175 3.83264C64.175 7.21321 64.1751 10.5937 64.1753 13.9743C64.1753 14.0076 64.1804 14.0408 64.1831 14.0741L63.5847 14.0741C63.5883 14.0662 63.5909 14.0579 63.5921 14.0493C63.5926 13.7611 63.5926 13.4729 63.5922 13.1847C63.5922 13.1713 63.599 13.1567 63.5438 13.1384C63.3559 13.1426 63.1458 13.1276 62.9282 13.1475C62.9282 13.2264 62.9276 13.3012 62.9284 13.3759C62.9307 13.6087 62.9334 13.8413 62.9364 14.0741L62.3379 14.0741C62.3416 14.0662 62.3441 14.0579 62.3454 14.0493C62.3458 13.7611 62.3459 13.4729 62.3455 13.1847C62.3455 13.1713 62.3522 13.1567 62.2971 13.1384C62.1091 13.1426 61.899 13.1276 61.6815 13.1475C61.6815 13.2264 61.6809 13.3012 61.6816 13.3759C61.684 13.6087 61.6867 13.8413 61.6896 14.0741L59.8444 14.0741C59.8471 14.0438 59.852 14.0134 59.8522 13.9831C59.8546 13.704 59.8565 13.425 59.858 13.146C60.2672 13.1371 60.6791 13.1502 61.0993 13.1382L61.0993 13.039C61.0993 12.4767 61.0994 11.9144 61.0996 11.3521C61.0996 11.3217 61.1046 11.2913 61.1073 11.2609C61.3066 11.2603 61.5059 11.2591 61.7052 11.2591C61.91 11.2591 62.1148 11.2602 62.3298 11.2608L62.3298 11.3518C62.3298 11.6046 62.329 11.8574 62.331 12.1102C62.3312 12.1367 62.3038 12.1659 62.3676 12.189C62.8411 12.2002 63.4096 12.1959 63.5789 12.18C63.6148 11.8729 63.6074 11.5625 63.5566 11.2574C63.3583 11.2447 63.1495 11.2644 62.9445 11.2454L62.9445 10.9332C62.9445 10.8331 62.9459 10.7331 62.9441 10.6331C62.9486 10.5306 62.9462 10.428 62.9367 10.3258C62.7329 10.3111 62.5402 10.3293 62.3461 10.313L62.3461 10.219C62.3461 9.73841 62.3461 9.25782 62.3463 8.77725C62.3464 8.66615 62.3497 8.55506 62.3515 8.44398C62.5399 8.43922 62.7277 8.44018 62.9282 8.44323L62.9282 8.91594C62.9282 8.99645 62.924 9.07695 62.9295 9.15741C62.9347 9.2339 62.9048 9.31112 62.9534 9.39152C63.0644 9.39152 63.1633 9.39254 63.262 9.39125C63.3681 9.39548 63.4744 9.39271 63.5801 9.383L63.5801 6.5701L62.3547 6.56649C62.3518 6.53895 62.3465 6.51143 62.3464 6.48389C62.3458 6.2297 62.3464 5.9755 62.3455 5.72131C62.3434 5.69361 62.3392 5.6661 62.3328 5.63899L62.3425 5.63565Z" fill="#F9F9F9" fill-opacity="0.5"/>
<path d="M54.8618 10.32C55.0509 10.3283 55.2398 10.3254 55.4417 10.3213C55.4853 10.2432 55.4574 10.1661 55.4624 10.0897C55.4675 10.0121 55.4635 9.93446 55.4635 9.85686L55.4635 9.39206L56.6528 9.39206C56.7154 9.37296 56.7097 9.35849 56.7097 9.34503C56.7103 9.05407 56.7102 8.76308 56.7096 8.47212C56.7073 8.46061 56.703 8.44954 56.6968 8.43941L56.707 8.43593C56.9129 8.44568 57.1185 8.43834 57.3093 8.43947C57.33 8.43258 57.3368 8.43083 57.3414 8.42857C57.345 8.42676 57.3482 8.42431 57.3508 8.42128C57.3532 8.41903 57.3548 8.41618 57.3557 8.4131C57.3573 8.40487 57.3582 8.39652 57.3584 8.38816C57.3602 7.78894 57.3619 7.18975 57.3637 6.59054C57.3637 6.58798 57.3683 6.58545 57.3791 6.57411L57.9539 6.57411C57.9617 6.2591 57.953 5.95258 57.959 5.64252L58.5924 5.63489L58.6022 5.63823C58.5962 5.64842 58.592 5.6595 58.5898 5.67101C58.5891 5.95424 58.589 6.23746 58.5897 6.52068C58.5897 6.53677 58.579 6.55433 58.628 6.56852L59.839 6.56852L59.8491 6.57193C59.8428 6.59917 59.8386 6.62684 59.8364 6.65467C59.8355 6.90719 59.8364 7.15974 59.8351 7.41226C59.835 7.43945 59.8495 7.46726 59.8104 7.5025L59.215 7.5025C59.1721 7.54038 59.1885 7.57106 59.1884 7.60098C59.1872 8.11991 59.1878 8.63889 59.1873 9.15781C59.1873 9.23271 59.184 9.30755 59.1822 9.38245C58.975 9.3834 58.7677 9.38302 58.5608 9.38572C58.3576 9.38837 58.1511 9.37594 57.9359 9.3956L57.9359 10.3208L57.3424 10.3208L57.3424 10.6358C57.3424 10.7384 57.3453 10.8411 57.3415 10.9437C57.3502 11.0463 57.3459 11.1494 57.3287 11.251L56.7189 11.251C56.7161 11.2234 56.7108 11.1957 56.7107 11.1681C56.71 10.913 56.7111 10.6579 56.7091 10.4028C56.7089 10.3763 56.7352 10.3474 56.67 10.3215C56.4851 10.3198 56.2978 10.3135 56.1147 10.3254C56.0831 10.6349 56.0869 10.9467 56.1262 11.2554L56.6884 11.2609C56.6903 11.2914 56.6938 11.3219 56.6938 11.3524C56.6942 11.9163 56.6944 12.4802 56.6947 13.0441C56.6948 13.0739 56.6814 13.1045 56.7088 13.1328C56.927 13.1481 57.1462 13.1463 57.3641 13.1272L57.3641 12.1956C57.5655 12.1861 57.7568 12.1995 57.957 12.185L57.957 11.7237C57.957 11.6459 57.9526 11.568 57.9583 11.4903C57.964 11.4138 57.933 11.3366 57.9783 11.2582C58.1907 11.2582 58.3898 11.258 58.589 11.2583C58.7854 11.2586 58.9818 11.2594 59.1875 11.2601C59.1875 11.3268 59.1881 11.385 59.1875 11.4432C59.185 11.6904 59.1824 11.9375 59.1796 12.1846L58.5883 12.1892L58.5883 13.1311C58.3621 13.1463 58.1526 13.1251 57.9408 13.1466C57.9408 13.2214 57.9402 13.2934 57.9409 13.3654C57.9433 13.6014 57.946 13.8374 57.9489 14.0734L56.1037 14.0734C56.1064 13.8374 56.1091 13.6013 56.1117 13.3653C56.1125 13.2933 56.1118 13.2213 56.1118 13.1461C55.8966 13.1284 55.69 13.1394 55.4861 13.1374C55.288 13.1354 55.0895 13.137 54.8654 13.137L54.8654 12.1894L54.2536 12.1894C54.1965 11.8845 54.1869 11.5733 54.225 11.2657C54.4215 11.2472 54.6304 11.2672 54.8235 11.2546C54.8749 11.24 54.8645 11.2224 54.8646 11.2063C54.8652 10.923 54.8652 10.6397 54.8644 10.3564C54.8622 10.3448 54.8578 10.3337 54.8517 10.3236L54.8618 10.32Z" fill="#F9F9F9" fill-opacity="0.5"/>
<path d="M1.84532 14.0734C1.84803 14.0373 1.85313 14.0012 1.85314 13.9652C1.85349 9.3475 1.85359 4.72979 1.85346 0.112099L1.85346 0.00830075L2.45939 0.00830078C2.5071 0.0259323 2.48001 0.0491683 2.48462 0.0704568C2.48701 0.0898185 2.48732 0.109376 2.48551 0.128796C2.48551 4.74093 2.48565 9.35305 2.48587 13.9652C2.48587 14.0012 2.49094 14.0373 2.49365 14.0734L1.84532 14.0734Z" fill="#F9F9F9" fill-opacity="0.5"/>
<path d="M3.09239 14.0734C3.0951 14.0373 3.1002 14.0012 3.10021 13.9652C3.10056 9.3475 3.10066 4.72979 3.10053 0.112099L3.10053 0.00830075L3.70646 0.00830078C3.75417 0.0259323 3.72708 0.0491683 3.73169 0.0704568C3.73409 0.0898183 3.73438 0.109376 3.73258 0.128796C3.73258 4.74093 3.73268 9.35305 3.7329 13.9652C3.7329 14.0012 3.73801 14.0373 3.74072 14.0734L3.09239 14.0734Z" fill="#F9F9F9" fill-opacity="0.5"/>
<path d="M5.58507 14.0734C5.58778 14.0373 5.59285 14.0013 5.59286 13.9652C5.59321 9.34751 5.59335 4.7298 5.59321 0.112099L5.59321 0.00830075L6.19913 0.00830078C6.24685 0.0259323 6.21975 0.0491683 6.22437 0.0704569C6.22676 0.0898186 6.22706 0.109376 6.22526 0.128796C6.22526 4.74094 6.22536 9.35306 6.22558 13.9652C6.22558 14.0013 6.23069 14.0373 6.2334 14.0734L5.58507 14.0734Z" fill="#F9F9F9" fill-opacity="0.5"/>
<path d="M88.5192 14.0734C88.522 14.0401 88.527 14.0068 88.527 13.9736C88.5274 9.35309 88.5275 4.73263 88.5273 0.11216L88.5273 0.00836179L89.0834 0.00836181C89.1311 0.0259934 89.1041 0.0492237 89.1087 0.0705178C89.1111 0.0898795 89.1114 0.109437 89.1096 0.128857C89.1096 4.74099 89.1097 9.35311 89.1099 13.9652C89.1099 14.0013 89.115 14.0374 89.1177 14.0734L88.5192 14.0734Z" fill="#F9F9F9" fill-opacity="0.5"/>
<path d="M87.2726 14.0734C87.2753 14.0401 87.2804 14.0068 87.2804 13.9736C87.2808 9.35309 87.2809 4.73263 87.2808 0.11216L87.2808 0.00836179L87.8368 0.00836181C87.8845 0.0259934 87.8574 0.0492237 87.8621 0.0705178C87.8645 0.0898799 87.8648 0.109437 87.863 0.128857C87.863 4.74099 87.8631 9.35311 87.8633 13.9652C87.8633 14.0013 87.8684 14.0374 87.8711 14.0734L87.2726 14.0734Z" fill="#F9F9F9" fill-opacity="0.5"/>
<path d="M-0.000320435 0.000671361L0.590006 0.00591921L0.590006 9.65694C0.590006 11.0958 0.590132 12.5346 0.590362 13.9734C0.590362 14.0066 0.595436 14.0399 0.598144 14.0732L-0.00032105 14.0732L-0.000320435 0.000671361Z" fill="#F9F9F9" fill-opacity="0.5"/>
<path d="M89.7663 14.0734C89.769 14.0401 89.7741 14.0069 89.7741 13.9736C89.7744 9.3531 89.7746 4.73263 89.7745 0.11216L89.7745 0.00836179L90.3305 0.00836181C90.3782 0.0259934 90.3511 0.0492238 90.3558 0.0705179C90.3581 0.0898777 90.3584 0.109439 90.3566 0.128857C90.3566 4.741 90.3567 9.35312 90.357 13.9653C90.357 14.0013 90.362 14.0374 90.3647 14.0734L89.7663 14.0734Z" fill="#F9F9F9" fill-opacity="0.5"/>
<path d="M72.3112 14.0734C72.3152 14.0542 72.3178 14.0347 72.319 14.0152C72.3194 13.4322 72.3195 12.8493 72.3193 12.2663L72.3193 12.1974C72.1111 12.173 71.901 12.1965 71.6843 12.1815C71.6671 12.0811 71.6629 11.979 71.6719 11.8775C71.668 11.7748 71.6711 11.6721 71.6711 11.5694L71.6711 11.256C71.249 11.2486 70.8456 11.2561 70.4473 11.2515C70.4102 11.2192 70.4252 11.1913 70.425 11.1642C70.4238 10.9115 70.4247 10.6589 70.4237 10.4063C70.4216 10.3784 70.4173 10.3508 70.4108 10.3235L70.4211 10.3201C70.8258 10.3305 71.2303 10.3212 71.6459 10.3248C71.6942 10.2437 71.6646 10.1666 71.6699 10.0903C71.6753 10.0127 71.6711 9.93511 71.6711 9.85751L71.6711 9.39352C71.5741 9.38537 71.4768 9.38271 71.3796 9.38555C71.2887 9.38461 71.1976 9.38534 71.1116 9.38534C71.0477 9.36156 71.0741 9.33541 71.0739 9.31167C71.0719 9.0484 71.073 8.78517 71.072 8.5219C71.0699 8.49411 71.0658 8.46646 71.0596 8.43923L71.0696 8.43596C71.2669 8.44447 71.4644 8.44346 71.6616 8.43283C71.666 8.41534 71.6691 8.39753 71.6707 8.3796C71.6712 8.10197 71.6711 7.82432 71.6705 7.54669C71.6683 7.5325 71.664 7.51867 71.6578 7.5056L71.6681 7.50226L72.3031 7.5101L72.3031 7.82019C72.3031 7.92292 72.3004 8.02566 72.3039 8.12839C72.2953 8.23078 72.2999 8.33383 72.3177 8.43514C72.5174 8.44864 72.7097 8.43154 72.9015 8.44659L72.9015 8.54228C72.9015 9.02259 72.9014 9.50289 72.9013 9.98319C72.9012 10.0942 72.8979 10.2052 72.8961 10.3163C72.7038 10.3279 72.5031 10.3063 72.3155 10.3286C72.2849 10.6373 72.2914 10.9483 72.3347 11.2555L72.8959 11.2609C72.8978 11.2914 72.9013 11.3219 72.9013 11.3524C72.9016 12.2289 72.9018 13.1055 72.9019 13.982C72.9019 14.0125 72.907 14.043 72.9097 14.0734L72.3112 14.0734Z" fill="#F9F9F9" fill-opacity="0.5"/>
<path d="M25.5382 10.3233C25.532 10.3392 25.5279 10.3558 25.5258 10.3727C25.525 10.6448 25.5249 10.9169 25.5256 11.189C25.5271 11.2097 25.5301 11.2302 25.5344 11.2506C25.7425 11.2659 25.9489 11.256 26.1529 11.2578C26.3508 11.2596 26.549 11.2582 26.7593 11.2582L26.7593 12.1853L25.5797 12.1853C25.5129 12.2075 25.5259 12.2252 25.5259 12.2412C25.5251 12.8409 25.525 13.4405 25.5256 14.0402C25.5269 14.0515 25.5295 14.0626 25.5333 14.0733L24.9349 14.0733C24.9376 13.8373 24.9403 13.6012 24.9429 13.3652C24.9436 13.2932 24.943 13.2212 24.943 13.1464C24.7304 13.1255 24.5213 13.145 24.3077 13.1332L24.3077 12.1971C24.4089 12.1873 24.5164 12.193 24.6218 12.1921C24.7196 12.1912 24.8176 12.192 24.9103 12.192C24.9517 11.8823 24.9552 11.569 24.9208 11.2585C24.7236 11.2444 24.5157 11.2594 24.2947 11.2488L24.2947 11.1559C24.2947 10.5975 24.2945 10.0392 24.2942 9.48081C24.2921 9.45019 24.288 9.41971 24.2817 9.38962L24.2917 9.38641L24.9268 9.39398L24.9268 9.85906C24.9268 9.93639 24.9226 10.0138 24.928 10.0911C24.9333 10.1672 24.9036 10.244 24.9516 10.3241C25.1514 10.3224 25.3398 10.3294 25.5284 10.3201L25.5382 10.3233Z" fill="#F9F9F9" fill-opacity="0.5"/>
<path d="M47.9583 12.1949C47.9612 12.403 47.9645 12.6111 47.9667 12.8192C47.9678 12.9217 47.9669 13.0242 47.9669 13.1351C47.7607 13.1357 47.5644 13.1366 47.368 13.1369C47.1604 13.1372 46.9529 13.1372 46.7453 13.137L46.1546 13.137C46.1396 13.1509 46.1245 13.1584 46.1245 13.1659C46.1254 13.4684 46.1272 13.7709 46.1299 14.0734L45.4816 14.0734C45.4843 13.8407 45.4869 13.608 45.4895 13.3754C45.4903 13.3007 45.4897 13.226 45.4897 13.1446C45.2806 13.1294 45.0752 13.1391 44.8726 13.1373C44.6741 13.1355 44.4753 13.137 44.2817 13.137C44.2182 13.1131 44.2444 13.0869 44.2442 13.0632C44.2422 12.8 44.2434 12.5368 44.2424 12.2736C44.2402 12.2458 44.2359 12.2182 44.2295 12.191L44.2397 12.1875C44.4458 12.1956 44.6516 12.1928 44.8707 12.1887C44.895 12.1135 44.9016 12.0341 44.8902 11.9561C44.8949 11.8784 44.8913 11.8006 44.8913 11.7228L44.8913 11.2582L45.4731 11.2582L45.4731 12.1802C45.5618 12.1925 45.6515 12.1963 45.741 12.1917C46.3973 12.1922 47.0536 12.1923 47.7099 12.1921C47.7927 12.1921 47.8755 12.1939 47.9583 12.1949Z" fill="#F9F9F9" fill-opacity="0.5"/>
<path d="M69.8182 14.0733C69.8209 13.8406 69.8235 13.608 69.8262 13.3753C69.8269 13.3006 69.8263 13.2259 69.8263 13.1447C69.6171 13.1293 69.4116 13.1391 69.209 13.1372C69.0105 13.1354 68.8117 13.1369 68.6182 13.1369C68.5549 13.1129 68.581 13.0868 68.5808 13.063C68.5788 12.7998 68.5799 12.5366 68.579 12.2734C68.5769 12.2456 68.5728 12.2179 68.5666 12.1907L68.5765 12.1874C68.7738 12.196 68.9714 12.195 69.1685 12.1843C69.173 12.1668 69.176 12.149 69.1776 12.1311C69.1781 11.8534 69.178 11.5758 69.1774 11.2982C69.1752 11.284 69.171 11.2701 69.1648 11.2571L69.1744 11.2538L69.8064 11.2615L69.8064 12.1814C70.0042 12.2024 70.1967 12.1844 70.4038 12.196C70.4136 12.3008 70.407 12.4055 70.4083 12.5101C70.4095 12.6129 70.4085 12.7156 70.4085 12.8183L70.4085 13.1389L71.0065 13.1389C71.0829 13.1657 71.0552 13.1919 71.0554 13.2156C71.0576 13.4738 71.0566 13.732 71.0572 13.9902C71.0572 14.0179 71.0622 14.0456 71.0649 14.0733L69.8182 14.0733Z" fill="#F9F9F9" fill-opacity="0.5"/>
<path d="M66.0612 12.1947C66.0641 12.3556 66.0678 12.5164 66.0695 12.6773C66.0709 12.8022 66.0686 12.9271 66.0707 13.052C66.0711 13.0791 66.0525 13.1072 66.0991 13.1389L67.268 13.1389C67.3421 13.1657 67.315 13.1919 67.3152 13.2157C67.3174 13.4738 67.3163 13.732 67.3169 13.9901C67.317 14.0178 67.322 14.0454 67.3247 14.0731L65.4296 14.0731C65.4323 14.0427 65.4373 14.0122 65.4374 13.9818C65.4378 13.4187 65.438 12.8557 65.4377 12.2926L65.4377 12.1949C65.6523 12.1894 65.8566 12.1906 66.0612 12.1947Z" fill="#F9F9F9" fill-opacity="0.5"/>
<path d="M76.6673 13.1451C77.4134 13.1441 78.1595 13.1431 78.9056 13.1422C78.9716 13.1421 79.0376 13.1422 79.0979 13.1422C79.1601 13.1668 79.1345 13.1929 79.1347 13.2167C79.1367 13.4745 79.1357 13.7324 79.1363 13.9902C79.1363 14.0179 79.1413 14.0456 79.144 14.0732L76.6506 14.0732C76.6533 13.8439 76.6555 13.6146 76.6589 13.3853C76.6601 13.3052 76.6644 13.2251 76.6673 13.1451Z" fill="#F9F9F9" fill-opacity="0.5"/>
<path d="M16.8062 14.0732C16.8089 14.0455 16.814 14.0178 16.814 13.99C16.8144 13.1066 16.8143 12.2232 16.8138 11.3398C16.8118 11.312 16.8078 11.2842 16.8017 11.2569L16.8113 11.2537C17.024 11.2607 17.2367 11.2606 17.4494 11.2536L17.4595 11.257C17.4532 11.2843 17.449 11.312 17.4469 11.3398C17.4462 12.2232 17.4462 13.1066 17.4467 13.99C17.4467 14.0178 17.4518 14.0455 17.4545 14.0732L16.8062 14.0732Z" fill="#F9F9F9" fill-opacity="0.5"/>
<path d="M51.7153 14.0734C51.7181 13.8796 51.7212 13.6857 51.7233 13.4919C51.7243 13.3977 51.7246 13.3035 51.7226 13.2094C51.7222 13.1879 51.739 13.1652 51.6869 13.1397L51.1705 13.1397C51.1006 13.1126 51.1265 13.0866 51.1263 13.0629C51.1243 12.7997 51.1254 12.5366 51.1245 12.2734C51.1225 12.2457 51.1184 12.2181 51.1124 12.1908L51.122 12.1876C51.5342 12.1948 51.9464 12.1948 52.3586 12.1875L52.3687 12.191C52.3624 12.2126 52.3582 12.2347 52.3561 12.2571C52.3554 12.8431 52.3553 13.4292 52.3559 14.0152C52.3571 14.0347 52.3598 14.0542 52.3637 14.0734L51.7153 14.0734Z" fill="#F9F9F9" fill-opacity="0.5"/>
<path d="M28.0433 13.1442L29.2337 13.1442C29.2884 13.1676 29.2644 13.1934 29.2646 13.2173C29.2665 13.475 29.2656 13.7327 29.2662 13.9904C29.2662 14.018 29.2712 14.0456 29.2739 14.0733L28.0272 14.0733C28.0299 14.0042 28.0341 13.9351 28.0351 13.866C28.0384 13.6254 28.0406 13.3848 28.0433 13.1442Z" fill="#F9F9F9" fill-opacity="0.5"/>
<path d="M82.2861 14.0734L81.6378 14.0734C81.6416 14.0627 81.6442 14.0516 81.6455 14.0403C81.6459 13.7543 81.6458 13.4683 81.6453 13.1824C81.6431 13.1682 81.639 13.1544 81.6329 13.1413L81.6429 13.1379C81.8556 13.145 82.0684 13.145 82.2811 13.1379L82.291 13.1413C82.2866 13.2189 82.2784 13.2965 82.2786 13.374C82.2793 13.6072 82.2833 13.8403 82.2861 14.0734Z" fill="#F9F9F9" fill-opacity="0.5"/>
<path d="M80.3908 14.0734C80.3935 13.8403 80.3975 13.6071 80.3982 13.374C80.3984 13.2964 80.3902 13.2188 80.3859 13.1413L80.3959 13.1379C80.6086 13.145 80.8214 13.145 81.0341 13.1379L81.0439 13.1411C81.0396 13.2187 81.0315 13.2963 81.0317 13.3739C81.0324 13.607 81.0363 13.8402 81.0391 14.0734L80.3908 14.0734Z" fill="#F9F9F9" fill-opacity="0.5"/>
<path d="M26.7799 14.0733C26.7826 13.8407 26.7853 13.6082 26.7879 13.3757C26.7887 13.3012 26.788 13.2266 26.788 13.1444C27.0029 13.1407 27.2071 13.1416 27.4115 13.1441C27.4144 13.2242 27.4186 13.3044 27.4198 13.3845C27.4233 13.6141 27.4255 13.8437 27.4282 14.0733L26.7799 14.0733Z" fill="#F9F9F9" fill-opacity="0.5"/>
<path d="M49.8703 14.0734C49.873 13.8379 49.8757 13.6023 49.8783 13.3668C49.8791 13.2951 49.8784 13.2234 49.8784 13.147L50.4348 13.147C50.4834 13.1675 50.4593 13.1933 50.4594 13.2172C50.4614 13.4749 50.4604 13.7327 50.461 13.9904C50.4611 14.0181 50.466 14.0457 50.4687 14.0734L49.8703 14.0734Z" fill="#F9F9F9" fill-opacity="0.5"/>
<path d="M81.6328 13.1411C81.4365 13.1342 81.2403 13.1342 81.044 13.1411L81.0342 13.1378C81.0404 13.1219 81.0446 13.1053 81.0468 13.0884C81.0474 12.1863 81.0474 11.2841 81.0468 10.382C81.0468 10.3632 81.0605 10.3432 81.0072 10.322C80.8148 10.3172 80.6116 10.3174 80.3831 10.3221L80.3831 11.2486C80.1737 11.2595 79.9819 11.2437 79.7937 11.26C79.7893 11.2777 79.7863 11.2956 79.7847 11.3137C79.7842 11.5912 79.7842 11.8688 79.7849 12.1464C79.787 12.1606 79.7913 12.1744 79.7975 12.1875L79.7879 12.1908C79.7387 12.1894 79.6894 12.1867 79.6402 12.1866C78.7033 12.1864 77.7664 12.1864 76.8295 12.1866C76.7802 12.1866 76.7309 12.1882 76.6807 12.189C76.6151 12.217 76.6442 12.2487 76.6439 12.2778C76.6414 12.5356 76.6428 12.7934 76.6421 13.0512C76.6406 13.079 76.6376 13.1066 76.6331 13.1341L75.4419 13.1341C75.3952 12.8242 75.3881 12.51 75.4206 12.1984C75.6182 12.1821 75.8267 12.2 76.0179 12.1886C76.0707 12.1729 76.0596 12.1553 76.0597 12.1392C76.0604 11.8561 76.0604 11.573 76.0596 11.29C76.0573 11.2784 76.053 11.2673 76.0468 11.2572L76.057 11.2537C76.2465 11.2629 76.4357 11.2564 76.6372 11.2572C76.662 11.1813 76.669 11.1011 76.6577 11.0222C76.6623 10.9445 76.6587 10.8666 76.6587 10.7888L76.6587 10.3262L77.8481 10.3262C77.8716 10.3183 77.878 10.3165 77.8832 10.3144C77.8882 10.3123 77.8951 10.3101 77.8958 10.3077C77.9008 10.2944 77.904 10.2804 77.905 10.2663C77.9037 9.66346 77.9018 9.06065 77.8993 8.45783C77.8993 8.45303 77.8862 8.44824 77.8731 8.43915L76.6507 8.43915C76.6407 8.54192 76.6381 8.6452 76.6429 8.7483C76.641 8.85387 76.6425 8.95944 76.6425 9.06501L76.6425 9.37252C76.4666 9.38824 75.7296 9.39129 75.4222 9.3777L75.4222 8.44229L76.0023 8.44229C76.0259 8.43441 76.0323 8.43256 76.0375 8.43043C76.0426 8.42838 76.0498 8.4261 76.0505 8.42375C76.0556 8.41044 76.0587 8.39653 76.0598 8.38238C76.0586 8.09627 76.0567 7.81016 76.054 7.52406C76.054 7.51926 76.041 7.51452 76.0254 7.50381L75.4481 7.50381C75.3902 6.88617 75.3808 6.2652 75.4202 5.64622C75.6199 5.63118 75.8258 5.64136 76.0292 5.63954C76.2368 5.63767 76.4447 5.63913 76.6524 5.63913L77.2835 5.63913C77.3107 5.56352 77.3183 5.48279 77.3059 5.40373C77.3109 5.3232 77.307 5.24256 77.307 5.16199L77.307 4.69275L79.1084 4.69275C79.1439 4.76035 79.1589 7.32111 79.1236 7.49918C78.9389 7.50243 78.7508 7.50205 78.5624 7.49939C78.5595 7.47174 78.5542 7.44411 78.5541 7.41644C78.5535 7.16126 78.5546 6.90606 78.5526 6.65087C78.5524 6.62431 78.579 6.59539 78.5185 6.57195C78.1261 6.56085 77.4826 6.56462 77.3081 6.57897C77.2774 6.88708 77.2822 7.19753 77.3224 7.50463L78.5319 7.5092C78.5337 7.787 78.5351 8.06485 78.5382 8.34265C78.5385 8.37249 78.5246 8.40314 78.5577 8.43609L79.7919 8.43609C79.8023 8.33326 79.805 8.22986 79.8001 8.12667C79.8021 8.02665 79.8005 7.92661 79.8005 7.82659L79.8005 7.51438C79.9895 7.49702 80.1817 7.51424 80.3565 7.50341C80.371 7.49857 80.3779 7.49682 80.3824 7.49455C80.3868 7.49236 80.3911 7.48962 80.3911 7.48712C80.394 6.88985 80.3964 6.29257 80.3986 5.69529C80.3971 5.67743 80.3942 5.65972 80.39 5.64227C80.2031 5.62329 80.0103 5.64178 79.8135 5.62905L79.8135 3.75598L81.038 3.75598C81.0488 3.65148 81.0517 3.54642 81.0468 3.44152C81.0488 3.3415 81.0473 3.24146 81.0473 3.14144L81.0473 2.82889C81.2384 2.81493 81.4239 2.82288 81.6294 2.82221L81.6294 2.91831C81.6294 4.10465 81.6296 5.29094 81.63 6.47729C81.6319 6.5079 81.636 6.53836 81.6421 6.56848L81.6325 6.57181C81.4373 6.56548 81.2425 6.56288 81.0421 6.57393C81.0369 6.58842 81.0334 6.60337 81.0315 6.61857C81.0337 6.90846 81.0363 7.19832 81.0396 7.48821C81.0396 7.49059 81.0453 7.49319 81.0499 7.4953C81.0546 7.49753 81.0613 7.49925 81.0747 7.50375C81.2555 7.50718 81.4439 7.51044 81.6324 7.50211L81.6426 7.50552C81.6365 7.51571 81.6323 7.52679 81.6301 7.5383C81.6295 8.13822 81.6295 8.73817 81.63 9.3381C81.63 9.35418 81.6191 9.37176 81.6734 9.38778C81.869 9.39155 82.0747 9.39425 82.2808 9.38622L82.2909 9.38963C82.2867 9.39776 82.2788 9.40596 82.2788 9.41409C82.2782 9.70792 82.2782 10.0017 82.2788 10.2955C82.2788 10.3037 82.2868 10.3118 82.291 10.32L82.2808 10.3233C82.0682 10.3175 81.8558 10.3138 81.6295 10.3269L81.6295 10.4049C81.6295 11.2911 81.6296 12.1772 81.63 13.0633C81.6321 13.0884 81.6363 13.1134 81.6427 13.1378L81.6328 13.1411ZM81.0298 9.38744C81.0645 9.07156 81.0591 8.75284 81.0136 8.4382C80.8124 8.43324 80.6092 8.43285 80.4 8.43786C80.3926 8.4544 80.3837 8.46493 80.3838 8.47548C80.386 8.77506 80.3889 9.07464 80.3926 9.37422C80.3926 9.37646 80.4005 9.37878 80.4055 9.38083C80.4108 9.38296 80.4172 9.38481 80.425 9.38744L81.0298 9.38744ZM79.7842 10.3209C79.8202 10.01 79.8136 9.69594 79.7645 9.38663C79.5645 9.38591 79.3612 9.3821 79.1526 9.38867C79.1453 9.40038 79.1401 9.41315 79.137 9.42643C79.1393 9.72045 79.1424 10.0145 79.1462 10.3085L79.1598 10.3149L79.1766 10.3209L79.7842 10.3209Z" fill="#F9F9F9" fill-opacity="0.5"/>
<path d="M37.3977 5.63568C37.4041 5.61405 37.4083 5.59188 37.4104 5.56951C37.4111 4.99156 37.4111 4.41368 37.4104 3.83575C37.4103 3.81113 37.4235 3.78588 37.3869 3.75587C37.1944 3.74206 36.9864 3.75726 36.7742 3.74694L36.7742 1.88833L37.4036 1.88833L37.4036 0.93997C37.6163 0.939311 37.8128 0.938415 38.0092 0.93813C38.217 0.937821 38.4247 0.937801 38.6325 0.938062L39.2393 0.938062C39.2591 0.835022 39.2645 0.729968 39.2554 0.625578C39.259 0.522781 39.2562 0.419923 39.2562 0.317115L39.2562 0.00762929L41.712 0.00762939C41.7489 0.0369911 41.7324 0.0649767 41.7326 0.0920717C41.734 0.344915 41.733 0.597704 41.734 0.850553C41.7363 0.878419 41.7408 0.906094 41.7476 0.933291L41.7371 0.936767C41.5476 0.928242 41.3584 0.934166 41.1573 0.933496C41.1314 1.00915 41.1242 1.08952 41.1361 1.16828C41.1312 1.24877 41.135 1.3293 41.135 1.40982L41.135 1.87892L40.5062 1.87892C40.4994 1.77396 40.5039 1.66928 40.5031 1.56467C40.5023 1.46194 40.5029 1.35921 40.5029 1.25648L40.5029 0.936017C40.2928 0.93111 40.1062 0.930498 39.9265 0.935813C39.8702 0.958704 39.8892 0.981867 39.8891 1.00322C39.8881 1.90006 39.8879 2.79688 39.8888 3.69372C39.8909 3.71335 39.8953 3.73268 39.9017 3.75144L39.8914 3.75492C39.6857 3.74684 39.4801 3.74975 39.2615 3.75376C39.2359 3.82848 39.2289 3.90786 39.241 3.98562C39.236 4.06322 39.2399 4.14085 39.2399 4.2185L39.2399 4.68358L37.997 4.68358C37.9873 5.00384 37.9985 5.3158 37.9904 5.63105L37.4081 5.63909L37.3977 5.63568ZM38.6458 2.81808C38.6865 2.50775 38.6775 2.19327 38.6191 1.88553C38.4174 1.88345 38.2136 1.87745 38.0137 1.88887C37.9812 2.198 37.9844 2.50961 38.0231 2.81808L38.6458 2.81808Z" fill="#F9F9F9" fill-opacity="0.5"/>
<path d="M24.2819 9.38961C23.9588 9.3799 23.6349 9.38815 23.3115 9.38511C23.2252 9.38841 23.1388 9.3859 23.0528 9.37755L23.0528 5.64566C22.8573 5.62034 22.6631 5.64394 22.4797 5.62985C22.4329 5.3199 22.426 5.00565 22.4592 4.6941C22.6401 4.67994 22.8324 4.69674 23.0082 4.68524C23.0637 4.66635 23.0475 4.64591 23.0475 4.62724C23.0483 3.73012 23.0484 2.83298 23.0477 1.93586C23.0457 1.91896 23.0416 1.90238 23.0355 1.88638L23.0452 1.88318C23.4575 1.89051 23.8697 1.89051 24.2819 1.88318L24.2917 1.88638C24.2856 1.90235 24.2814 1.91896 24.2793 1.93586C24.2785 2.20795 24.2785 2.48009 24.2791 2.7522C24.2807 2.77295 24.2837 2.79358 24.288 2.81395C24.4934 2.83114 24.7019 2.81359 24.9147 2.8254L24.9147 3.74875L24.3118 3.74875C24.2698 4.37624 24.2654 5.00555 24.2985 5.63353C24.4953 5.6476 24.7032 5.63246 24.9208 5.64301L24.9208 6.56069C25.1176 6.58626 25.3116 6.56303 25.5204 6.57869C25.5319 6.67812 25.5236 6.77991 25.5251 6.88163C25.5266 6.98436 25.5255 7.08709 25.5255 7.18982L25.5255 7.50516L26.1477 7.50516C26.1878 7.54038 26.1729 7.56823 26.173 7.5954C26.1743 7.84806 26.1734 8.10074 26.1744 8.3534C26.1764 8.38125 26.1804 8.40891 26.1865 8.43621L26.1768 8.43935L24.9433 8.43205L24.9433 8.1212C24.9433 8.01842 24.945 7.91558 24.9428 7.81281C24.9482 7.7106 24.9454 7.60817 24.9341 7.50639C24.7105 7.49402 24.5025 7.50934 24.2861 7.49453L24.2861 6.56839C24.0757 6.57168 23.8819 6.55761 23.6803 6.57814L23.6803 7.82269C23.6803 7.92547 23.6782 8.02824 23.6809 8.13102C23.6742 8.23457 23.6782 8.3385 23.6926 8.44132L24.2548 8.44132C24.2935 8.47349 24.2778 8.50136 24.2779 8.52849C24.2793 8.78683 24.2783 9.04519 24.2793 9.30353C24.2814 9.33139 24.2857 9.35907 24.292 9.38634L24.2819 9.38961Z" fill="#F9F9F9" fill-opacity="0.5"/>
<path d="M26.7753 0.932943C26.7815 0.905718 26.7856 0.878133 26.7877 0.850341C26.7886 0.598112 26.7877 0.345862 26.7891 0.093632C26.7892 0.0663863 26.7743 0.0385986 26.8075 0.00769032L28.0063 0.00769037C28.0223 0.108349 28.0262 0.210358 28.018 0.31186C28.0216 0.414405 28.0188 0.517017 28.0188 0.619573L28.0188 0.924424C28.2123 0.939817 28.8896 0.943564 29.2684 0.932671L29.2788 0.936079C29.2725 0.963323 29.2682 0.990982 29.2661 1.01882C29.2651 1.27694 29.266 1.53504 29.2648 1.79318C29.2647 1.82036 29.2793 1.84825 29.2432 1.88055L28.7224 1.88055C28.6433 1.90686 28.6685 1.93325 28.6682 1.95709C28.6663 2.16802 28.6671 2.37896 28.6671 2.58989L28.6671 5.62552C28.5791 5.63431 28.4905 5.637 28.4021 5.6335C27.9455 5.63404 27.4889 5.63414 27.0324 5.63391C26.9498 5.63398 26.8674 5.63662 26.7849 5.63806L26.775 5.63472C26.7811 5.62455 26.7853 5.61346 26.7876 5.60194C26.7883 5.31321 26.7883 5.02451 26.7877 4.73578C26.7876 4.71969 26.7985 4.7021 26.744 4.68616C26.5652 4.68235 26.3761 4.67961 26.1867 4.68773L26.1768 4.68453C26.183 4.66572 26.1872 4.64635 26.1893 4.62673C26.19 4.0438 26.19 3.46091 26.1893 2.87798C26.1872 2.85836 26.183 2.83899 26.1768 2.82018L26.1868 2.81691L26.7662 2.82393C26.7681 2.8516 26.7717 2.87928 26.7718 2.90694C26.7722 3.1618 26.7712 3.41673 26.7732 3.67156C26.7734 3.6981 26.747 3.72696 26.8187 3.75505C26.9092 3.75505 27.008 3.75609 27.1066 3.75477C27.2124 3.75907 27.3183 3.75628 27.4237 3.74646L27.4237 2.82148C27.208 2.80916 27.0011 2.82075 26.7969 2.81412C26.794 2.78658 26.7887 2.75907 26.7886 2.73152C26.788 2.47732 26.7886 2.22308 26.7877 1.96888C26.7856 1.94117 26.7814 1.91367 26.775 1.88655L26.7853 1.88321C26.997 1.88958 27.2083 1.89185 27.4366 1.88062L27.4366 1.56296C27.4366 1.45799 27.4388 1.35305 27.4359 1.24809C27.4428 1.14265 27.439 1.0368 27.4246 0.932057C27.1952 0.934051 26.9903 0.926389 26.7851 0.936215L26.7753 0.932943Z" fill="#F9F9F9" fill-opacity="0.5"/>
<path d="M58.5928 5.6348C58.5988 5.62173 58.603 5.60792 58.6051 5.59377C58.6058 5.30848 58.6059 5.0232 58.6053 4.7379C58.6038 4.72258 58.6011 4.70735 58.5971 4.69244C58.3948 4.67388 58.1886 4.68596 57.9857 4.68378C57.7788 4.68155 57.5715 4.68331 57.3644 4.68331L56.7491 4.68331C56.6861 4.65919 56.7121 4.63313 56.7119 4.60936C56.7098 4.35177 56.711 4.09416 56.71 3.83657C56.7079 3.80879 56.7036 3.7812 56.6971 3.75403L56.7074 3.75056C57.1125 3.76033 57.5175 3.75247 57.918 3.75539C57.973 3.4481 57.9819 3.13485 57.9444 2.82517C57.7652 2.80326 57.5715 2.82534 57.3884 2.81215C57.3421 2.50796 57.3351 2.19952 57.3677 1.89371C57.5482 1.87802 57.7405 1.8955 57.915 1.88417C57.9678 1.86847 57.9567 1.8509 57.9567 1.83483C57.9574 1.54619 57.9574 1.25759 57.9567 0.968936C57.9544 0.957406 57.9501 0.946304 57.9439 0.936154L57.9541 0.932678C58.3665 0.940037 58.7789 0.940042 59.1913 0.932746L59.2011 0.936154C59.1948 0.963393 59.1905 0.990995 59.1884 1.01882C59.1875 1.27692 59.1884 1.53502 59.1871 1.79312C59.187 1.8203 59.2016 1.84818 59.1623 1.88342L58.602 1.88342L58.602 2.81154C58.8722 2.82733 59.6697 2.8247 59.8524 2.80697L59.8524 2.75054C59.8524 2.16496 59.8522 1.57938 59.8518 0.993812C59.8497 0.974196 59.8455 0.954863 59.8392 0.936086L59.8488 0.932814L60.4318 0.940652L60.4318 1.87783C60.647 1.89905 60.8564 1.87837 61.0698 1.89242L61.0698 2.81481L60.4439 2.81481C60.4331 2.9193 60.4302 3.02438 60.4351 3.12927C60.4331 3.22927 60.4346 3.32927 60.4346 3.42928L60.4346 3.7419C60.246 3.75892 60.0539 3.74199 59.8793 3.75267C59.826 3.76812 59.8367 3.78572 59.8367 3.80181C59.8362 4.40185 59.8362 5.00191 59.8368 5.60195C59.839 5.61346 59.8432 5.62458 59.8492 5.6348L59.8392 5.63807C59.4269 5.63074 59.0147 5.63074 58.6025 5.63807L58.5928 5.6348Z" fill="#F9F9F9" fill-opacity="0.5"/>
<path d="M68.5665 12.1908C68.4763 12.1894 68.386 12.1868 68.2958 12.1866C67.562 12.1853 66.8281 12.1842 66.0943 12.1834C66.0915 11.95 66.0888 11.7166 66.0861 11.4833C66.0853 11.4113 66.086 11.3394 66.086 11.2587L67.3193 11.2587L67.3193 10.3236C67.0067 10.3142 66.7011 10.3204 66.3963 10.3193C66.089 10.3182 65.7817 10.319 65.46 10.319C65.4153 10.2411 65.444 10.164 65.4389 10.0876C65.4336 10.0099 65.4377 9.93203 65.4377 9.85422L65.4377 9.39193C65.2383 9.37803 65.0469 9.39101 64.851 9.38205L64.851 8.44474L66.0572 8.44474C66.0726 8.54865 66.0766 8.65382 66.0691 8.75851C66.0723 8.86132 66.0697 8.96409 66.0697 9.06691L66.0697 9.38007C66.2902 9.39329 68.3046 9.39489 68.5493 9.38348C68.59 9.06933 68.5926 8.75176 68.5571 8.43703L67.9589 8.43703C67.9163 8.40192 67.9321 8.37393 67.932 8.3468C67.9306 8.09392 67.9316 7.84106 67.9306 7.58818C67.9286 7.56032 67.9246 7.53264 67.9186 7.50531L67.9291 7.50183C68.2521 7.51258 68.576 7.50351 68.8994 7.50681C68.9818 7.50354 69.0643 7.50562 69.1464 7.51301C69.176 7.54337 69.1608 7.57403 69.1609 7.60399C69.1618 8.79022 69.1623 9.97645 69.1622 11.1627C69.1642 11.1933 69.1682 11.2238 69.1743 11.2539L69.1647 11.2572C68.9684 11.2487 68.7717 11.2497 68.5755 11.2602C68.57 11.2719 68.5661 11.2842 68.5639 11.2969C68.5634 11.5856 68.5636 11.8743 68.5643 12.1631C68.5643 12.1712 68.5723 12.1793 68.5765 12.1875L68.5665 12.1908Z" fill="#F9F9F9" fill-opacity="0.5"/>
<path d="M47.3719 3.75076C47.3781 3.72348 47.3823 3.69581 47.3843 3.66796C47.3853 3.41522 47.3844 3.16248 47.3857 2.90975C47.3858 2.88259 47.3705 2.85468 47.4082 2.82244L47.9277 2.82244C47.9513 2.81458 47.9578 2.81284 47.9628 2.81065C47.9672 2.80919 47.9711 2.8068 47.9744 2.8037C47.9781 2.7988 47.9807 2.79319 47.9821 2.78728C47.9832 2.77899 47.9836 2.77068 47.9833 2.76233C47.985 2.15971 47.9868 1.55705 47.9887 0.954424C47.9887 0.951895 47.9936 0.949372 48.0053 0.937999L48.6223 0.937999C48.6332 0.833539 48.6362 0.728481 48.6313 0.623607C48.6332 0.52363 48.6317 0.423646 48.6317 0.323663L48.6317 0.016223C48.8062 0.000389259 50.7525 -0.00383696 51.0981 0.0106345L51.0981 0.931729L50.51 0.931729C50.4339 0.958093 50.4621 0.987225 50.4619 1.01365C50.4598 1.27193 50.4606 1.53027 50.4606 1.78856L50.4606 1.8777C50.2734 1.88677 50.093 1.87943 49.9006 1.88267C49.8544 1.80395 49.8852 1.72677 49.8797 1.65034C49.874 1.56984 49.8784 1.48927 49.8784 1.40874L49.8784 0.938817C49.6596 0.925267 49.4552 0.934617 49.2646 0.932138C49.2457 0.938475 49.2391 0.940241 49.2341 0.942429C49.2294 0.944523 49.2233 0.946986 49.2229 0.949381C49.2182 0.971265 49.2153 0.993448 49.2143 1.01576C49.2156 1.61005 49.2177 2.20437 49.2203 2.79866C49.2203 2.80341 49.2337 2.80816 49.2496 2.81876L50.4249 2.81876C50.4804 3.12386 50.4896 3.43497 50.4522 3.74258C50.2721 3.75897 50.0801 3.74194 49.9053 3.75267C49.8522 3.76799 49.8628 3.78558 49.8627 3.80167C49.8621 4.08495 49.8621 4.36827 49.8628 4.65155C49.865 4.66306 49.8692 4.67412 49.8752 4.68433L49.8652 4.6876L49.2517 4.68024C49.215 4.65048 49.231 4.62266 49.2309 4.59566C49.2295 4.3412 49.2309 4.08674 49.2289 3.83227C49.2287 3.80582 49.2555 3.77692 49.1826 3.74954C48.8683 3.74954 48.5461 3.74849 48.224 3.74981C47.9433 3.75096 47.6621 3.74396 47.3817 3.75397L47.3719 3.75076Z" fill="#F9F9F9" fill-opacity="0.5"/>
<path d="M49.2266 6.57144C49.2204 6.59874 49.2162 6.62646 49.2142 6.65432C49.2132 6.90713 49.2142 7.15991 49.2128 7.41273C49.2127 7.43987 49.2283 7.46784 49.1898 7.49997L46.7326 7.49997C46.7179 7.60275 46.7139 7.70666 46.7207 7.8102C46.718 7.91299 46.7201 8.01573 46.7201 8.11853L46.7201 8.43019L46.1512 8.43019C46.134 8.32943 46.1298 8.22702 46.1388 8.12527C46.1348 8.02249 46.1379 7.91974 46.1379 7.81695L46.1379 6.88345L46.1379 6.57083L45.5469 6.57083C45.5199 6.56286 45.513 6.56126 45.5079 6.55918C45.5029 6.55716 45.4963 6.55466 45.4963 6.55236C45.4938 5.94399 45.4918 5.33559 45.4902 4.72721C45.4924 4.71477 45.4964 4.70271 45.502 4.69129L46.7235 4.6842L46.7334 4.68754C46.7273 4.69772 46.723 4.7088 46.7208 4.72033C46.7201 5.00905 46.72 5.29777 46.7207 5.58649C46.7207 5.60257 46.7098 5.62014 46.7534 5.6329C47.0394 5.64387 47.7796 5.64129 47.9831 5.62724L47.9831 5.31401C47.9831 5.21128 47.9812 5.10858 47.9836 5.00589C47.9781 4.90155 47.981 4.79698 47.9922 4.69306L48.6152 4.69306L48.6152 6.03719C48.6152 6.12602 48.6115 6.21493 48.6162 6.30374C48.6046 6.39346 48.6111 6.48448 48.6355 6.57185C48.8383 6.57096 49.0273 6.57745 49.2167 6.56824L49.2266 6.57144Z" fill="#F9F9F9" fill-opacity="0.5"/>
<path d="M26.1772 2.82015L25.5426 2.81265L25.5426 1.88576C25.3192 1.87888 25.1143 1.88207 24.9105 1.88256C24.7043 1.88306 24.4976 1.87687 24.2919 1.88631L24.2821 1.88311C24.2881 1.87295 24.2923 1.86194 24.2945 1.85046C24.2952 1.55972 24.2952 1.26898 24.2946 0.978232C24.2946 0.964833 24.3013 0.95028 24.2675 0.939521C23.9732 0.924832 23.2061 0.928498 23.0434 0.945314C23.04 0.950724 23.0339 0.956187 23.0339 0.961603C23.0336 1.26342 23.0337 1.56521 23.0344 1.86702C23.0344 1.87239 23.0416 1.87774 23.0454 1.88311L23.0357 1.88631L22.4602 1.87881L22.4602 0.013042C22.6707 -7.83106e-05 25.468 -0.00518279 26.1546 0.00636317C26.1978 0.081769 26.1671 0.158955 26.1727 0.235427C26.1784 0.313089 26.1739 0.390801 26.1739 0.468512L26.1739 0.929025C26.3743 0.939971 26.5751 0.94127 26.7756 0.93291L26.7855 0.936182C26.7831 0.938839 26.7788 0.941498 26.7788 0.944156C26.7786 1.25449 26.7786 1.5648 26.779 1.87513C26.779 1.8778 26.7833 1.88044 26.7856 1.88311L26.7754 1.88645C26.5791 1.87797 26.3824 1.87897 26.1862 1.88944C26.1807 1.90116 26.1768 1.91351 26.1746 1.92618C26.1741 2.2149 26.1743 2.50362 26.175 2.79234C26.175 2.80049 26.1829 2.80866 26.1872 2.81681L26.1772 2.82015Z" fill="#F9F9F9" fill-opacity="0.5"/>
<path d="M55.4738 4.68796L56.0954 4.68796L56.0954 5.63195C56.2987 5.64697 56.4823 5.63241 56.6611 5.6419C56.7063 5.94845 56.7091 6.25936 56.6696 6.56661L54.8605 6.56661C54.8471 6.66946 54.8435 6.77324 54.8497 6.87671C54.8472 6.97944 54.8491 7.08222 54.8491 7.18497L54.8491 7.49657L54.2466 7.49657C54.1973 6.88085 54.1903 6.26266 54.2255 5.64606C54.4226 5.62855 54.6312 5.64749 54.8295 5.63529C54.8798 5.32296 54.8869 5.00566 54.8505 4.69157C54.6542 4.67095 54.4445 4.69289 54.2448 4.6791C54.2023 4.0614 54.1966 3.44186 54.2278 2.82355C54.4205 2.81874 54.6174 2.82181 54.8136 2.8213C55.0127 2.82079 55.2119 2.82116 55.4024 2.82116C55.4171 2.8255 55.424 2.82713 55.4292 2.82921C55.4342 2.83122 55.4399 2.8336 55.4408 2.83602C55.4445 2.84387 55.4466 2.85226 55.4472 2.86083C55.4499 3.46337 55.4524 4.06593 55.4549 4.66847C55.4549 4.67103 55.4597 4.67361 55.4738 4.68796Z" fill="#F9F9F9" fill-opacity="0.5"/>
<path d="M66.6806 4.6842C67.1362 4.69374 67.5921 4.68629 68.0479 4.68843C68.2122 4.6892 68.3767 4.68857 68.5518 4.68857L68.5518 6.56074C68.3559 6.57738 68.1474 6.55896 67.9574 6.57042C67.904 6.58667 67.9154 6.60427 67.9154 6.62031C67.9146 6.90044 67.9146 7.18052 67.9154 7.46064C67.9177 7.47486 67.9223 7.48866 67.9289 7.5016L67.9185 7.50508C67.5957 7.50371 67.2729 7.50229 66.9501 7.50078C66.8609 7.50397 66.7716 7.50126 66.6828 7.49274L66.6828 6.57417C66.4818 6.55946 66.2987 6.57366 66.1174 6.56449C66.0608 6.54354 66.0873 6.51734 66.0871 6.49361C66.085 6.23589 66.0862 5.9782 66.0852 5.72048C66.0832 5.69268 66.079 5.66503 66.0728 5.63781L66.0828 5.63454C66.2799 5.64304 66.4772 5.64201 66.6742 5.6314C66.6788 5.61674 66.6821 5.60172 66.6838 5.58649C66.6843 5.29775 66.6842 5.00899 66.6836 4.72026C66.6814 4.70874 66.6771 4.69766 66.671 4.68748L66.6806 4.6842Z" fill="#F9F9F9" fill-opacity="0.5"/>
<path d="M13.0607 9.38959L12.4854 9.38189L12.4854 5.64217C12.6637 5.63573 12.8437 5.64105 13.0362 5.6389C13.0813 5.71749 13.0506 5.79468 13.0562 5.87117C13.062 5.94885 13.0575 6.02659 13.0575 6.10432L13.0575 6.55979C13.2487 6.57572 13.8976 6.57963 14.3075 6.56865L14.3173 6.57185C14.3113 6.582 14.3071 6.59309 14.3049 6.60457C14.3042 6.88965 14.3042 7.17473 14.3048 7.45982C14.3049 7.47322 14.298 7.48776 14.3577 7.50726L14.9525 7.50726L14.9525 7.59777C14.9525 7.84964 14.9522 8.10151 14.9531 8.35338C14.9553 8.38114 14.9595 8.40875 14.9658 8.43592L14.9556 8.43926C14.9312 8.43785 14.9068 8.43525 14.8824 8.43523C14.3176 8.43497 13.7529 8.43494 13.1881 8.4351C13.1485 8.43216 13.1088 8.43655 13.071 8.44805C13.0674 8.45446 13.0589 8.46247 13.0589 8.47047C13.0586 8.77037 13.0588 9.07026 13.0598 9.37016C13.0598 9.37555 13.0669 9.38094 13.0707 9.38632L13.0607 9.38959Z" fill="#F9F9F9" fill-opacity="0.5"/>
<path d="M16.2026 1.88637C15.9902 1.87967 15.7778 1.87864 15.5654 1.88664L15.5551 1.88316C15.5609 1.86144 15.5649 1.83927 15.5668 1.81692C15.5676 1.55017 15.5676 1.28341 15.5667 1.01666C15.5666 0.992053 15.58 0.966807 15.5507 0.942984C15.3753 0.928864 14.6892 0.925263 14.315 0.937395C14.3016 1.04088 14.2982 1.14539 14.3049 1.24947C14.3021 1.35227 14.3043 1.45505 14.3043 1.55787L14.3043 1.87757L13.734 1.87757C13.7194 1.77352 13.7157 1.66835 13.7228 1.56359C13.7198 1.46079 13.7222 1.35801 13.7222 1.2552L13.7222 0.934737L12.5135 0.934737C12.4544 0.631698 12.444 0.321772 12.4828 0.0157536C12.4879 0.0134178 12.4932 0.0113975 12.4986 0.00961978C12.505 0.00736431 12.5118 0.00597866 12.5187 0.00553057C13.707 0.00465593 14.8952 0.00395762 16.0835 0.00341796C16.1152 0.00341796 16.147 0.00565031 16.1994 0.00764349L16.1994 0.0995146C16.1994 0.66358 16.1996 1.22764 16.2 1.7917C16.2021 1.82233 16.2064 1.85283 16.2129 1.88289L16.2026 1.88637Z" fill="#F9F9F9" fill-opacity="0.5"/>
<path d="M47.9699 11.257C47.6469 11.247 47.3231 11.2555 46.9998 11.2524C46.919 11.2555 46.8381 11.2537 46.7575 11.247C46.7296 10.9408 46.7292 10.6328 46.7561 10.3265L47.3306 10.3265C47.411 10.2975 47.3835 10.2684 47.3837 10.2418C47.3857 9.98913 47.3849 9.73645 47.3849 9.48375L47.3849 9.39243C47.599 9.39178 47.8036 9.39098 48.0083 9.39066C48.2061 9.39035 48.4038 9.39059 48.6162 9.39059C48.6345 9.28465 48.6394 9.17698 48.6309 9.06993C48.6345 8.9672 48.6317 8.8645 48.6317 8.76174L48.6317 8.44366L49.2074 8.44366L49.2074 9.37866C49.4212 9.40429 49.6312 9.38056 49.8315 9.39427C49.8808 9.69799 49.8882 10.0066 49.8536 10.3122C49.6535 10.3264 49.4475 10.3168 49.2438 10.3185C49.0363 10.3203 48.8286 10.3188 48.6209 10.3188L48.0213 10.3188C47.9571 10.3374 47.9677 10.3549 47.9677 10.371C47.967 10.6543 47.967 10.9376 47.9678 11.2208C47.97 11.2323 47.9742 11.2434 47.9801 11.2536L47.9699 11.257Z" fill="#F9F9F9" fill-opacity="0.5"/>
<path d="M67.33 0.936086C67.3237 0.954849 67.3194 0.974204 67.3173 0.993812C67.3166 1.5791 67.3164 2.16444 67.3167 2.74972L67.3167 2.81154C67.5269 2.83071 67.7334 2.81855 67.9366 2.8208C68.135 2.823 68.3337 2.82128 68.5299 2.82128C68.5739 3.12732 68.5776 3.43745 68.5408 3.74435C68.46 3.75095 68.3789 3.7526 68.2979 3.74933C67.8416 3.74986 67.3853 3.75003 66.929 3.74981C66.8466 3.74988 66.7642 3.75259 66.6818 3.7541L66.6714 3.75069C66.6777 3.73193 66.682 3.71257 66.6841 3.69297C66.6848 3.11336 66.6849 2.53377 66.6847 1.95416L66.6847 1.89371C66.4945 1.8692 66.3011 1.89128 66.1176 1.87865C66.0751 1.56721 66.0724 1.25198 66.1094 0.939902L67.3196 0.932678L67.33 0.936086Z" fill="#F9F9F9" fill-opacity="0.5"/>
<path d="M78.5405 0.935963C78.3345 0.927929 78.1287 0.930623 77.9094 0.934805C77.8852 1.01003 77.8786 1.08941 77.89 1.16734C77.8854 1.24787 77.889 1.32846 77.889 1.40902L77.889 1.87798L76.6586 1.87798L76.6586 0.934259L76.0965 0.934259C76.0402 0.630946 76.0305 0.321407 76.0676 0.0154129C76.073 0.0131118 76.0784 0.0110891 76.084 0.00934722C76.0905 0.00717491 76.0974 0.00581563 76.1044 0.00539432C76.8769 0.00453827 77.6494 0.00392413 78.422 0.00341796C78.4536 0.00341796 78.4853 0.00568226 78.5167 0.0068938C78.5522 0.0362611 78.5364 0.0641394 78.5365 0.0912679C78.5379 0.34405 78.5369 0.596893 78.5379 0.849681C78.54 0.87754 78.5444 0.905167 78.5508 0.932419L78.5405 0.935963Z" fill="#F9F9F9" fill-opacity="0.5"/>
<path d="M59.8491 5.63501L61.0783 5.63501C61.1033 5.56041 61.11 5.48131 61.098 5.40383C61.103 5.32336 61.0991 5.24287 61.0991 5.16237L61.0991 4.69136L61.6413 4.69136C61.7243 4.66255 61.6961 4.63333 61.6963 4.60691C61.6984 4.35428 61.6976 4.10167 61.6976 3.84905L61.6976 3.76011C61.9007 3.75087 62.0972 3.75627 62.3003 3.75629C62.3536 3.78449 62.3282 3.81572 62.3283 3.84482C62.3301 4.41116 62.3294 4.97748 62.3302 5.54382C62.3322 5.57441 62.3362 5.60485 62.3423 5.63494L62.3327 5.63821C62.1206 5.63212 61.9089 5.62925 61.6814 5.64128C61.6814 5.69741 61.6818 5.74964 61.6813 5.80185C61.6788 6.05647 61.6762 6.31109 61.6734 6.56572C61.3199 6.56634 60.9662 6.56628 60.6127 6.56783C60.3583 6.56894 60.1034 6.56257 59.8494 6.57199L59.8393 6.56858C59.8435 6.56044 59.8514 6.55232 59.8514 6.54418C59.852 6.25036 59.852 5.95651 59.8513 5.66268C59.8513 5.65454 59.8434 5.64642 59.8391 5.63828L59.8491 5.63501Z" fill="#F9F9F9" fill-opacity="0.5"/>
<path d="M44.2297 12.1907L43.666 12.1829C43.6398 12.1116 43.6352 8.53755 43.6609 8.44458L44.8455 8.44458C44.8948 9.06593 44.9019 9.6897 44.8666 10.3119C44.6693 10.329 44.4607 10.3104 44.2693 10.3221C44.2165 10.3377 44.2275 10.3553 44.2274 10.3714C44.2268 10.9657 44.2269 11.56 44.2275 12.1544C44.2297 12.1659 44.2339 12.177 44.2399 12.1872L44.2297 12.1907Z" fill="#F9F9F9" fill-opacity="0.5"/>
<path d="M45.4893 0.93165L44.9034 0.93165L44.9034 0.00455685C45.1007 0.00404693 45.2976 0.0035909 45.4943 0.00312565C45.6932 0.00286883 45.892 0.00305751 46.0884 0.00305752C46.1351 0.0768499 46.1557 3.45505 46.1127 3.74258C45.9128 3.75597 45.7105 3.74709 45.4893 3.74844L45.4893 0.93165Z" fill="#F9F9F9" fill-opacity="0.5"/>
<path d="M27.4123 10.3162C26.8778 10.3172 26.3433 10.3182 25.8088 10.3193C25.7188 10.3195 25.6288 10.3219 25.5388 10.3233L25.529 10.3201C25.5352 10.2929 25.5394 10.2654 25.5415 10.2377C25.5425 9.98024 25.5413 9.72275 25.5434 9.46534C25.5435 9.44154 25.5182 9.41563 25.5711 9.39432C25.7741 9.38145 25.9832 9.40429 26.1841 9.38048C26.1841 9.06706 26.1841 8.75723 26.1838 8.4474C26.1838 8.44473 26.1794 8.44208 26.1771 8.43942L26.1869 8.43622C26.5098 8.43761 26.8327 8.43912 27.1557 8.44065C27.236 8.43759 27.3165 8.43921 27.3966 8.44549C27.4344 8.46456 27.4203 8.48435 27.4203 8.50314C27.4211 9.09371 27.4211 9.68429 27.4205 10.2749C27.4192 10.2889 27.4164 10.3027 27.4123 10.3162Z" fill="#F9F9F9" fill-opacity="0.5"/>
<path d="M57.9439 0.936026C57.5046 0.926206 57.0647 0.933825 56.6251 0.931665C56.4601 0.930855 56.2951 0.931596 56.1191 0.931596C56.0924 1.00732 56.0848 1.08795 56.097 1.167C56.0921 1.24749 56.0959 1.32802 56.0959 1.40854L56.0959 1.87777L55.4921 1.87777C55.4469 1.25766 55.4401 0.635528 55.4718 0.0146577C55.6442 0.000415106 57.619 -0.00298614 57.925 0.0106367C57.9554 0.036777 57.9402 0.0646569 57.9403 0.0918077C57.9416 0.344473 57.9407 0.597153 57.9416 0.849812C57.9437 0.877648 57.9479 0.905281 57.9541 0.932551L57.9439 0.936026Z" fill="#F9F9F9" fill-opacity="0.5"/>
<path d="M34.2661 5.63811C34.2623 5.64348 34.2552 5.64883 34.2552 5.6542C34.2545 5.9536 34.2544 6.25306 34.2549 6.55246C34.2549 6.55784 34.2618 6.56316 34.2655 6.56854L34.2559 6.57188C34.0607 6.56555 33.8659 6.56296 33.6655 6.574C33.6603 6.5885 33.6568 6.60343 33.6549 6.61864C33.6571 6.90853 33.6597 7.19845 33.663 7.48834C33.663 7.49073 33.6687 7.49332 33.6732 7.49543C33.678 7.49767 33.6847 7.49939 33.6982 7.50388C33.8789 7.50732 34.0673 7.51051 34.2559 7.50218L34.2654 7.50545C34.2594 7.53274 34.2554 7.56037 34.2534 7.58819C34.2525 7.84069 34.2529 8.09322 34.2529 8.34572L34.2529 8.43111L33.0358 8.43111L33.0358 5.642L34.2557 5.6347L34.2661 5.63811Z" fill="#F9F9F9" fill-opacity="0.5"/>
<path d="M76.0441 4.67955L75.4246 4.67955L75.4246 2.83089C75.6177 2.81869 77.3801 2.81433 77.858 2.82482C77.9082 3.12865 77.9158 3.43752 77.8806 3.74326C77.6884 3.75619 77.4906 3.74792 77.2948 3.74926C77.0872 3.75068 76.8793 3.7496 76.6716 3.7496L76.0636 3.7496C76.0413 3.82642 76.035 3.90668 76.045 3.98582C76.041 4.06359 76.0441 4.14139 76.0441 4.21918C76.0441 4.2942 76.0441 4.36921 76.0441 4.44422C76.0441 4.52147 76.0441 4.59872 76.0441 4.67955Z" fill="#F9F9F9" fill-opacity="0.5"/>
<path d="M49.8751 4.68437C50.287 4.69134 50.6989 4.6919 51.1108 4.68396L51.1211 4.68744C51.1152 4.71471 51.1113 4.74233 51.1094 4.77011C51.1084 5.02784 51.1093 5.28558 51.108 5.54331C51.1079 5.57057 51.1225 5.59838 51.0852 5.63375L50.4622 5.63375L50.4622 6.56459L49.2267 6.57155L49.2169 6.56834C49.2232 6.54117 49.2274 6.51356 49.2295 6.48581C49.2304 6.22838 49.2293 5.97098 49.2313 5.71356C49.2315 5.68976 49.2061 5.66382 49.2593 5.64247C49.4621 5.62979 49.6712 5.65249 49.8675 5.62912C49.8721 5.62003 49.8754 5.61042 49.8774 5.60049C49.8778 5.30432 49.8778 5.00815 49.8772 4.71197C49.8772 4.70384 49.8693 4.6957 49.8651 4.68757L49.8751 4.68437Z" fill="#F9F9F9" fill-opacity="0.5"/>
<path d="M35.5157 0.0073852L36.7329 0.00738525L36.7329 0.926778C36.5544 0.940769 36.3622 0.923692 36.1538 0.93775C36.1463 1.04234 36.1444 1.14723 36.1481 1.25201C36.1465 1.35468 36.1478 1.45732 36.1478 1.55999L36.1478 1.87841L34.9305 1.87841L34.9305 0.942385C35.109 0.928388 35.3012 0.945506 35.5032 0.931889C35.5185 0.830462 35.5224 0.727768 35.515 0.625539C35.518 0.52287 35.5157 0.420164 35.5157 0.317484L35.5157 0.0073852Z" fill="#F9F9F9" fill-opacity="0.5"/>
<path d="M34.2553 5.6345C34.2617 5.60444 34.266 5.57399 34.2681 5.54338C34.2688 4.97944 34.269 4.41552 34.2686 3.8516L34.2686 3.75598L34.9044 3.75598C34.9191 3.65319 34.9231 3.54929 34.9163 3.44574C34.919 3.34297 34.9169 3.24014 34.9169 3.13735L34.9169 2.82568L35.4697 2.82568C35.5178 3.442 35.5246 4.06062 35.49 4.67776C35.3091 4.6922 35.1167 4.67516 34.9108 4.68859C34.8986 4.76503 34.8954 4.84252 34.9012 4.91963C34.8989 5.00019 34.9007 5.08075 34.9007 5.16131L34.9007 5.63014L34.2657 5.6379L34.2553 5.6345Z" fill="#F9F9F9" fill-opacity="0.5"/>
<path d="M28.01 13.1338C27.8215 13.1382 27.6331 13.1389 27.4447 13.1336C27.4407 13.1117 27.4381 13.0895 27.4368 13.0672C27.4364 12.1759 27.4364 11.2847 27.4368 10.3934C27.4383 10.3711 27.4413 10.349 27.4458 10.3271C27.7645 10.3262 28.0831 10.3252 28.4018 10.3242C28.4913 10.3238 28.5807 10.3215 28.6702 10.3201L28.68 10.3233C28.6758 10.3315 28.6679 10.3396 28.6679 10.3477C28.6673 10.6416 28.6673 10.9354 28.668 11.2292C28.668 11.2374 28.6759 11.2455 28.6802 11.2536L28.6704 11.2568C28.4646 11.2493 28.2591 11.2518 28.0484 11.2557C27.9984 11.2856 28.0198 11.3167 28.0197 11.3461C28.0182 11.9116 28.0187 12.4772 28.0182 13.0427C28.0182 13.0731 28.0129 13.1034 28.01 13.1338Z" fill="#F9F9F9" fill-opacity="0.5"/>
<path d="M43.6534 1.8913L44.8628 1.8913L44.8628 2.81539L44.2363 2.81539L44.2363 4.67666C44.0421 4.68982 43.8613 4.67942 43.6925 4.68368C43.676 4.67904 43.669 4.67754 43.6638 4.67551C43.6587 4.67353 43.6517 4.67103 43.6517 4.66876C43.6491 3.75747 43.6469 2.84621 43.6452 1.93491C43.6466 1.92018 43.6493 1.90558 43.6534 1.8913Z" fill="#F9F9F9" fill-opacity="0.5"/>
<path d="M33.0318 1.89014L34.2397 1.89014L34.2397 2.81498L33.6618 2.81498C33.6529 2.91963 33.6504 3.02472 33.6545 3.12965C33.6529 3.22966 33.6541 3.32964 33.6541 3.42966L33.6541 3.7403C33.5478 3.75067 33.4408 3.75365 33.334 3.74916C33.2363 3.75057 33.1384 3.74943 33.0318 3.74943L33.0318 1.89014Z" fill="#F9F9F9" fill-opacity="0.5"/>
<path d="M39.243 6.56845C39.2492 6.54117 39.2533 6.51349 39.2553 6.48565C39.2563 6.23293 39.2554 5.98022 39.2567 5.72751C39.2568 5.70036 39.2414 5.67251 39.2736 5.64511C39.3554 5.63782 39.4377 5.6359 39.5197 5.63939C39.9766 5.63882 40.4335 5.63866 40.8903 5.63891C40.9729 5.63884 41.0554 5.63629 41.138 5.63489L41.1478 5.63809C41.1436 5.64623 41.1357 5.65436 41.1357 5.66249C41.1351 5.95632 41.1351 6.25017 41.1358 6.54399C41.1358 6.55213 41.1437 6.56025 41.1479 6.56839L41.1377 6.57179C40.7494 6.56191 40.3604 6.56853 39.9717 6.56791C39.7322 6.56753 39.492 6.56195 39.2529 6.57186L39.243 6.56845Z" fill="#F9F9F9" fill-opacity="0.5"/>
<path d="M78.5506 0.932746C78.9627 0.940116 79.3747 0.940074 79.7868 0.932678L79.7972 0.936086C79.7949 0.938749 79.7905 0.941465 79.7905 0.944128C79.7903 1.25448 79.7903 1.56483 79.7907 1.87517C79.7907 1.87784 79.795 1.88049 79.7974 1.88315L79.7872 1.88662C79.5814 1.87855 79.3758 1.88139 79.1572 1.8854C79.1316 1.96011 79.1246 2.0395 79.1367 2.11725C79.1317 2.19486 79.1356 2.27249 79.1356 2.35014L79.1356 2.80942C79.0427 2.81643 78.9495 2.81848 78.8564 2.81562C78.7659 2.81671 78.6752 2.8159 78.5782 2.8159C78.5357 2.78445 78.5545 2.75362 78.5544 2.72416C78.553 2.15849 78.5536 1.59281 78.5529 1.02714C78.5508 0.996585 78.5467 0.966249 78.5404 0.936222L78.5506 0.932746Z" fill="#F9F9F9" fill-opacity="0.5"/>
<path d="M18.0726 0.00720212L18.6802 0.00720215L18.6802 1.88027C18.4879 1.88375 18.2918 1.88235 18.0967 1.88074C18.0887 1.87779 18.0825 1.87591 18.0778 1.87366C18.0733 1.87151 18.0673 1.86899 18.0673 1.86664C18.0649 1.2586 18.063 0.650604 18.0615 0.0425738C18.0635 0.0303734 18.0673 0.0184541 18.0726 0.00720212Z" fill="#F9F9F9" fill-opacity="0.5"/>
<path d="M37.3982 9.38648C37.4043 9.3592 37.4084 9.33152 37.4105 9.30368C37.4114 9.04543 37.4105 8.78716 37.4118 8.52891C37.4119 8.50176 37.3967 8.47387 37.4326 8.44303L38.6448 8.43622L38.6546 8.43942C38.6523 8.44208 38.6479 8.44473 38.6479 8.4474C38.6477 8.75773 38.6478 9.06804 38.6481 9.37837C38.6481 9.38104 38.6525 9.38376 38.6548 9.38642L38.6446 9.38976C38.2324 9.38253 37.8202 9.38256 37.408 9.38982L37.3982 9.38648Z" fill="#F9F9F9" fill-opacity="0.5"/>
<path d="M56.6968 8.43924C56.3827 8.42919 56.0679 8.43742 55.7534 8.43494C55.6639 8.43423 55.5743 8.43481 55.4745 8.43481L55.4745 7.50825C55.6707 7.50769 55.8668 7.50714 56.063 7.50662C56.2617 7.50633 56.4605 7.50655 56.6543 7.50655C56.7195 7.5301 56.6925 7.55627 56.6927 7.57995C56.6948 7.8377 56.6936 8.09546 56.6946 8.35323C56.6967 8.38102 56.7008 8.40861 56.707 8.43583L56.6968 8.43924Z" fill="#F9F9F9" fill-opacity="0.5"/>
<path d="M67.3198 0.932746C67.3261 0.905549 67.3304 0.877937 67.3325 0.850144C67.3335 0.597936 67.3325 0.345778 67.3339 0.093571C67.3341 0.0663476 67.3189 0.0384829 67.3527 0.0076975C67.7446 0.00769751 68.1392 0.00766846 68.5339 0.00762939C68.5738 0.313509 68.5758 0.622865 68.5399 0.929202L67.3301 0.936153L67.3198 0.932746Z" fill="#F9F9F9" fill-opacity="0.5"/>
<path d="M33.0309 0.00579829L34.2523 0.00579834C34.2533 0.312368 34.2529 0.616541 34.2525 0.929688C34.0488 0.930346 33.8527 0.931215 33.6566 0.931528C33.4576 0.931846 33.2585 0.931664 33.0682 0.931664C33.0533 0.927399 33.0464 0.925802 33.0412 0.923758C33.0361 0.921771 33.0293 0.9193 33.0293 0.917011C33.0266 0.62843 33.0245 0.339834 33.0228 0.0512567C33.0242 0.0358974 33.0269 0.0207352 33.0309 0.00579829Z" fill="#F9F9F9" fill-opacity="0.5"/>
<path d="M26.1774 5.63798L25.5531 5.63056L25.5531 4.69167L26.1771 4.68445L26.1869 4.68765C26.1827 4.69579 26.1748 4.70391 26.1748 4.71205C26.1742 5.01144 26.1742 5.31084 26.1749 5.61025C26.1749 5.61839 26.1828 5.62657 26.187 5.63471L26.1774 5.63798Z" fill="#F9F9F9" fill-opacity="0.5"/>
<path d="M82.2701 1.87968L81.6746 1.87968C81.6312 1.56907 81.6247 1.25479 81.6551 0.942775C81.8477 0.931463 82.0443 0.938809 82.2348 0.938072C82.2463 0.941282 82.2533 0.942804 82.2585 0.944819C82.2637 0.946796 82.2707 0.949265 82.2707 0.951498C82.2734 1.24279 82.2756 1.53407 82.2773 1.82536C82.2761 1.84358 82.2737 1.86175 82.2701 1.87968Z" fill="#F9F9F9" fill-opacity="0.5"/>
<path d="M72.9047 1.88307C72.9111 1.85589 72.9153 1.82832 72.9175 1.80054C72.9184 1.54289 72.918 1.28525 72.918 1.02761L72.918 0.941528L73.5206 0.941528C73.5603 1.25279 73.5627 1.56735 73.5275 1.87912L72.9151 1.88648L72.9047 1.88307Z" fill="#F9F9F9" fill-opacity="0.5"/>
<path d="M66.073 5.63798L65.4491 5.63055L65.4491 4.69167L66.0735 4.68445L66.083 4.68765C66.0788 4.69579 66.0709 4.70398 66.0708 4.71212C66.0702 5.01151 66.0702 5.31085 66.0708 5.61024C66.0708 5.61838 66.0788 5.62657 66.083 5.63471L66.073 5.63798Z" fill="#F9F9F9" fill-opacity="0.5"/>
<path d="M71.0603 8.43923L70.449 8.43201C70.4164 8.1253 70.4165 7.81625 70.4491 7.50955L71.0605 7.50226L71.0703 7.50567C71.0642 7.51582 71.06 7.52688 71.0577 7.53838C71.0571 7.82667 71.0571 8.11495 71.0577 8.40325C71.06 8.41475 71.0642 8.4258 71.0703 8.43596L71.0603 8.43923Z" fill="#F9F9F9" fill-opacity="0.5"/>
<path d="M69.1865 5.64148L69.8098 5.64148C69.8101 5.94807 69.8103 6.25226 69.8095 6.56291C69.6068 6.57117 69.4104 6.56645 69.2192 6.56618C69.2083 6.56299 69.2014 6.56137 69.1963 6.5593C69.1913 6.55729 69.1847 6.55477 69.1847 6.55249C69.1821 6.26397 69.18 5.97552 69.1783 5.68701C69.1797 5.67166 69.1825 5.6564 69.1865 5.64148Z" fill="#F9F9F9" fill-opacity="0.5"/>
<path d="M66.0716 3.75437L65.4477 3.74626L65.4477 2.82674C65.5431 2.81707 65.6421 2.82233 65.739 2.82149C65.838 2.82063 65.9372 2.82128 66.0311 2.82128C66.0939 2.8455 66.068 2.87156 66.0682 2.89537C66.0703 3.15301 66.0691 3.41066 66.07 3.6683C66.072 3.69607 66.076 3.72365 66.082 3.7509L66.0716 3.75437Z" fill="#F9F9F9" fill-opacity="0.5"/>
<path d="M37.4082 5.6383C37.4018 5.66548 37.3976 5.69312 37.3954 5.7209C37.3944 5.97299 37.3954 6.22502 37.3941 6.47713C37.3939 6.50438 37.4084 6.53217 37.3761 6.5632L36.7923 6.5632C36.7526 6.25752 36.7503 5.94845 36.7854 5.64225L37.3979 5.63489L37.4082 5.6383Z" fill="#F9F9F9" fill-opacity="0.5"/>
<path d="M76.0464 11.257L75.422 11.2493L75.422 10.3292L76.0181 10.3292C76.0683 10.3482 76.0422 10.3743 76.0424 10.3981C76.0444 10.6557 76.0433 10.9134 76.0442 11.171C76.0463 11.1988 76.0504 11.2263 76.0566 11.2535L76.0464 11.257Z" fill="#F9F9F9" fill-opacity="0.5"/>
<path d="M11.8548 10.3268L12.4588 10.3268C12.46 10.6334 12.4593 10.9375 12.4592 11.2471C12.2568 11.2577 12.0603 11.2513 11.8695 11.2517C11.8583 11.2485 11.8513 11.2469 11.8462 11.2449C11.8411 11.2429 11.8342 11.2404 11.8342 11.2381C11.8315 10.9524 11.8294 10.6667 11.8279 10.381C11.8278 10.3648 11.8169 10.3477 11.8548 10.3268Z" fill="#F9F9F9" fill-opacity="0.5"/>
<path d="M83.528 4.68763L82.9037 4.68027L82.9037 3.75802L83.5277 3.75079L83.5375 3.754C83.5315 3.76417 83.5273 3.77522 83.5251 3.78671C83.5244 4.075 83.5244 4.36328 83.5251 4.65158C83.5273 4.66308 83.5315 4.6742 83.5376 4.68436L83.528 4.68763Z" fill="#F9F9F9" fill-opacity="0.5"/>
<path d="M54.8516 10.3236L54.2272 10.3159L54.2272 9.39575L54.8233 9.39575C54.8735 9.41476 54.8474 9.44089 54.8475 9.46466C54.8496 9.72228 54.8484 9.97989 54.8494 10.2375C54.8515 10.2653 54.8556 10.2929 54.8618 10.3201L54.8516 10.3236Z" fill="#F9F9F9" fill-opacity="0.5"/>
<path d="M59.1911 0.932893C59.1972 0.905694 59.2013 0.878114 59.2033 0.850359C59.2043 0.598476 59.2039 0.346556 59.2039 0.0946726L59.2039 0.00811765L59.8097 0.00811767C59.8599 0.028351 59.8345 0.0542423 59.8347 0.0780432C59.8367 0.335459 59.8356 0.592937 59.8365 0.850359C59.8385 0.878106 59.8426 0.905684 59.8486 0.932893L59.839 0.936164C59.6263 0.929171 59.4136 0.929202 59.2009 0.936233L59.1911 0.932893Z" fill="#F9F9F9" fill-opacity="0.5"/>
<path d="M46.7569 0.00738523L47.3555 0.00738525L47.3555 0.929912C47.1638 0.933574 46.9678 0.932044 46.7726 0.930525C46.7234 0.624925 46.7181 0.31435 46.7569 0.00738523Z" fill="#F9F9F9" fill-opacity="0.5"/>
<path d="M46.7238 4.68436C46.73 4.65708 46.7341 4.62946 46.7361 4.60163C46.7371 4.34897 46.7361 4.09628 46.7374 3.84362C46.7376 3.81646 46.7225 3.78857 46.7576 3.75809L47.372 3.75079L47.3818 3.754C47.3756 3.78125 47.3714 3.8089 47.3693 3.83674C47.3683 4.08937 47.3693 4.34198 47.368 4.59461C47.3678 4.62177 47.3829 4.64967 47.3479 4.68014L46.7337 4.6877L46.7238 4.68436Z" fill="#F9F9F9" fill-opacity="0.5"/>
<path d="M29.269 0.932785C29.2753 0.905602 29.2796 0.878032 29.2817 0.850251C29.2827 0.598167 29.2818 0.346058 29.2831 0.0939514C29.2832 0.0667001 29.2688 0.0389102 29.3011 0.00787351L29.8849 0.00787353C29.9246 0.313557 29.9269 0.622637 29.8917 0.928832L29.2794 0.936193L29.269 0.932785Z" fill="#F9F9F9" fill-opacity="0.5"/>
<path d="M17.4255 0.927657L16.827 0.927657L16.827 0.00499466C17.0191 0.00151637 17.2152 0.00285267 17.4104 0.00444946C17.4591 0.31011 17.4642 0.620698 17.4255 0.927657Z" fill="#F9F9F9" fill-opacity="0.5"/>
<path d="M83.528 5.63468C83.5339 5.62447 83.538 5.61338 83.5402 5.6019C83.5408 5.30802 83.5408 5.0142 83.5402 4.72033C83.538 4.70886 83.534 4.69778 83.5282 4.68754L83.5378 4.68427C83.7338 4.69132 83.9299 4.69129 84.126 4.6842L84.1361 4.68761C84.1337 4.69027 84.1294 4.69292 84.1294 4.69559C84.1291 5.00592 84.1292 5.3163 84.1296 5.62664C84.1296 5.6293 84.1339 5.63195 84.1362 5.63461L84.126 5.63795C83.9299 5.6309 83.7339 5.63093 83.5378 5.63802L83.528 5.63468Z" fill="#F9F9F9" fill-opacity="0.5"/>
<path d="M22.477 12.1943L23.0032 12.1943C23.0454 12.5043 23.0519 12.8178 23.0223 13.1292C22.9352 13.1382 22.8475 13.1406 22.76 13.1365C22.6691 13.138 22.5778 13.1368 22.4955 13.1368C22.4805 13.1326 22.4736 13.131 22.4684 13.1289C22.4634 13.1269 22.4565 13.1245 22.4565 13.1222C22.4539 12.8309 22.4518 12.5396 22.4502 12.2483C22.4501 12.2321 22.4392 12.2152 22.477 12.1943Z" fill="#F9F9F9" fill-opacity="0.5"/>
<path d="M56.6973 3.75386L56.1227 3.74596L56.1227 2.8235C56.3022 2.81904 56.4815 2.8211 56.6599 2.82268C56.7191 2.84518 56.693 2.87122 56.6932 2.895C56.6953 3.15261 56.6941 3.41024 56.6951 3.66785C56.6971 3.69563 56.7013 3.72325 56.7075 3.75046L56.6973 3.75386Z" fill="#F9F9F9" fill-opacity="0.5"/>
<path d="M26.7847 5.63804C26.7785 5.66524 26.7744 5.69282 26.7724 5.72058C26.7714 5.97246 26.7718 6.22432 26.7718 6.4762L26.7718 6.56282L26.2159 6.56282C26.1658 6.54256 26.1911 6.51663 26.1909 6.49283C26.1889 6.23544 26.19 5.97799 26.1891 5.72058C26.1871 5.69283 26.183 5.66525 26.177 5.63804L26.1866 5.63477C26.3827 5.64182 26.5787 5.64179 26.7748 5.6347L26.7847 5.63804Z" fill="#F9F9F9" fill-opacity="0.5"/>
<path d="M17.4492 3.75041C17.4556 3.72323 17.4598 3.69559 17.462 3.66781C17.463 3.41574 17.4625 3.16365 17.4625 2.91158L17.4625 2.8255L18.0152 2.8255C18.0549 3.13112 18.0573 3.44012 18.0223 3.74626L17.4596 3.75382L17.4492 3.75041Z" fill="#F9F9F9" fill-opacity="0.5"/>
<path d="M13.0606 3.75386L12.486 3.74596L12.486 2.8235C12.6655 2.81903 12.8448 2.8211 13.0232 2.82268C13.0824 2.84518 13.0563 2.87121 13.0565 2.89499C13.0586 3.1526 13.0574 3.41024 13.0583 3.66785C13.0604 3.69562 13.0646 3.72325 13.0708 3.75045L13.0606 3.75386Z" fill="#F9F9F9" fill-opacity="0.5"/>
<path d="M79.7976 1.88318L80.3721 1.89108L80.3721 2.81361C80.1926 2.81808 80.0133 2.81594 79.835 2.81436C79.7757 2.79186 79.8018 2.76582 79.8016 2.74205C79.7996 2.48443 79.8007 2.22681 79.7998 1.96919C79.7977 1.94142 79.7935 1.91386 79.7873 1.88665L79.7976 1.88318Z" fill="#F9F9F9" fill-opacity="0.5"/>
<path d="M16.213 1.88318L16.7876 1.89108L16.7876 2.81361C16.6082 2.81808 16.4288 2.81594 16.2504 2.81436C16.1912 2.79186 16.2173 2.76583 16.2171 2.74205C16.2151 2.48444 16.2162 2.22681 16.2152 1.96919C16.2132 1.94142 16.209 1.91386 16.2028 1.88665L16.213 1.88318Z" fill="#F9F9F9" fill-opacity="0.5"/>
<path d="M71.0602 7.50223C71.0663 7.47494 71.0704 7.44726 71.0724 7.41942C71.0734 7.16677 71.0725 6.91414 71.0738 6.6615C71.0739 6.63433 71.0588 6.60646 71.0939 6.57603L71.6585 6.5686L71.6683 6.57181C71.6641 6.57994 71.6562 6.58807 71.6562 6.59621C71.6556 6.89002 71.6556 7.18387 71.6563 7.47769C71.6563 7.48583 71.6642 7.49395 71.6685 7.50209L71.6582 7.5055C71.4621 7.49845 71.2661 7.49841 71.07 7.5055L71.0602 7.50223Z" fill="#F9F9F9" fill-opacity="0.5"/>
<path d="M65.4096 7.49862L64.8671 7.49862C64.8273 7.19387 64.8214 6.88598 64.8497 6.58005C64.9369 6.57166 65.0247 6.56937 65.1123 6.57323C65.2032 6.5718 65.2945 6.57289 65.3771 6.57289C65.3916 6.5773 65.3985 6.57897 65.4035 6.58107C65.4084 6.58311 65.4148 6.58558 65.4148 6.58789C65.4173 6.87917 65.4194 7.17047 65.4209 7.46175C65.4188 7.47445 65.415 7.48684 65.4096 7.49862Z" fill="#F9F9F9" fill-opacity="0.5"/>
<path d="M39.9016 3.75049L40.4761 3.75839L40.4761 4.68092C40.2966 4.68538 40.1173 4.68332 39.939 4.68174C39.8797 4.65924 39.9058 4.63313 39.9056 4.60936C39.9036 4.35174 39.9047 4.09418 39.9038 3.83657C39.9017 3.80879 39.8975 3.78117 39.8913 3.75396L39.9016 3.75049Z" fill="#F9F9F9" fill-opacity="0.5"/>
<path d="M43.6647 6.57654L44.2134 6.57654L44.2134 7.4975C44.0385 7.50484 43.8586 7.50008 43.6801 7.49975C43.6312 7.1941 43.626 6.88352 43.6647 6.57654Z" fill="#F9F9F9" fill-opacity="0.5"/>
<path d="M79.7871 0.932786C79.7935 0.905605 79.7977 0.878031 79.7999 0.850252C79.8009 0.598173 79.7999 0.346093 79.8012 0.0940197C79.8013 0.0667628 79.787 0.0389325 79.8191 0.00787351L80.3531 0.00787353C80.3928 0.31349 80.3952 0.62249 80.3601 0.928629L79.7975 0.936194L79.7871 0.932786Z" fill="#F9F9F9" fill-opacity="0.5"/>
<path d="M50.4634 8.43935L49.8888 8.43145L49.8888 7.50899C50.0683 7.50452 50.2476 7.50659 50.426 7.50817C50.4852 7.53067 50.4591 7.55671 50.4593 7.58048C50.4614 7.8381 50.4602 8.09572 50.4612 8.35334C50.4632 8.38111 50.4674 8.40874 50.4736 8.43594L50.4634 8.43935Z" fill="#F9F9F9" fill-opacity="0.5"/>
<path d="M61.6606 0.928789L61.1122 0.928789L61.1122 0.00810281C61.2864 -0.00296854 61.467 0.00670275 61.6437 0.0025824C61.6944 0.309055 61.7001 0.620812 61.6606 0.928789Z" fill="#F9F9F9" fill-opacity="0.5"/>
<path d="M66.6816 3.75414C66.6778 3.75951 66.6706 3.76486 66.6706 3.77022C66.6699 4.06959 66.6699 4.36899 66.6703 4.66835C66.6703 4.67373 66.6772 4.67906 66.6809 4.68444L66.6713 4.68778C66.4752 4.68073 66.2792 4.68069 66.0831 4.68778L66.0736 4.68457C66.0796 4.66575 66.0836 4.64641 66.0856 4.62685C66.0863 4.35524 66.0863 4.08362 66.0855 3.812C66.0832 3.7924 66.0787 3.77307 66.072 3.75441L66.0824 3.75094C66.2787 3.75749 66.475 3.75783 66.6713 3.75073L66.6816 3.75414Z" fill="#F9F9F9" fill-opacity="0.5"/>
<path d="M70.4116 10.3235L69.8371 10.3156L69.8371 9.39308C70.0165 9.38862 70.1959 9.39068 70.3742 9.39226C70.4334 9.41476 70.4074 9.4408 70.4076 9.46458C70.4096 9.72219 70.4085 9.97982 70.4094 10.2374C70.4115 10.2652 70.4157 10.2928 70.4219 10.32L70.4116 10.3235Z" fill="#F9F9F9" fill-opacity="0.5"/>
<path d="M80.386 13.1412L79.8213 13.1336C79.7863 13.1032 79.8014 13.0754 79.8013 13.0482C79.8 12.79 79.8009 12.5318 79.8 12.2736C79.798 12.2457 79.7939 12.2181 79.7879 12.1908L79.7975 12.1875L80.3827 12.1955L80.3827 12.2805C80.3827 12.5387 80.3823 12.7969 80.3833 13.0551C80.3854 13.0829 80.3897 13.1106 80.396 13.1378L80.386 13.1412Z" fill="#F9F9F9" fill-opacity="0.5"/>
<path d="M59.2128 12.1947L59.8028 12.1947C59.8442 12.2067 59.8357 12.2213 59.8357 12.2347C59.8362 12.5263 59.8362 12.8178 59.8357 13.1093C59.8342 13.1179 59.8311 13.1263 59.8268 13.134L59.2379 13.134C59.1959 13.1217 59.2047 13.1071 59.2047 13.0937C59.2041 12.8023 59.2041 12.5108 59.2047 12.2194C59.2061 12.2108 59.2088 12.2025 59.2128 12.1947Z" fill="#F9F9F9" fill-opacity="0.5"/>
<path d="M72.927 11.2499C72.9242 11.0393 72.9199 10.8287 72.919 10.6181C72.9186 10.5212 72.9247 10.4243 72.9278 10.3273L73.5168 10.3273C73.5588 10.3397 73.55 10.3542 73.55 10.3676C73.5506 10.6535 73.5506 10.9395 73.5501 11.2254C73.5485 11.234 73.5455 11.2424 73.5412 11.2501C73.3364 11.2546 73.1317 11.2545 72.927 11.2499Z" fill="#F9F9F9" fill-opacity="0.5"/>
<path d="M19.9309 7.50952C19.9338 7.72014 19.938 7.93074 19.9389 8.14136C19.9394 8.23828 19.9333 8.33519 19.9302 8.4321C19.7254 8.43646 19.5206 8.43708 19.3158 8.43176C19.313 8.20456 19.3092 7.97736 19.3081 7.75016C19.3077 7.6699 19.3137 7.58964 19.3168 7.50938C19.5216 7.50487 19.7263 7.50494 19.9309 7.50952Z" fill="#F9F9F9" fill-opacity="0.5"/>
<path d="M61.0744 11.2496L60.4648 11.2496C60.4471 11.1487 60.4427 11.046 60.4518 10.944C60.4478 10.8415 60.4509 10.739 60.4509 10.6364L60.4509 10.3236C60.2312 10.3144 60.0258 10.32 59.8218 10.319C59.6242 10.3179 59.4265 10.3188 59.2453 10.3188C59.1944 10.3021 59.2048 10.2875 59.2048 10.2742C59.204 9.99153 59.2039 9.70882 59.2045 9.42616C59.2061 9.41487 59.2091 9.40382 59.2135 9.39325L59.7948 9.39325C59.8793 9.36421 59.851 9.33505 59.8512 9.30867C59.8533 9.05052 59.8525 8.79232 59.8525 8.53417L59.8525 8.44625C60.0378 8.43394 60.2182 8.44241 60.413 8.44094C60.4566 8.51787 60.4286 8.5948 60.4335 8.67102C60.4387 8.75148 60.4347 8.83199 60.4347 8.91249L60.4347 9.38105C60.647 9.40194 60.8562 9.38134 61.054 9.39434C61.0981 9.40927 61.0821 9.4269 61.0822 9.44279C61.0831 10.0313 61.0832 10.6197 61.0826 11.2082C61.0812 11.2222 61.0785 11.2361 61.0744 11.2496Z" fill="#F9F9F9" fill-opacity="0.5"/>
<path d="M61.7061 6.57564C61.9112 6.57106 62.1163 6.57064 62.3213 6.57591C62.3253 6.59508 62.328 6.61448 62.3293 6.63398C62.3297 7.21402 62.3297 7.79404 62.3292 8.37408C62.3278 8.39358 62.3248 8.41294 62.3203 8.43201L61.1302 8.43201C61.0885 8.12541 61.0857 7.81516 61.1218 7.50791L61.6469 7.50791C61.7227 7.47869 61.6961 7.44979 61.6963 7.42327C61.6983 7.16837 61.6973 6.91348 61.6979 6.65858C61.698 6.63094 61.7033 6.60327 61.7061 6.57564Z" fill="#F9F9F9" fill-opacity="0.5"/>
</g>
<defs>
<clipPath id="clip0_2105:11094">
<rect width="14.0733" height="96" fill="white" transform="translate(96) rotate(90)"/>
</clipPath>
</defs>
</svg>
