<svg width="192" height="29" viewBox="0 0 192 29" fill="none" xmlns="http://www.w3.org/2000/svg">
<g clip-path="url(#clip0_1337:17240)">
<path d="M182.026 28.1453C182.031 28.0732 182.042 28.0011 182.042 27.929C182.042 18.6935 182.042 9.45804 182.042 0.222557L182.042 0.0262743C182.463 7.82676e-05 190.88 -0.010077 191.925 0.0127804C192.027 0.0501427 191.973 0.0966963 191.982 0.139273C191.987 0.177997 191.987 0.217112 191.984 0.255952C191.984 9.48586 191.984 18.7157 191.984 27.9456C191.984 28.0122 191.995 28.0788 192 28.1453L182.026 28.1453Z" fill="#F9F9F9" fill-opacity="0.5"/>
<path d="M26.1323 28.1466C26.1378 27.6745 26.1431 27.2024 26.1483 26.7303C26.1498 26.5864 26.1486 26.4425 26.1486 26.2922C25.7566 26.2538 25.3717 26.2884 24.9778 26.2664L24.9778 24.3857L27.3785 24.3857C27.4629 23.763 27.4693 23.1331 27.3977 22.509L26.1486 22.509L26.1486 22.3117C26.1486 21.195 26.1482 20.0782 26.1475 18.9615C26.1434 18.9002 26.1351 18.8394 26.1226 18.7792L26.1426 18.7725L28.6096 18.7873L28.6096 19.408C28.6096 19.6135 28.6039 19.8188 28.6112 20.0242C28.5934 20.2299 28.6032 20.4368 28.6402 20.6401L32.3688 20.6401C32.3948 20.6216 32.4201 20.6121 32.4202 20.6025C32.4255 20.0307 32.4293 19.459 32.4314 18.8872C32.4293 18.8589 32.4232 18.8311 32.4132 18.8044C32.4118 18.7997 32.3984 18.7951 32.3885 18.7909C32.3782 18.7866 32.3653 18.783 32.3189 18.7675L29.9838 18.7675C29.9107 18.7031 29.9405 18.6474 29.9402 18.593C29.9377 18.0767 29.9395 17.5603 29.9376 17.044C29.9334 16.9883 29.9249 16.933 29.9123 16.8785L29.9327 16.8719C30.7094 16.8938 32.0467 16.8862 32.3968 16.8578C32.4583 16.2398 32.4483 15.617 32.3672 15.001L31.1356 15.001L31.1356 14.0705C31.1356 13.9152 31.1438 13.7597 31.1332 13.6044C31.1229 13.4515 31.1806 13.2972 31.0867 13.1342C30.2551 13.1399 29.4456 13.1243 28.6358 13.1437L28.6161 13.1373C28.6284 13.1054 28.6367 13.0723 28.6409 13.0385C28.6425 12.4892 28.6426 11.9399 28.6414 11.3907C28.6384 11.3551 28.6327 11.3198 28.6243 11.285C28.2514 11.2462 27.8661 11.2841 27.4493 11.2567L27.4493 9.3822C27.0126 9.35035 26.6136 9.37901 26.2164 9.36161C26.0979 9.321 26.1516 9.26853 26.1512 9.22149C26.1469 8.70553 26.1494 8.18955 26.1474 7.67359C26.1431 7.61794 26.1345 7.56268 26.1216 7.50825L26.1421 7.50129C26.5537 7.51744 26.9648 7.5118 27.4021 7.50375C27.4532 7.35426 27.4672 7.19542 27.443 7.03989C27.453 6.88468 27.4452 6.7293 27.4452 6.574L27.4452 5.64384L29.9206 5.64384C29.9418 5.43533 29.9476 5.2257 29.9379 5.01642C29.9418 4.8112 29.9387 4.60593 29.9387 4.40072L29.9387 3.78215L31.111 3.76689L31.1317 3.77384C31.1179 3.83362 31.1088 3.89435 31.1043 3.9554C31.1027 5.07394 31.1021 6.19248 31.1026 7.31101C31.1026 7.37185 31.096 7.43268 31.0924 7.49352C30.2745 7.51174 29.4512 7.48423 28.6401 7.50865C28.5781 8.12975 28.589 8.75564 28.6726 9.37443L31.0858 9.38124C31.0915 9.43628 31.1022 9.49127 31.1023 9.54631C31.1036 10.0654 31.1017 10.5844 31.1052 11.1035C31.1055 11.1569 31.0624 11.2134 31.1698 11.2735L32.3881 11.2837C32.392 11.339 32.3991 11.3945 32.3992 11.4498C32.4001 11.9598 32.3981 12.4697 32.4021 12.9796C32.4025 13.0327 32.3489 13.0905 32.4717 13.1372C33.2745 13.1589 34.5427 13.1513 34.8908 13.1227C34.9502 12.5063 34.9416 11.8856 34.8652 11.2709L32.4495 11.2639C32.4438 11.2089 32.4331 11.1539 32.433 11.0988C32.4317 10.5798 32.4336 10.0606 32.4301 9.54154C32.4298 9.48809 32.4731 9.43171 32.3654 9.3717L31.1469 9.36148C31.1431 9.11735 31.1354 8.87309 31.1365 8.62896C31.1383 8.25725 31.1461 7.88555 31.1514 7.51383C32.2207 7.51258 33.2901 7.51126 34.3594 7.50975C34.5393 7.50941 34.7191 7.5042 34.899 7.50116L34.9198 7.50797C34.9076 7.52834 34.8991 7.55047 34.8946 7.57354C34.8931 8.14036 34.893 8.70728 34.8942 9.27411C34.8981 9.30521 34.905 9.33577 34.9151 9.36557C35.2932 9.39356 35.6767 9.36432 36.0794 9.38574L36.0794 13.1245C36.5149 13.166 36.9266 13.1346 37.3171 13.1467C37.4731 13.0934 37.4163 13.0349 37.4167 12.9821C37.421 12.4764 37.4192 11.9708 37.4192 11.4651L37.4192 11.2816L39.8412 11.2816C39.9322 10.0274 39.9428 8.76894 39.8729 7.51343C39.6651 7.4966 39.4565 7.49206 39.2482 7.4998C39.0509 7.49739 38.8532 7.49925 38.6334 7.49925C38.5373 7.66124 38.5966 7.81592 38.586 7.9691C38.5752 8.12461 38.5837 8.28025 38.5837 8.43582L38.5837 9.35834L37.4753 9.35834C37.3928 8.12228 37.3826 6.88276 37.4449 5.64561L39.8426 5.64561C39.9315 5.02325 39.9399 4.39285 39.8676 3.76852L38.6376 3.76852L38.6376 1.8789L39.7957 1.8789C39.8429 1.8631 39.8554 1.85928 39.8661 1.85504C39.8764 1.85098 39.8927 1.84636 39.8928 1.84196C39.8939 1.23691 39.8944 0.632945 39.894 0.0298919C40.319 0.00098246 42.4531 -0.00723871 43.5077 0.0132626C43.6077 0.0443831 43.5633 0.0855447 43.5691 0.122717C43.573 0.167069 43.5736 0.211735 43.5707 0.256162C43.5707 9.48089 43.5709 18.7056 43.5713 27.9303C43.5713 28.0024 43.5815 28.0745 43.5869 28.1466L38.5998 28.1466C38.6071 28.1309 38.6122 28.1142 38.6147 28.0972C38.6157 27.5207 38.6157 26.9442 38.6149 26.3677C38.6149 26.3409 38.6284 26.3119 38.5327 26.2801C38.1507 26.2644 37.7681 26.269 37.3867 26.2938C37.3867 26.4513 37.3854 26.6007 37.387 26.7502C37.3917 27.2157 37.397 27.6812 37.4029 28.1466L36.1063 28.1466C36.1117 28.0858 36.1218 28.0249 36.1218 27.964C36.1227 26.211 36.1231 24.4581 36.1231 22.7051C36.1231 22.6442 36.1296 22.5832 36.1331 22.5222C36.5517 22.4989 36.9859 22.5412 37.3921 22.4975C37.4008 22.4831 37.407 22.4778 37.407 22.4723C37.4116 20.6314 37.4161 18.7904 37.4204 16.9496C37.4212 16.9381 37.4241 16.927 37.429 16.9166C37.4316 16.91 37.4366 16.9045 37.443 16.9012C37.459 16.8946 37.4755 16.8889 37.4923 16.8843L38.5664 16.8843C38.5721 16.9451 38.5828 17.006 38.5829 17.0668C38.5839 18.1985 38.5828 19.3302 38.5858 20.4619C38.586 20.5208 38.5427 20.5831 38.6438 20.6428C39.0613 20.6508 39.468 20.6551 39.9127 20.6403L39.9127 20.4479C39.9127 19.4105 39.9129 18.373 39.9132 17.3356C39.9134 17.1859 39.9199 17.0362 39.9235 16.8864C40.3077 16.8636 40.7081 16.9058 41.1096 16.8592C41.1096 16.7441 41.1087 16.634 41.1097 16.5239C41.1147 16.0216 41.1199 15.5193 41.1254 15.017C41.5337 15.0028 41.9478 15.0271 42.4062 15.0004L42.4062 14.0702C42.4062 13.9151 42.4139 13.7599 42.404 13.6049C42.4282 13.4479 42.4135 13.2876 42.3611 13.1371C41.9306 13.1364 41.5242 13.1286 41.1327 13.1409C41.0435 13.2134 41.0796 13.2748 41.0788 13.3346C41.0722 13.8885 41.0699 14.4426 41.0663 14.9966C40.6856 15.0063 40.3049 15.0051 39.9242 14.997C39.9203 14.9416 39.9133 14.8864 39.9132 14.8311C39.9123 14.3215 39.9145 13.8119 39.91 13.3024C39.9096 13.2494 39.9646 13.1916 39.8206 13.1361C39.4304 13.1378 39.0233 13.1273 38.5835 13.1436C38.5835 13.2727 38.5845 13.3881 38.5834 13.5036C38.5785 14.0019 38.5732 14.5003 38.5677 14.9986L36.0901 15.0061L36.0901 15.216C36.0901 17.5835 36.0898 19.951 36.0894 22.3186C36.0894 22.3796 36.0795 22.4406 36.0742 22.5016L34.9193 22.5143L34.8991 22.5075C34.9112 22.4872 34.9198 22.465 34.9243 22.4421C34.9257 21.8718 34.9258 21.3017 34.9245 20.7315C34.9245 20.7047 34.9381 20.6758 34.8715 20.6541C34.4517 20.6258 34.0302 20.6299 33.611 20.6667C33.6041 20.6935 33.5995 20.7208 33.5972 20.7483C33.5964 21.3074 33.5965 21.8664 33.5976 22.4256C33.602 22.4539 33.6105 22.4816 33.6229 22.5076L33.6037 22.5142C33.2119 22.5022 32.8205 22.4948 32.3996 22.5213L32.3996 25.023C32.3996 25.2283 32.4047 25.4335 32.3981 25.6387C32.4137 25.8494 32.4051 26.0612 32.3727 26.2701L31.1528 26.2701C31.147 26.2147 31.1364 26.1594 31.1362 26.1041C31.135 25.5875 31.1377 25.0709 31.1324 24.5543C31.1318 24.496 31.1936 24.4322 31.0318 24.3683L29.9386 24.3683L29.9386 23.4428C29.9386 23.2873 29.9465 23.1317 29.9364 22.9762C29.9609 22.8204 29.9466 22.6613 29.895 22.5117C29.4611 22.5047 29.0538 22.4966 28.6538 22.5151C28.5864 23.7696 28.592 25.0266 28.6706 26.2805L31.0917 26.2899C31.0954 26.5772 31.0992 26.8646 31.103 27.152C31.108 27.4836 31.1133 27.815 31.1192 28.1465L26.1323 28.1466ZM42.3738 11.2714C42.4458 10.6397 42.4333 10.0019 42.3366 9.3732C41.9338 9.36382 41.5274 9.36209 41.1105 9.37306C41.0959 9.39667 41.0853 9.42238 41.0791 9.44912C41.0838 10.0483 41.09 10.6475 41.0975 11.2466L41.1249 11.2596L41.1579 11.2716L42.3738 11.2714ZM42.3747 5.63566C42.4471 5.01506 42.434 4.38806 42.3358 3.7707C41.933 3.76163 41.5265 3.75951 41.1027 3.77125C41.0909 3.80113 41.0827 3.83216 41.0783 3.8638C41.0834 4.44629 41.0899 5.02877 41.0977 5.61126L41.1259 5.62407L41.1619 5.63566L42.3747 5.63566Z" fill="#F9F9F9" fill-opacity="0.5"/>
<path d="M13.6642 28.1465C13.6696 28.0744 13.6798 28.0023 13.6798 27.9302C13.6805 18.6948 13.6807 9.4592 13.6805 0.223742L13.6805 0.0274592C14.0995 0.00131893 21.3365 -0.00863545 22.3664 0.0139652C22.4684 0.0513387 22.4142 0.0978812 22.4234 0.140458C22.4282 0.179179 22.4287 0.218301 22.4251 0.257137C22.4251 9.48149 22.4254 18.7059 22.4258 27.9302C22.4258 28.0023 22.436 28.0744 22.4414 28.1465L13.6642 28.1465Z" fill="#F9F9F9" fill-opacity="0.5"/>
<path d="M57.3408 20.6397C57.3533 20.5908 57.3616 20.541 57.3657 20.4907C57.367 18.719 57.3674 16.9472 57.3668 15.1755L57.3668 15.021C56.9435 14.9777 56.5244 15.0206 56.0971 14.9916L56.0971 13.1487C56.4994 13.1475 56.9088 13.1453 57.3183 13.1453C57.7168 13.1453 58.1153 13.1475 58.5138 13.1487C58.5196 13.2037 58.5302 13.2587 58.5304 13.3138C58.5317 13.8217 58.5297 14.3297 58.5332 14.8377C58.5336 14.8911 58.4904 14.9475 58.5979 15.0075L59.8161 15.0179L59.8358 16.8796L62.3213 16.8796L62.3213 17.8272C62.3213 17.9882 62.3134 18.1493 62.3235 18.3102C62.2989 18.4657 62.313 18.6245 62.3647 18.7738C62.7658 18.784 63.1392 18.7847 63.525 18.774L63.525 15.0045L59.8777 14.9981C59.8719 14.9431 59.8613 14.8881 59.8611 14.833C59.8598 14.325 59.8617 13.817 59.8582 13.309C59.8579 13.2555 59.9012 13.1991 59.7933 13.1392L58.5749 13.1289C58.5712 13.0846 58.5642 13.0402 58.5642 12.9958C58.5636 11.2232 58.5635 9.45051 58.5637 7.67788L58.5637 7.51935L59.7944 7.51935C59.8378 7.66761 59.8483 7.82292 59.8255 7.9753C59.8358 8.13081 59.8278 8.28643 59.8278 8.44202L59.8278 9.35268C60.229 9.38179 61.6856 9.38751 62.3148 9.364C62.3625 9.21565 62.3751 9.05902 62.3517 8.90546C62.3614 8.74994 62.3538 8.59432 62.3538 8.43875L62.3538 7.51322L63.4351 7.51322C63.4824 7.49743 63.4951 7.49377 63.5056 7.4895C63.5157 7.48539 63.5301 7.48082 63.5313 7.47614C63.5415 7.44379 63.5477 7.4105 63.5499 7.37678C63.5474 6.81007 63.5434 6.24331 63.538 5.67662C63.538 5.66706 63.5116 5.65761 63.4801 5.63627L59.9321 5.63627C59.8218 5.02576 59.8034 4.40329 59.8774 3.78781C60.2382 3.75491 60.6231 3.79047 61.0188 3.76491C61.0649 3.61497 61.0773 3.4574 61.0552 3.30256C61.0642 3.14147 61.0572 2.98022 61.0572 2.81908L61.0572 1.87719L62.2878 1.87719C62.4156 1.74878 62.3365 1.62653 62.3506 1.50698C62.3589 1.3849 62.36 1.26251 62.3538 1.14032L62.3538 0.00951318C62.7721 0.00839657 63.1657 0.0068918 63.5592 0.00637817C63.9571 0.00585337 64.3549 0.0062419 64.7367 0.00624192C64.858 0.050907 64.8038 0.0973822 64.813 0.139959C64.8178 0.178683 64.8184 0.217798 64.8148 0.256638C64.8148 9.48095 64.815 18.7053 64.8155 27.9296C64.8155 28.0017 64.8256 28.0738 64.8311 28.1459L62.3375 28.1459C62.3386 27.5356 62.339 26.9254 62.3388 26.3152C62.3388 26.3059 62.309 26.2967 62.2629 26.2699L61.0679 26.2699L61.0679 24.3889C61.4865 24.3656 61.9211 24.4081 62.367 24.3596L62.367 22.5232C62.7695 22.5031 63.1525 22.5315 63.5125 22.504C63.5814 21.8817 63.5702 21.2538 63.4789 20.6341L61.0572 20.6341L61.0572 19.5017C61.0635 19.3796 61.0624 19.2573 61.0538 19.1353C61.0392 19.016 61.1217 18.8938 60.9921 18.7699C60.7944 18.7699 60.6121 18.7674 60.4306 18.7706C60.2397 18.7608 60.0482 18.7669 59.8583 18.7887C59.7907 20.0278 59.8027 21.2698 59.8942 22.5075C60.257 22.5321 60.6417 22.4977 61.0246 22.528C61.0246 22.6425 61.0254 22.7477 61.0244 22.853C61.0195 23.3582 61.0143 23.8632 61.0088 24.3684C60.4125 24.3697 59.8162 24.3709 59.2199 24.3721C58.6118 24.3727 58.0039 24.3722 57.3667 24.3722L57.3667 24.1907C57.3667 23.6866 57.3675 23.1825 57.3656 22.6783C57.3615 22.6228 57.3534 22.5676 57.3412 22.5131L57.3607 22.5067C57.7511 22.5196 58.1406 22.5247 58.5414 22.5025C58.5517 22.4735 58.5588 22.4436 58.5625 22.4132C58.5583 21.8334 58.5529 21.2536 58.5463 20.6738C58.5463 20.6691 58.5348 20.664 58.5257 20.6598C58.5161 20.6553 58.5028 20.6518 58.4633 20.6386C58.1143 20.6415 57.7376 20.6275 57.3604 20.6461L57.3408 20.6397ZM63.516 13.1385C63.5877 12.5157 63.5748 11.8866 63.4776 11.267C62.6811 11.2671 61.8762 11.2655 61.0611 11.2682C61.0443 11.3061 61.0266 11.3271 61.0268 11.3482C61.0312 11.9364 61.0373 12.5245 61.0447 13.1127C61.0447 13.1171 61.0613 13.1217 61.0716 13.1258L61.109 13.1385L63.516 13.1385Z" fill="#F9F9F9" fill-opacity="0.5"/>
<path d="M167.055 7.50117C167.067 7.45786 167.076 7.41355 167.08 7.36881C167.081 6.22418 167.081 5.07959 167.081 3.93496L167.081 3.77794C166.649 3.74698 166.233 3.77727 165.808 3.75667L165.808 1.87413L167.064 1.87413L167.064 0.0143587C167.454 -0.000592926 167.814 0.00822531 168.202 0.00890647C168.29 0.162543 168.232 0.316814 168.243 0.469625C168.253 0.625115 168.245 0.780727 168.245 0.936341L168.245 1.85832C168.683 1.88672 169.092 1.87198 169.551 1.86895C169.579 1.66556 169.586 1.46006 169.573 1.2553C169.578 1.04973 169.574 0.844092 169.574 0.638509L169.574 0.015313L170.686 0.015313C170.78 0.0531444 170.735 0.099591 170.736 0.142079C170.741 0.381037 170.739 0.619857 170.739 0.858782C170.739 9.88799 170.739 18.9172 170.739 27.9464C170.739 28.013 170.749 28.0796 170.755 28.1461L165.768 28.1461C165.773 27.5447 165.777 26.9433 165.782 26.342C165.782 26.3199 165.77 26.2982 165.673 26.2745C165.334 26.2775 164.958 26.2634 164.581 26.2821L164.561 26.2753C164.574 26.2321 164.582 26.1878 164.586 26.1431C164.587 24.3549 164.587 22.5667 164.586 20.7786C164.582 20.7339 164.573 20.6896 164.561 20.6464L164.581 20.6395C164.972 20.6524 165.361 20.6576 165.762 20.6355C165.772 20.6064 165.779 20.5765 165.783 20.546C165.779 19.9662 165.773 19.3864 165.767 18.8066C165.767 18.8019 165.755 18.7967 165.746 18.7924C165.737 18.788 165.723 18.7845 165.697 18.7755C165.335 18.7687 164.958 18.7623 164.581 18.7789L164.561 18.7721C164.573 18.7177 164.582 18.6625 164.586 18.6069C164.588 18.0804 164.586 17.5539 164.59 17.0274C164.59 16.9799 164.537 16.9277 164.665 16.8802C164.838 16.8802 165.02 16.8817 165.201 16.8798C165.396 16.8855 165.59 16.8802 165.784 16.8638L165.784 15.9359C165.784 15.7806 165.792 15.6255 165.782 15.4704C165.771 15.3176 165.83 15.1634 165.734 15.0015C164.903 15.0067 164.094 14.9913 163.284 15.0107L163.264 15.0038C163.276 14.9835 163.285 14.9614 163.289 14.9384C163.291 14.3618 163.291 13.7852 163.289 13.2086C163.285 13.1856 163.276 13.1635 163.264 13.1432L163.283 13.1365L165.755 13.1365C165.79 12.9868 165.8 12.8326 165.783 12.68C165.79 12.5252 165.784 12.3703 165.784 12.2155L165.784 11.2842L167.055 11.2691L167.075 11.2758C167.063 11.2961 167.054 11.3182 167.05 11.3412C167.048 11.9114 167.048 12.4816 167.049 13.0517C167.049 13.0785 167.036 13.1075 167.132 13.139C167.509 13.1544 167.886 13.1504 168.261 13.1268C168.269 13.0967 168.274 13.066 168.277 13.0351C168.278 12.476 168.278 11.9168 168.276 11.3577C168.272 11.3294 168.264 11.3018 168.251 11.2758L168.272 11.269C168.695 11.2817 169.118 11.2863 169.574 11.2638L169.574 10.6286C169.574 10.4187 169.579 10.2088 169.573 9.99886C169.587 9.78798 169.579 9.57629 169.55 9.3668C169.092 9.37079 168.682 9.35534 168.271 9.37498L168.251 9.36817C168.287 9.23879 168.295 9.10399 168.276 8.97151C168.286 8.48551 168.288 7.99945 168.293 7.51343C168.702 7.49892 169.117 7.52371 169.519 7.49994C169.604 6.25774 169.598 5.01131 169.501 3.76989C169.098 3.76133 168.691 3.75899 168.3 3.76962C168.213 3.84303 168.247 3.9045 168.247 3.9644C168.244 4.94646 168.246 5.92851 168.245 6.91055C168.244 7.10469 168.238 7.29885 168.235 7.49299L167.074 7.50757L167.055 7.50117ZM165.787 22.5114C165.718 23.1321 165.728 23.7585 165.819 24.3767C166.221 24.3867 166.628 24.3873 167.046 24.3774C167.061 24.3443 167.079 24.3232 167.079 24.3021C167.074 23.7141 167.068 23.1259 167.061 22.5379C167.061 22.5334 167.045 22.5288 167.035 22.5247C167.025 22.5204 167.012 22.5168 166.996 22.5114L165.787 22.5114ZM168.241 20.6421C168.31 20.0215 168.3 19.3951 168.211 18.7768C167.842 18.7658 167.469 18.7671 167.114 18.7751C167.084 18.7983 167.059 18.808 167.059 18.8178C167.054 19.3948 167.051 19.9719 167.049 20.5489C167.051 20.5717 167.058 20.594 167.067 20.6149C167.069 20.6196 167.083 20.6242 167.093 20.6284C167.103 20.6327 167.116 20.6363 167.133 20.6421L168.241 20.6421ZM168.247 16.8731C168.319 16.2526 168.306 15.6255 168.207 15.0083C167.837 14.998 167.464 14.9981 167.074 15.0087C167.062 15.0386 167.054 15.0697 167.049 15.1014C167.055 15.6839 167.061 16.2664 167.069 16.8488L167.097 16.8617L167.133 16.8731L168.247 16.8731Z" fill="#F9F9F9" fill-opacity="0.5"/>
<path d="M145.831 3.77368C145.818 3.79406 145.81 3.81632 145.805 3.83938C145.804 4.40615 145.804 4.97291 145.805 5.53968C145.808 5.56671 145.814 5.59336 145.823 5.61915C146.187 5.64855 147.554 5.65581 148.256 5.63332C148.268 5.6294 148.281 5.62587 148.291 5.62146C148.299 5.61846 148.307 5.61356 148.313 5.60729C148.32 5.59739 148.325 5.58621 148.328 5.57444C148.33 5.55786 148.33 5.54124 148.33 5.52455C148.331 3.70201 148.332 1.8794 148.333 0.0568589C148.334 0.0506614 148.337 0.0449432 148.341 0.040502C148.351 0.0320065 148.361 0.0239714 148.371 0.0166483L149.542 0.0166483C149.636 0.0536757 149.582 0.100111 149.592 0.142732C149.597 0.181435 149.598 0.22058 149.594 0.259411C149.594 9.48884 149.594 18.7182 149.595 27.9476C149.595 28.0142 149.605 28.0808 149.61 28.1473L147.117 28.1473C147.122 28.0864 147.132 28.0255 147.132 27.9647C147.133 26.2117 147.134 24.4586 147.134 22.7057C147.134 22.6447 147.14 22.5837 147.144 22.5227C147.529 22.4989 147.932 22.5439 148.33 22.4944C148.33 20.6557 148.33 18.8209 148.329 16.9902C148.327 16.962 148.322 16.9343 148.313 16.9074C148.312 16.9025 148.302 16.8974 148.293 16.8931C148.283 16.8886 148.27 16.8851 148.223 16.8694L147.142 16.8694C147.115 16.2446 147.154 15.6311 147.119 15.0005L145.863 15.0005L145.863 13.1464C146.285 13.1464 146.682 13.1496 147.078 13.1456C147.486 13.1415 147.899 13.1634 148.298 13.1308C148.375 12.8552 148.345 7.63575 148.259 7.50018C147.462 7.50001 146.657 7.4992 145.801 7.50087L145.801 11.2594C145.383 11.2831 144.998 11.2477 144.601 11.2878L144.601 13.1289L143.337 13.1444L143.317 13.138C143.329 13.106 143.338 13.0728 143.342 13.039C143.343 12.4944 143.343 11.9498 143.342 11.4051C143.342 11.3669 143.362 11.3275 143.289 11.2778C142.943 11.2521 142.559 11.2815 142.156 11.2599L142.156 9.38777C141.721 9.34891 141.307 9.37249 140.9 9.36827C140.484 9.36398 140.068 9.36732 139.653 9.36732L138.417 9.36732C138.329 8.12866 138.318 6.88612 138.382 5.64613L139.583 5.64613C139.671 5.02366 139.679 4.39326 139.607 3.76891L138.377 3.76891L138.377 0.0155574L139.62 0.0155574L139.62 1.86661L140.833 1.86661C140.853 1.6608 140.858 1.45397 140.849 1.2475C140.852 1.04744 140.85 0.847282 140.85 0.647205L140.85 0.0320506C141.21 0.00163369 143.99 -0.00439375 144.604 0.0242813L144.604 3.75896C145.005 3.78176 145.408 3.78442 145.81 3.76687L145.831 3.77368ZM142.098 5.62869C141.69 5.6429 141.275 5.61871 140.817 5.64545L140.817 6.57548C140.817 6.73061 140.809 6.88577 140.819 7.04083C140.795 7.19779 140.81 7.35792 140.862 7.5085C141.293 7.50912 141.699 7.51709 142.091 7.50482C142.18 7.43224 142.144 7.37085 142.144 7.31113C142.151 6.75714 142.153 6.20311 142.157 5.64913C142.542 5.62594 142.945 5.67005 143.32 5.62351C143.394 5.00688 143.377 4.3834 143.27 3.77123C142.9 3.76166 142.527 3.76081 142.114 3.77273C142.114 3.88978 142.115 3.99415 142.113 4.0985C142.108 4.60856 142.103 5.11863 142.098 5.62869ZM144.605 9.37168C144.675 8.74981 144.663 8.12198 144.57 7.50291C144.17 7.5005 143.763 7.49443 143.345 7.50591C143.33 7.5389 143.312 7.56003 143.313 7.58115C143.317 8.1692 143.323 8.75733 143.33 9.34537C143.33 9.34984 143.346 9.3545 143.356 9.3586C143.367 9.36284 143.379 9.3665 143.395 9.37168L144.605 9.37168Z" fill="#F9F9F9" fill-opacity="0.5"/>
<path d="M95.9775 24.3693C95.9738 23.8119 95.9707 23.2545 95.9651 22.6971C95.9606 22.6363 95.952 22.5758 95.9393 22.5161L95.9598 22.5091C96.1249 22.5121 96.29 22.5175 96.4551 22.5176C97.768 22.5183 99.0808 22.5183 100.394 22.5176C100.557 22.524 100.721 22.5205 100.883 22.5072C100.984 22.4749 100.952 22.4339 100.952 22.3965C100.953 20.5852 100.953 18.774 100.952 16.9627C100.948 16.9342 100.939 16.9064 100.926 16.8803L100.947 16.8735C101.359 16.893 101.77 16.8783 102.152 16.8805C102.193 16.8666 102.207 16.8632 102.216 16.8586C102.223 16.8557 102.23 16.8506 102.234 16.8439C102.242 16.8284 102.247 16.8115 102.249 16.7943C102.253 15.5898 102.257 14.3855 102.261 13.1811C102.261 13.1761 102.272 13.1711 102.298 13.1485L103.383 13.1485C103.464 11.8943 103.473 10.6369 103.409 9.38179C103.026 9.35747 102.634 9.36539 102.242 9.37675L102.221 9.3698C102.235 9.31542 102.244 9.26006 102.249 9.20432C102.251 8.69877 102.25 8.19319 102.25 7.68763L102.25 7.51343L104.66 7.51343C104.778 6.89942 104.798 6.27191 104.718 5.65229C104.326 5.60621 103.905 5.65411 103.505 5.62517C103.412 4.37893 103.399 3.12842 103.467 1.88067L104.724 1.88067C104.747 1.67213 104.753 1.46227 104.743 1.25284C104.747 1.04729 104.743 0.841749 104.743 0.636189L104.743 0.0159911L107.204 0.0159912L107.204 15.4486C107.204 19.6152 107.205 23.782 107.205 27.9487C107.205 28.0153 107.215 28.0818 107.221 28.1483L105.924 28.1483C105.931 28.1325 105.936 28.1159 105.939 28.0988C105.94 26.8919 105.94 25.685 105.939 24.4781C105.939 24.446 105.96 24.4109 105.837 24.3763C105.492 24.3785 105.115 24.3649 104.737 24.3835L104.717 24.3767C104.73 24.3221 104.738 24.2668 104.742 24.2111C104.744 23.7056 104.742 23.2001 104.745 22.6946C104.745 22.6404 104.714 22.5846 104.798 22.5143L105.894 22.5143C105.965 21.8903 105.958 21.2604 105.874 20.6379L104.771 20.6379C104.759 20.6171 104.75 20.5948 104.745 20.5718C104.747 19.9775 104.75 19.3832 104.754 18.7889L105.924 18.7769C105.93 18.7022 105.94 18.6369 105.94 18.5716C105.94 16.5708 105.941 14.57 105.94 12.5692C105.94 12.1857 105.942 11.8022 105.938 11.4188C105.937 11.3711 105.988 11.3181 105.851 11.2732C105.486 11.2731 105.109 11.2545 104.705 11.2879L104.705 14.9964C104.269 15.0176 103.852 14.9872 103.458 15.0155C103.388 15.6374 103.396 16.2651 103.483 16.8851L104.711 16.8851C104.711 17.0302 104.712 17.1576 104.711 17.285C104.706 17.7795 104.701 18.2741 104.695 18.7686L102.254 18.7759C102.238 18.8104 102.219 18.8313 102.22 18.8524C102.224 19.4413 102.23 20.0302 102.238 20.6191L102.266 20.632C102.277 20.6361 102.29 20.6396 102.34 20.6555L103.392 20.6555L103.392 22.5121L102.239 22.5121C102.229 22.55 102.222 22.5885 102.218 22.6273C102.217 23.183 102.217 23.7387 102.219 24.2945C102.223 24.3229 102.232 24.3505 102.244 24.3767L102.225 24.3833C102.176 24.3806 102.127 24.3753 102.078 24.3753C100.948 24.3748 99.8178 24.3747 98.6876 24.375C98.5991 24.3691 98.5102 24.3817 98.4273 24.4121L98.4273 24.8629L98.4273 25.3296C98.4273 25.4907 98.4354 25.652 98.425 25.8131C98.4151 25.9657 98.4717 26.1196 98.3824 26.2761C97.9943 26.2714 97.634 26.2825 97.2444 26.2682L97.2444 24.3805L95.9775 24.3693Z" fill="#F9F9F9" fill-opacity="0.5"/>
<path d="M72.3393 22.5C72.3356 21.9449 72.3328 21.3897 72.3266 20.8346C72.326 20.7749 72.3531 20.7137 72.2805 20.6381C70.6569 20.6373 69.0347 20.6381 67.4293 20.6377C67.4007 20.629 67.387 20.6257 67.3769 20.6215C67.3671 20.6174 67.3543 20.6125 67.3543 20.6078C67.3493 20.025 67.3452 19.4421 67.3422 18.8593C67.3467 18.8335 67.3547 18.8084 67.366 18.7846L69.7204 18.7846C69.7667 18.7691 69.7795 18.7654 69.7899 18.7611C69.7999 18.757 69.8151 18.7523 69.8151 18.7478C69.8163 18.1321 69.8163 17.5165 69.8163 16.8832L70.961 16.8832C71.0496 16.2674 71.0616 15.6438 70.9967 15.0252C70.6468 14.9965 69.339 14.9886 68.5304 15.0105L68.5114 15.004C68.5236 14.9837 68.532 14.9616 68.5365 14.9385C68.5379 14.3619 68.5379 13.7854 68.5365 13.2088C68.5321 13.1858 68.5236 13.1637 68.5115 13.1434L68.5307 13.1368C69.4416 13.1559 70.3535 13.1409 71.2648 13.1452C71.5935 13.1467 71.9222 13.1454 72.2907 13.1454L72.2907 18.7551C72.6864 18.7868 74.0053 18.7943 74.7959 18.7725L74.8156 18.7791C74.8029 18.8167 74.7944 18.8555 74.7902 18.8947C74.7889 21.3106 74.7891 23.7265 74.7907 26.1424C74.7907 26.1852 74.7539 26.2312 74.8585 26.2751L76.0194 26.2751L76.0194 22.5266C76.4703 22.4988 76.8883 22.5376 77.315 22.4981L77.315 22.3602C77.315 21.2106 77.3147 20.0608 77.314 18.9112C77.3098 18.8665 77.3013 18.8222 77.2886 18.779L77.309 18.7723C77.7013 18.7866 78.0935 18.7866 78.4858 18.7723L78.506 18.7791C78.4934 18.811 78.4848 18.844 78.4805 18.8778C78.4792 20.048 78.4792 21.2181 78.4805 22.3883C78.4805 22.4259 78.4548 22.4659 78.5325 22.4995C78.9609 22.5286 79.391 22.5236 79.8185 22.4848L79.8185 20.6555L80.9792 20.6397L80.9991 20.6465C80.9867 20.6784 80.9782 20.7116 80.974 20.7454C80.9727 21.9168 80.9729 23.0883 80.9744 24.2598C80.9745 24.2971 80.9418 24.3379 81.0527 24.3764C81.4371 24.3973 81.8524 24.3685 82.2486 24.3932C82.3098 25.0163 82.298 25.644 82.2136 26.2646C81.8138 26.2936 81.3942 26.2479 80.9729 26.2939C80.9729 26.443 80.9717 26.5869 80.9731 26.7309C80.978 27.2027 80.9833 27.6745 80.9891 28.1463L79.7923 28.1463C79.8 28.1248 79.8052 28.1026 79.8078 28.08C79.8085 26.8811 79.8083 25.6822 79.8071 24.4833C79.8071 24.4512 79.8328 24.4162 79.7557 24.3888C79.1696 24.3584 77.6258 24.366 77.2825 24.403L77.2825 24.5332C77.2825 25.6988 77.2828 26.8645 77.2833 28.0301C77.2858 28.0691 77.291 28.1078 77.2988 28.1461L73.5087 28.1461C73.516 28.1304 73.5211 28.1137 73.5236 28.0967C73.5246 27.5199 73.5246 26.9433 73.5238 26.3665C73.5238 26.3397 73.5374 26.3105 73.4206 26.2733L72.2358 26.2733C71.8377 26.2733 71.4393 26.2698 71.0417 26.2742C70.6354 26.2787 70.2227 26.2545 69.8021 26.2929C69.8021 26.4446 69.8009 26.5885 69.8023 26.7325C69.8072 27.2037 69.8125 27.6749 69.8183 28.1461L66.0282 28.1461C66.0337 27.6748 66.0391 27.2034 66.0443 26.7321C66.0458 26.5886 66.0445 26.4452 66.0445 26.2845L67.3222 26.2845L67.3222 24.401C67.7382 24.3679 68.1325 24.3872 68.5216 24.3841C68.9361 24.3807 69.3511 24.3834 69.7659 24.3834L70.9865 24.3834C71.0386 24.2329 71.0533 24.073 71.0293 23.9161C71.0391 23.7609 71.0315 23.6055 71.0315 23.4502L71.0315 22.5206C71.46 22.5124 71.869 22.5149 72.2783 22.5195C72.2841 22.5748 72.2947 22.63 72.2949 22.6853C72.2962 23.1955 72.294 23.7057 72.298 24.2159C72.2984 24.269 72.2458 24.3267 72.3761 24.3783C72.746 24.3819 73.1207 24.3945 73.4867 24.3707C73.55 23.7517 73.5424 23.1281 73.4639 22.5107L72.3393 22.5Z" fill="#F9F9F9" fill-opacity="0.5"/>
<path d="M77.2894 16.8727C77.3017 16.8408 77.3101 16.8076 77.3143 16.7738C77.3159 16.2251 77.316 15.6764 77.3147 15.1277C77.312 15.0921 77.3066 15.0569 77.2988 15.022C76.8963 14.9765 76.4771 15.0229 76.0774 14.9946C75.9986 14.3827 75.995 13.7642 76.0667 13.1515L78.4866 13.1374L78.5063 13.1443C78.4941 13.1646 78.4856 13.1867 78.4811 13.2097C78.4797 13.7758 78.4796 14.342 78.481 14.9081C78.481 14.9402 78.4587 14.9754 78.5657 15.0073C78.9467 15.0298 79.3639 14.9936 79.7935 15.0302L79.7935 16.8611C80.3414 16.8931 81.9367 16.8879 82.3023 16.8525L82.3023 16.7396C82.3023 15.5796 82.302 14.4196 82.3013 13.2596C82.297 13.2203 82.2885 13.1817 82.2759 13.1441L82.2963 13.1373C83.0871 13.1596 84.4088 13.152 84.7702 13.1223L84.7702 9.386C84.3333 9.3555 83.8945 9.35918 83.4582 9.39704L83.4582 11.2608L82.2961 11.2767L82.2764 11.2702C82.2889 11.2101 82.2973 11.1492 82.3013 11.0881C82.3028 9.96163 82.3032 8.83519 82.3024 7.70874L82.3024 7.51055L83.4254 7.51055C83.5322 7.44734 83.4976 7.39645 83.4976 7.34794C83.4996 5.56672 83.4998 3.78551 83.4983 2.00429C83.4943 1.95963 83.4862 1.9154 83.4741 1.87208L83.495 1.86526C83.9068 1.88271 84.3181 1.87629 84.7598 1.86799C84.8024 1.71636 84.8141 1.55833 84.7941 1.4025C84.8022 1.24699 84.7959 1.09134 84.7959 0.935783L84.7959 0.0148925L85.9603 0.0148926L85.9603 6.21318C85.9603 13.4579 85.9605 20.7026 85.9609 27.9473C85.9609 28.0139 85.9711 28.0804 85.9766 28.1469L84.7796 28.1469C84.7873 28.1254 84.7926 28.1032 84.7951 28.0807C84.7959 26.259 84.7956 24.4373 84.7945 22.6157C84.7945 22.5836 84.8208 22.5485 84.689 22.5036L83.51 22.5036L83.51 20.6551C83.9287 20.6318 84.3631 20.6743 84.7959 20.6272C84.7959 19.4166 84.796 18.2122 84.7953 17.0077C84.7933 16.9742 84.7881 16.9409 84.7798 16.9082C84.7788 16.9032 84.7702 16.898 84.7614 16.8937C84.7522 16.8892 84.7384 16.8857 84.6981 16.8723C84.3195 16.8719 83.9123 16.8637 83.5205 16.8763C83.4346 16.9497 83.4686 17.0112 83.4685 17.0711C83.4661 18.198 83.4654 19.3249 83.4662 20.4518C83.4662 20.5128 83.4563 20.5737 83.4511 20.6346C83.2385 20.6359 83.0259 20.6371 82.8133 20.6384C82.2088 20.6431 81.6034 20.6282 80.9995 20.6473L80.9797 20.6403C80.9917 20.6199 81.0002 20.5979 81.0046 20.5749C81.006 20.0085 81.006 19.442 81.0047 18.8756C81.0047 18.8434 81.0262 18.8082 80.9283 18.7797L78.5062 18.7797L78.486 18.7729C78.4981 18.7525 78.5065 18.7304 78.5109 18.7074C78.5123 18.1299 78.5124 17.5525 78.5111 16.975C78.511 16.9429 78.5327 16.9077 78.4238 16.8758C78.0661 16.8682 77.6878 16.8627 77.3091 16.8789L77.2894 16.8727Z" fill="#F9F9F9" fill-opacity="0.5"/>
<path d="M124.685 11.2714C125.064 11.2868 125.443 11.2826 125.848 11.2732C125.897 11.1229 125.91 10.9642 125.887 10.8084C125.896 10.6473 125.889 10.4861 125.889 10.3249L125.889 9.38274L127.096 9.38274C127.227 8.76998 127.249 8.14075 127.163 7.52092C126.772 7.47334 126.352 7.51997 125.94 7.49366C125.924 7.48026 125.893 7.46541 125.893 7.45059C125.893 6.85048 125.897 6.25035 125.9 5.65025C126.318 5.62695 126.752 5.66927 127.162 5.62516C127.236 5.0083 127.22 4.38461 127.112 3.77221C126.709 3.76364 126.303 3.76125 125.856 3.7733C125.856 3.89083 125.857 3.99528 125.856 4.09962C125.851 4.60969 125.846 5.11973 125.841 5.6298L124.753 5.6298C124.659 4.38439 124.645 3.13465 124.711 1.88762C125.113 1.86353 125.526 1.87994 125.934 1.87686C126.33 1.87386 126.726 1.87617 127.168 1.87617C127.189 1.66905 127.194 1.46072 127.185 1.25284C127.189 1.04729 127.186 0.841748 127.186 0.636189L127.186 0.0159912L128.35 0.0159912L128.35 7.66541C128.35 14.4265 128.35 21.1876 128.351 27.9487C128.351 28.0153 128.361 28.0817 128.366 28.1483L127.169 28.1483C127.177 28.1325 127.182 28.1159 127.184 28.0988C127.185 27.5223 127.185 26.9459 127.184 26.3695C127.184 26.3427 127.198 26.3135 127.088 26.2769C126.712 26.2853 126.292 26.2553 125.856 26.295C125.856 26.453 125.855 26.6025 125.857 26.7519C125.861 27.2174 125.867 27.6828 125.873 28.1483L124.676 28.1483C124.683 28.1325 124.688 28.1159 124.691 28.0988C124.692 27.5223 124.692 26.9459 124.691 26.3695C124.691 26.3427 124.704 26.3135 124.594 26.2769C124.218 26.2853 123.798 26.2553 123.363 26.295C123.363 26.453 123.362 26.6025 123.363 26.7519C123.368 27.2174 123.373 27.6828 123.379 28.1483L119.689 28.1483C119.694 28.0876 119.704 28.027 119.704 27.9663C119.709 27.4082 119.713 26.8501 119.716 26.292C120.534 26.2743 121.358 26.3006 122.199 26.2765L122.199 26.078C122.199 24.9535 122.199 23.8289 122.199 22.7043C122.199 22.6435 122.209 22.5827 122.215 22.5219C122.613 22.5206 123.012 22.5184 123.41 22.5184C123.82 22.5184 124.23 22.5204 124.66 22.5217L124.66 22.7038C124.66 23.2093 124.658 23.7149 124.662 24.2205C124.662 24.2735 124.608 24.3318 124.735 24.378C125.682 24.4004 126.819 24.3919 127.158 24.36C127.23 23.7459 127.215 23.1252 127.113 22.5148C126.717 22.4896 126.299 22.5288 125.889 22.491L125.889 21.8664C125.889 21.6664 125.892 21.4664 125.888 21.2664C125.897 21.0614 125.892 20.8561 125.873 20.6517C125.466 20.6223 125.08 20.6587 124.692 20.6262L124.692 20.4381C124.692 19.4769 124.692 18.5158 124.693 17.5546C124.693 17.3324 124.699 17.1102 124.703 16.8881C125.08 16.8786 125.455 16.8805 125.856 16.8866L125.856 17.832C125.856 17.993 125.848 18.154 125.859 18.3149C125.869 18.4679 125.81 18.6224 125.907 18.7832C126.129 18.7832 126.327 18.7852 126.524 18.7826C126.736 18.7911 126.949 18.7855 127.16 18.7661L127.16 13.1403L124.709 13.1331C124.704 13.078 124.693 13.023 124.693 12.9679C124.692 12.4595 124.693 11.9511 124.691 11.4428C124.687 11.3873 124.678 11.3323 124.666 11.2781L124.685 11.2714Z" fill="#F9F9F9" fill-opacity="0.5"/>
<path d="M109.724 20.6402C110.102 20.6567 110.48 20.651 110.883 20.6427C110.971 20.4866 110.915 20.3324 110.925 20.1795C110.935 20.0244 110.927 19.8691 110.927 19.7139L110.927 18.7843L113.306 18.7843C113.431 18.7461 113.419 18.7171 113.419 18.6902C113.421 18.1083 113.42 17.5263 113.419 16.9444C113.415 16.9214 113.406 16.8992 113.394 16.879L113.414 16.872C113.826 16.8915 114.237 16.8768 114.619 16.8791C114.66 16.8653 114.674 16.8618 114.683 16.8573C114.69 16.8537 114.696 16.8488 114.702 16.8427C114.706 16.8382 114.71 16.8325 114.711 16.8264C114.715 16.8099 114.716 16.7932 114.717 16.7765C114.72 15.578 114.724 14.3796 114.727 13.1812C114.727 13.1761 114.737 13.171 114.758 13.1484L115.908 13.1484C115.923 12.5184 115.906 11.9053 115.918 11.2852L117.185 11.2699L117.204 11.2766C117.192 11.297 117.184 11.3192 117.18 11.3422C117.178 11.9086 117.178 12.4751 117.179 13.0415C117.179 13.0737 117.158 13.1088 117.256 13.1372L119.678 13.1372L119.698 13.144C119.686 13.1985 119.677 13.2538 119.673 13.3095C119.671 13.8145 119.673 14.3196 119.67 14.8247C119.67 14.8791 119.699 14.9347 119.621 15.0052L118.43 15.0052C118.344 15.0809 118.377 15.1423 118.377 15.2021C118.374 16.24 118.376 17.2779 118.375 18.3158C118.375 18.4656 118.368 18.6153 118.364 18.765C117.95 18.767 117.535 18.7662 117.122 18.7716C116.715 18.7769 116.302 18.752 115.872 18.7914L115.872 20.6417L114.685 20.6417L114.685 21.2717C114.685 21.477 114.691 21.6823 114.683 21.8876C114.7 22.0927 114.692 22.299 114.657 22.5022L113.438 22.5022C113.432 22.4469 113.422 22.3916 113.421 22.3363C113.42 21.8261 113.422 21.316 113.418 20.8058C113.418 20.7527 113.47 20.6949 113.34 20.6432C112.97 20.6397 112.596 20.6272 112.229 20.651C112.166 21.27 112.174 21.8937 112.252 22.511L113.377 22.5219C113.381 22.583 113.388 22.644 113.388 22.705C113.388 23.8328 113.389 24.9605 113.389 26.0883C113.39 26.148 113.363 26.2092 113.418 26.2658C113.854 26.2964 114.292 26.2927 114.728 26.2546L114.728 24.3913C115.131 24.3723 115.514 24.3992 115.914 24.3701L115.914 23.4475C115.914 23.2919 115.905 23.1362 115.917 22.9808C115.928 22.8278 115.866 22.6733 115.957 22.5166C116.381 22.5166 116.78 22.5162 117.178 22.5168C117.571 22.5174 117.964 22.519 118.375 22.5203C118.375 22.6538 118.376 22.7702 118.375 22.8866C118.37 23.3809 118.365 23.8752 118.359 24.3695L117.177 24.3786L117.177 26.2623C116.724 26.2928 116.305 26.2503 115.882 26.2933C115.882 26.443 115.88 26.587 115.882 26.731C115.887 27.2029 115.892 27.6749 115.898 28.1469L112.207 28.1469C112.213 27.6749 112.218 27.2028 112.223 26.7307C112.225 26.5868 112.224 26.4427 112.224 26.2923C111.793 26.257 111.38 26.279 110.972 26.2749C110.576 26.2709 110.179 26.2741 109.731 26.2741L109.731 24.379L108.507 24.379C108.393 23.7692 108.374 23.1468 108.45 22.5316C108.843 22.4945 109.261 22.5346 109.647 22.5094C109.75 22.4802 109.729 22.445 109.729 22.4128C109.73 21.8461 109.73 21.2795 109.729 20.7129C109.724 20.6898 109.716 20.6676 109.703 20.6473L109.724 20.6402Z" fill="#F9F9F9" fill-opacity="0.5"/>
<path d="M3.69064 28.1469C3.69607 28.0748 3.70626 28.0027 3.70628 27.9306C3.70698 18.6952 3.70718 9.45977 3.70692 0.22438L3.70692 0.0167846L4.91877 0.0167847C5.0142 0.0520478 4.96001 0.0985197 4.96924 0.141097C4.97403 0.17982 4.97463 0.218936 4.97103 0.257776C4.97103 9.48205 4.9713 18.7063 4.97174 27.9306C4.97174 28.0027 4.98189 28.0748 4.9873 28.1469L3.69064 28.1469Z" fill="#F9F9F9" fill-opacity="0.5"/>
<path d="M6.18478 28.1469C6.1902 28.0748 6.20041 28.0027 6.20042 27.9306C6.20113 18.6952 6.20132 9.45977 6.20106 0.22438L6.20106 0.0167846L7.41291 0.0167847C7.50834 0.0520478 7.45415 0.0985197 7.46338 0.141097C7.46817 0.17982 7.46877 0.218935 7.46517 0.257776C7.46517 9.48205 7.46537 18.7063 7.46581 27.9306C7.46581 28.0027 7.47603 28.0748 7.48144 28.1469L6.18478 28.1469Z" fill="#F9F9F9" fill-opacity="0.5"/>
<path d="M11.1701 28.1469C11.1756 28.0748 11.1857 28.0027 11.1857 27.9306C11.1864 18.6952 11.1867 9.45978 11.1864 0.22438L11.1864 0.0167846L12.3983 0.0167847C12.4937 0.0520478 12.4395 0.0985198 12.4487 0.141097C12.4535 0.17982 12.4541 0.218936 12.4505 0.257776C12.4505 9.48206 12.4507 18.7063 12.4512 27.9306C12.4512 28.0027 12.4614 28.0748 12.4668 28.1469L11.1701 28.1469Z" fill="#F9F9F9" fill-opacity="0.5"/>
<path d="M177.038 28.1469C177.044 28.0803 177.054 28.0137 177.054 27.9472C177.055 18.7062 177.055 9.46532 177.055 0.22438L177.055 0.0167846L178.167 0.0167847C178.262 0.0520478 178.208 0.0985085 178.217 0.141097C178.222 0.17982 178.223 0.218936 178.219 0.257775C178.219 9.48204 178.219 18.7063 178.22 27.9306C178.22 28.0027 178.23 28.0748 178.235 28.1469L177.038 28.1469Z" fill="#F9F9F9" fill-opacity="0.5"/>
<path d="M174.545 28.1469C174.551 28.0803 174.561 28.0137 174.561 27.9472C174.562 18.7062 174.562 9.46532 174.562 0.22438L174.562 0.0167846L175.674 0.0167847C175.769 0.0520478 175.715 0.0985085 175.724 0.141097C175.729 0.179821 175.73 0.218936 175.726 0.257775C175.726 9.48204 175.726 18.7063 175.727 27.9306C175.727 28.0027 175.737 28.0748 175.742 28.1469L174.545 28.1469Z" fill="#F9F9F9" fill-opacity="0.5"/>
<path d="M-0.000640869 0.00140376L1.18001 0.0118995L1.18001 19.3139C1.18001 22.1916 1.18026 25.0692 1.18072 27.9468C1.18072 28.0133 1.19087 28.0798 1.19629 28.1464L-0.000642099 28.1464L-0.000640869 0.00140376Z" fill="#F9F9F9" fill-opacity="0.5"/>
<path d="M179.533 28.1469C179.538 28.0804 179.548 28.0138 179.548 27.9472C179.549 18.7063 179.549 9.46533 179.549 0.22438L179.549 0.0167846L180.661 0.0167847C180.756 0.0520478 180.702 0.0985086 180.712 0.141097C180.716 0.179816 180.717 0.21894 180.713 0.257776C180.713 9.48206 180.713 18.7063 180.714 27.9306C180.714 28.0027 180.724 28.0748 180.729 28.1469L179.533 28.1469Z" fill="#F9F9F9" fill-opacity="0.5"/>
<path d="M144.622 28.1469C144.63 28.1085 144.636 28.0696 144.638 28.0306C144.639 26.8646 144.639 25.6988 144.639 24.5328L144.639 24.3949C144.222 24.3461 143.802 24.3932 143.369 24.3633C143.334 24.1623 143.326 23.9581 143.344 23.7552C143.336 23.5498 143.342 23.3444 143.342 23.1389L143.342 22.5121C142.498 22.4973 141.691 22.5123 140.895 22.5032C140.82 22.4385 140.85 22.3828 140.85 22.3285C140.848 21.8232 140.849 21.318 140.847 20.8127C140.843 20.757 140.835 20.7017 140.822 20.6472L140.842 20.6403C141.652 20.6611 142.461 20.6426 143.292 20.6498C143.388 20.4876 143.329 20.3334 143.34 20.1807C143.351 20.0256 143.342 19.8704 143.342 19.7152L143.342 18.7872C143.148 18.7709 142.954 18.7656 142.759 18.7712C142.577 18.7694 142.395 18.7708 142.223 18.7708C142.095 18.7233 142.148 18.671 142.148 18.6235C142.144 18.097 142.146 17.5705 142.144 17.044C142.14 16.9884 142.132 16.9331 142.119 16.8786L142.139 16.8721C142.534 16.8891 142.929 16.8871 143.323 16.8658C143.332 16.8308 143.338 16.7952 143.341 16.7594C143.342 16.2041 143.342 15.6488 143.341 15.0935C143.337 15.0651 143.328 15.0375 143.316 15.0113L143.336 15.0047L144.606 15.0203L144.606 15.6405C144.606 15.846 144.601 16.0515 144.608 16.2569C144.591 16.4617 144.6 16.6678 144.635 16.8704C145.035 16.8974 145.419 16.8632 145.803 16.8933L145.803 17.0847C145.803 18.0453 145.803 19.0059 145.803 19.9665C145.802 20.1886 145.796 20.4106 145.792 20.6327C145.408 20.656 145.006 20.6127 144.631 20.6573C144.57 21.2747 144.583 21.8967 144.669 22.5112L145.792 22.522C145.796 22.583 145.803 22.644 145.803 22.7049C145.803 24.458 145.804 26.2111 145.804 27.9642C145.804 28.0251 145.814 28.0861 145.819 28.147L144.622 28.1469Z" fill="#F9F9F9" fill-opacity="0.5"/>
<path d="M51.0764 20.6466C51.0641 20.6786 51.0557 20.7118 51.0515 20.7456C51.05 21.2898 51.0499 21.834 51.0512 22.3781C51.0542 22.4195 51.0601 22.4606 51.0689 22.5012C51.4849 22.532 51.8977 22.5121 52.3058 22.5158C52.7017 22.5194 53.0979 22.5165 53.5186 22.5165L53.5186 24.3707L51.1593 24.3707C51.0259 24.4152 51.0518 24.4504 51.0517 24.4825C51.0502 25.6818 51.05 26.8812 51.0512 28.0806C51.0537 28.1031 51.059 28.1253 51.0666 28.1468L49.8698 28.1468C49.8752 27.6747 49.8805 27.2025 49.8858 26.7304C49.8872 26.5865 49.886 26.4425 49.886 26.2929C49.4609 26.2511 49.0427 26.2902 48.6155 26.2664L48.6155 24.3943C48.8178 24.3747 49.0328 24.3862 49.2436 24.3843C49.4392 24.3825 49.6352 24.384 49.8206 24.384C49.9034 23.7646 49.9105 23.1381 49.8417 22.5172C49.4473 22.489 49.0313 22.519 48.5895 22.4978L48.5895 22.3119C48.5895 21.1952 48.5891 20.0785 48.5883 18.9617C48.5843 18.9005 48.576 18.8395 48.5634 18.7794L48.5834 18.7729L49.8536 18.7881L49.8536 19.7182C49.8536 19.8729 49.8451 20.0277 49.8559 20.1822C49.8666 20.3345 49.8072 20.4882 49.9033 20.6483C50.3028 20.6449 50.6795 20.6589 51.0567 20.6402L51.0764 20.6466Z" fill="#F9F9F9" fill-opacity="0.5"/>
<path d="M95.9166 24.3898C95.9224 24.806 95.929 25.2222 95.9335 25.6384C95.9357 25.8434 95.9338 26.0484 95.9338 26.2703C95.5215 26.2715 95.1288 26.2733 94.736 26.2738C94.3209 26.2744 93.9057 26.2745 93.4906 26.274L92.3092 26.274C92.2792 26.3019 92.2489 26.3168 92.249 26.3318C92.2509 26.9368 92.2545 27.5418 92.2598 28.1468L90.9631 28.1468C90.9685 27.6815 90.9738 27.2161 90.9791 26.7508C90.9806 26.6014 90.9794 26.452 90.9794 26.2893C90.5612 26.2589 90.1504 26.2783 89.7453 26.2747C89.3482 26.2711 88.9506 26.274 88.5633 26.274C88.4364 26.2262 88.4888 26.1739 88.4884 26.1264C88.4843 25.6 88.4867 25.0736 88.4847 24.5472C88.4805 24.4917 88.4718 24.4364 88.459 24.382L88.4794 24.3751C88.8915 24.3912 89.3031 24.3858 89.7415 24.3774C89.79 24.227 89.8033 24.0682 89.7805 23.9123C89.7898 23.7568 89.7825 23.6013 89.7825 23.4457L89.7825 22.5165L90.9461 22.5165L90.9461 24.3605C91.1235 24.385 91.303 24.3927 91.482 24.3834C92.7946 24.3845 94.1072 24.3848 95.4198 24.3842C95.5854 24.3843 95.751 24.3879 95.9166 24.3898Z" fill="#F9F9F9" fill-opacity="0.5"/>
<path d="M139.636 28.1468C139.642 27.6814 139.647 27.2161 139.652 26.7507C139.654 26.6013 139.653 26.4519 139.653 26.2896C139.234 26.2587 138.823 26.2783 138.418 26.2746C138.021 26.271 137.623 26.2739 137.236 26.2739C137.11 26.2259 137.162 26.1737 137.162 26.1261C137.158 25.5997 137.16 25.0733 137.158 24.5469C137.154 24.4913 137.146 24.436 137.133 24.3815L137.153 24.375C137.548 24.3921 137.943 24.3901 138.337 24.3687C138.346 24.3338 138.352 24.2981 138.355 24.2623C138.356 23.707 138.356 23.1518 138.355 22.5966C138.35 22.5682 138.342 22.5404 138.33 22.5143L138.349 22.5077L139.613 22.5231L139.613 24.3629C140.008 24.4049 140.393 24.3689 140.808 24.3922C140.827 24.6018 140.814 24.8112 140.817 25.0204C140.819 25.2259 140.817 25.4313 140.817 25.6368L140.817 26.2779L142.013 26.2779C142.166 26.3315 142.11 26.384 142.111 26.4313C142.115 26.9478 142.113 27.4642 142.114 27.9806C142.114 28.036 142.124 28.0914 142.13 28.1468L139.636 28.1468Z" fill="#F9F9F9" fill-opacity="0.5"/>
<path d="M132.122 24.3895C132.128 24.7113 132.136 25.033 132.139 25.3548C132.142 25.6046 132.137 25.8544 132.141 26.1042C132.142 26.1584 132.105 26.2146 132.198 26.278L134.536 26.278C134.684 26.3316 134.63 26.384 134.63 26.4315C134.635 26.9477 134.633 27.4641 134.634 27.9803C134.634 28.0357 134.644 28.091 134.649 28.1464L130.859 28.1464C130.865 28.0855 130.875 28.0246 130.875 27.9637C130.876 26.8376 130.876 25.7115 130.875 24.5853L130.875 24.39C131.305 24.379 131.713 24.3814 132.122 24.3895Z" fill="#F9F9F9" fill-opacity="0.5"/>
<path d="M153.335 26.2903C154.827 26.2883 156.319 26.2864 157.811 26.2845C157.943 26.2844 158.075 26.2845 158.196 26.2845C158.32 26.3337 158.269 26.3859 158.269 26.4335C158.273 26.9492 158.271 27.4649 158.273 27.9806C158.273 28.0359 158.283 28.0913 158.288 28.1466L153.301 28.1466C153.307 27.688 153.311 27.2294 153.318 26.7707C153.32 26.6106 153.329 26.4504 153.335 26.2903Z" fill="#F9F9F9" fill-opacity="0.5"/>
<path d="M33.6124 28.1465C33.6178 28.091 33.6279 28.0356 33.628 27.9802C33.6288 26.2133 33.6287 24.4465 33.6276 22.6797C33.6236 22.624 33.6156 22.5686 33.6034 22.514L33.6226 22.5074C34.048 22.5214 34.4734 22.5214 34.8987 22.5073L34.9189 22.5141C34.9063 22.5686 34.8979 22.624 34.8938 22.6797C34.8925 24.4465 34.8924 26.2134 34.8935 27.9802C34.8935 28.0356 34.9036 28.091 34.909 28.1465L33.6124 28.1465Z" fill="#F9F9F9" fill-opacity="0.5"/>
<path d="M103.431 28.1468C103.436 27.7592 103.442 27.3715 103.447 26.9839C103.449 26.7955 103.449 26.6072 103.445 26.4189C103.444 26.376 103.478 26.3305 103.374 26.2795L102.341 26.2795C102.201 26.2254 102.253 26.1734 102.253 26.1258C102.249 25.5996 102.251 25.0733 102.249 24.547C102.245 24.4915 102.237 24.4363 102.225 24.3818L102.244 24.3753C103.068 24.3897 103.893 24.3896 104.717 24.3751L104.737 24.3821C104.725 24.4253 104.716 24.4696 104.712 24.5143C104.711 25.6864 104.711 26.8585 104.712 28.0306C104.714 28.0696 104.72 28.1085 104.727 28.1468L103.431 28.1468Z" fill="#F9F9F9" fill-opacity="0.5"/>
<path d="M56.0866 26.2886L58.4674 26.2886C58.5768 26.3353 58.5289 26.387 58.5292 26.4347C58.5331 26.9501 58.5312 27.4654 58.5324 27.9808C58.5325 28.0361 58.5424 28.0914 58.5479 28.1467L56.0544 28.1467C56.0598 28.0085 56.0682 27.8704 56.0701 27.7322C56.0768 27.251 56.0813 26.7698 56.0866 26.2886Z" fill="#F9F9F9" fill-opacity="0.5"/>
<path d="M164.572 28.1469L163.276 28.1469C163.283 28.1255 163.288 28.1032 163.291 28.0807C163.292 27.5088 163.292 26.9368 163.291 26.3649C163.286 26.3365 163.278 26.3089 163.266 26.2827L163.286 26.276C163.711 26.2902 164.137 26.2902 164.562 26.276L164.582 26.2828C164.573 26.4379 164.557 26.5931 164.557 26.7482C164.559 27.2144 164.567 27.6807 164.572 28.1469Z" fill="#F9F9F9" fill-opacity="0.5"/>
<path d="M160.782 28.1469C160.787 27.6806 160.795 27.2143 160.796 26.748C160.797 26.5929 160.78 26.4378 160.772 26.2827L160.792 26.276C161.217 26.2902 161.643 26.2902 162.068 26.276L162.088 26.2824C162.079 26.4375 162.063 26.5927 162.063 26.7479C162.065 27.2142 162.073 27.6806 162.078 28.1469L160.782 28.1469Z" fill="#F9F9F9" fill-opacity="0.5"/>
<path d="M53.5599 28.1467C53.5653 27.6816 53.5706 27.2166 53.5759 26.7516C53.5774 26.6026 53.5761 26.4534 53.5761 26.289C54.0058 26.2815 54.4143 26.2834 54.823 26.2883C54.8287 26.4486 54.8372 26.6089 54.8397 26.7692C54.8466 27.2283 54.851 27.6875 54.8564 28.1467L53.5599 28.1467Z" fill="#F9F9F9" fill-opacity="0.5"/>
<path d="M99.7407 28.1469C99.7461 27.6759 99.7514 27.2048 99.7566 26.7338C99.7581 26.5903 99.7569 26.4469 99.7569 26.2942L100.87 26.2942C100.967 26.335 100.919 26.3867 100.919 26.4344C100.923 26.9499 100.921 27.4655 100.922 27.981C100.922 28.0363 100.932 28.0915 100.937 28.1469L99.7407 28.1469Z" fill="#F9F9F9" fill-opacity="0.5"/>
<path d="M163.266 26.2825C162.873 26.2686 162.481 26.2685 162.088 26.2823L162.068 26.2758C162.081 26.2439 162.089 26.2107 162.094 26.177C162.095 24.3727 162.095 22.5685 162.094 20.7642C162.094 20.7266 162.121 20.6865 162.014 20.6441C161.63 20.6346 161.223 20.635 160.766 20.6444L160.766 22.4973C160.347 22.5192 159.964 22.4877 159.587 22.5202C159.579 22.5555 159.573 22.5914 159.569 22.6275C159.568 23.1827 159.568 23.7378 159.57 24.2929C159.574 24.3213 159.583 24.349 159.595 24.3751L159.576 24.3818C159.477 24.3789 159.379 24.3735 159.28 24.3735C157.407 24.373 155.533 24.3729 153.659 24.3733C153.56 24.3733 153.462 24.3765 153.361 24.3782C153.23 24.4342 153.288 24.4975 153.288 24.5559C153.283 25.0714 153.286 25.5871 153.284 26.1027C153.281 26.1581 153.275 26.2134 153.266 26.2683L150.884 26.2683C150.79 25.6485 150.776 25.0201 150.841 24.3971C151.236 24.3643 151.653 24.4002 152.036 24.3773C152.141 24.3459 152.119 24.3107 152.119 24.2786C152.121 23.7124 152.121 23.1463 152.119 22.5801C152.115 22.557 152.106 22.5348 152.094 22.5145L152.114 22.5076C152.493 22.526 152.871 22.513 153.274 22.5147C153.324 22.3627 153.338 22.2023 153.315 22.0447C153.325 21.8892 153.317 21.7334 153.317 21.5778L153.317 20.6526L155.696 20.6526C155.743 20.6368 155.756 20.6333 155.766 20.629C155.776 20.6249 155.79 20.6203 155.792 20.6156C155.802 20.589 155.808 20.561 155.81 20.5328C155.807 19.3271 155.804 18.1215 155.799 16.9158C155.799 16.9062 155.772 16.8967 155.746 16.8785L153.301 16.8785C153.281 17.084 153.276 17.2906 153.286 17.4968C153.282 17.7079 153.285 17.9191 153.285 18.1302L153.285 18.7452C152.933 18.7767 151.459 18.7828 150.844 18.7556L150.844 16.8848L152.005 16.8848C152.052 16.869 152.065 16.8653 152.075 16.861C152.085 16.8569 152.1 16.8524 152.101 16.8477C152.111 16.8211 152.117 16.7932 152.12 16.7649C152.117 16.1927 152.113 15.6205 152.108 15.0483C152.108 15.0387 152.082 15.0292 152.051 15.0078L150.896 15.0078C150.78 13.7725 150.762 12.5306 150.84 11.2926C151.24 11.2625 151.652 11.2829 152.058 11.2793C152.474 11.2755 152.889 11.2784 153.305 11.2784L154.567 11.2784C154.621 11.1272 154.637 10.9658 154.612 10.8076C154.622 10.6466 154.614 10.4853 154.614 10.3242L154.614 9.38569L158.217 9.38569C158.288 9.52088 158.318 14.6424 158.247 14.9985C157.878 15.005 157.502 15.0043 157.125 14.999C157.119 14.9437 157.108 14.8884 157.108 14.8331C157.107 14.3227 157.109 13.8123 157.105 13.3019C157.105 13.2488 157.158 13.191 157.037 13.1441C156.252 13.1219 154.965 13.1294 154.616 13.1581C154.555 13.7743 154.564 14.3952 154.645 15.0094L157.064 15.0186C157.067 15.5742 157.07 16.1299 157.076 16.6855C157.077 16.7452 157.049 16.8065 157.115 16.8724L159.584 16.8724C159.605 16.6667 159.61 16.4599 159.6 16.2535C159.604 16.0535 159.601 15.8534 159.601 15.6534L159.601 15.0289C159.979 14.9942 160.363 15.0287 160.713 15.007C160.742 14.9973 160.756 14.9938 160.765 14.9893C160.774 14.9849 160.782 14.9794 160.782 14.9744C160.788 13.7799 160.793 12.5853 160.797 11.3908C160.794 11.355 160.788 11.3196 160.78 11.2847C160.406 11.2468 160.021 11.2837 159.627 11.2583L159.627 7.51215L162.076 7.51215C162.098 7.30315 162.103 7.09302 162.094 6.88322C162.098 6.68319 162.095 6.48311 162.095 6.28306L162.095 5.65796C162.477 5.63004 162.848 5.64595 163.259 5.6446L163.259 5.83679C163.259 8.20947 163.259 10.5821 163.26 12.9548C163.264 13.016 163.272 13.0769 163.284 13.1371L163.265 13.1438C162.875 13.1311 162.485 13.126 162.084 13.148C162.074 13.177 162.067 13.2069 162.063 13.2373C162.067 13.8171 162.073 14.3968 162.079 14.9766C162.079 14.9814 162.091 14.9866 162.1 14.9908C162.109 14.9952 162.123 14.9987 162.149 15.0077C162.511 15.0145 162.888 15.0211 163.265 15.0044L163.285 15.0112C163.273 15.0316 163.265 15.0538 163.26 15.0768C163.259 16.2766 163.259 17.4765 163.26 18.6764C163.26 18.7085 163.238 18.7437 163.347 18.7758C163.738 18.7833 164.149 18.7887 164.562 18.7726L164.582 18.7794C164.573 18.7957 164.558 18.8121 164.558 18.8284C164.556 19.416 164.556 20.0036 164.558 20.5912C164.558 20.6075 164.574 20.6239 164.582 20.6402L164.562 20.6468C164.136 20.6352 163.712 20.6277 163.259 20.6541L163.259 20.81C163.259 22.5823 163.259 24.3545 163.26 26.1268C163.264 26.177 163.273 26.2269 163.285 26.2758L163.266 26.2825ZM162.06 18.7751C162.129 18.1433 162.118 17.5059 162.027 16.8766C161.625 16.8667 161.218 16.8659 160.8 16.8759C160.785 16.909 160.767 16.93 160.768 16.9511C160.772 17.5503 160.778 18.1495 160.785 18.7486C160.785 18.7531 160.801 18.7578 160.811 18.7618C160.822 18.7661 160.834 18.7698 160.85 18.7751L162.06 18.7751ZM159.568 20.6421C159.64 20.0202 159.627 19.3921 159.529 18.7734C159.129 18.772 158.722 18.7644 158.305 18.7775C158.291 18.8009 158.28 18.8265 158.274 18.853C158.279 19.4411 158.285 20.0291 158.292 20.6171L158.32 20.6301L158.353 20.6421L159.568 20.6421Z" fill="#F9F9F9" fill-opacity="0.5"/>
<path d="M74.7954 11.2715C74.8081 11.2282 74.8166 11.1839 74.8208 11.1391C74.8223 9.98325 74.8222 8.82749 74.8207 7.67162C74.8206 7.62239 74.8469 7.57188 74.7738 7.51187C74.3888 7.48424 73.9727 7.51463 73.5484 7.49401L73.5484 3.77678L74.8071 3.77678L74.8071 1.88006C75.2327 1.87874 75.6255 1.87695 76.0184 1.87638C76.4339 1.87576 76.8494 1.87572 77.265 1.87625L78.4787 1.87625C78.5182 1.67017 78.5289 1.46006 78.5107 1.25128C78.518 1.04568 78.5124 0.839967 78.5124 0.634351L78.5124 0.0153806L83.424 0.0153809C83.4977 0.0741043 83.4649 0.130075 83.4651 0.184265C83.468 0.689953 83.466 1.19553 83.4681 1.70123C83.4726 1.75696 83.4816 1.81231 83.4951 1.8667L83.4742 1.87366C83.0951 1.85661 82.7169 1.86845 82.3145 1.86711C82.2629 2.01843 82.2483 2.17916 82.2721 2.33669C82.2625 2.49766 82.2699 2.65872 82.2699 2.81976L82.2699 3.75797L81.0123 3.75797C80.9988 3.54804 81.0078 3.33868 81.0062 3.12945C81.0045 2.92399 81.0058 2.71853 81.0058 2.51307L81.0058 1.87216C80.5856 1.86234 80.2124 1.86112 79.8531 1.87175C79.7404 1.91753 79.7783 1.96386 79.7783 2.00656C79.7761 3.80023 79.7759 5.59388 79.7775 7.38755C79.7818 7.42682 79.7905 7.46548 79.8034 7.50301L79.7829 7.50996C79.3713 7.49381 78.9602 7.49962 78.523 7.50764C78.4718 7.65708 78.4578 7.81585 78.482 7.97136C78.472 8.12657 78.4798 8.28183 78.4798 8.43712L78.4798 9.36728L75.994 9.36728C75.9746 10.0078 75.9971 10.6317 75.9807 11.2622L74.8161 11.2783L74.7954 11.2715ZM77.2916 5.63628C77.3729 5.01562 77.3549 4.38666 77.2381 3.77119C76.8349 3.76702 76.4272 3.75502 76.0273 3.77787C75.9623 4.39611 75.9687 5.01935 76.0463 5.63628L77.2916 5.63628Z" fill="#F9F9F9" fill-opacity="0.5"/>
<path d="M48.5639 18.7793C47.9176 18.7599 47.2698 18.7764 46.6231 18.7703C46.4504 18.7769 46.2776 18.7719 46.1057 18.7552L46.1057 11.2914C45.7146 11.2408 45.3262 11.288 44.9593 11.2598C44.8658 10.6399 44.8521 10.0114 44.9183 9.38833C45.2801 9.36001 45.6647 9.39361 46.0165 9.37061C46.1274 9.33282 46.095 9.29195 46.095 9.25461C46.0967 7.46036 46.0968 5.66609 46.0954 3.87184C46.0913 3.83805 46.0831 3.80488 46.071 3.77289L46.0905 3.76648C46.9149 3.78114 47.7393 3.78114 48.5637 3.76648L48.5834 3.77289C48.5711 3.80483 48.5628 3.83805 48.5586 3.87184C48.557 4.41601 48.5569 4.9603 48.5582 5.50453C48.5614 5.54602 48.5673 5.58728 48.5761 5.62803C48.9867 5.66241 49.4037 5.62731 49.8293 5.65093L49.8293 7.49761L48.6236 7.49761C48.5396 8.75261 48.5308 10.0112 48.597 11.2672C48.9907 11.2953 49.4064 11.2651 49.8417 11.2861L49.8417 13.1215C50.2351 13.1727 50.6231 13.1262 51.0408 13.1575C51.0639 13.3564 51.0473 13.56 51.0503 13.7634C51.0533 13.9688 51.051 14.1743 51.051 14.3798L51.051 15.0105L52.2954 15.0105C52.3757 15.0809 52.3458 15.1366 52.3461 15.1909C52.3486 15.6962 52.3468 16.2016 52.3487 16.7069C52.3528 16.7626 52.3609 16.8179 52.373 16.8725L52.3536 16.8788L49.8866 16.8642L49.8866 16.2425C49.8866 16.037 49.89 15.8313 49.8856 15.6257C49.8965 15.4213 49.8907 15.2165 49.8682 15.0129C49.421 14.9882 49.0049 15.0188 48.5722 14.9892L48.5722 13.1369C48.1514 13.1435 47.7638 13.1153 47.3606 13.1564L47.3606 15.6455C47.3606 15.8511 47.3565 16.0566 47.3617 16.2622C47.3484 16.4693 47.3563 16.6771 47.3853 16.8828L48.5097 16.8828C48.587 16.9471 48.5556 17.0028 48.5559 17.0571C48.5585 17.5738 48.5567 18.0905 48.5586 18.6072C48.5628 18.6629 48.5713 18.7183 48.5839 18.7728L48.5639 18.7793Z" fill="#F9F9F9" fill-opacity="0.5"/>
<path d="M53.5506 1.86595C53.563 1.8115 53.5712 1.75633 53.5754 1.70074C53.5773 1.19628 53.5754 0.691784 53.5781 0.187325C53.5784 0.132834 53.5485 0.0772582 53.615 0.0154417L56.0127 0.0154418C56.0446 0.21676 56.0524 0.420777 56.036 0.623781C56.0431 0.828872 56.0375 1.03409 56.0375 1.23921L56.0375 1.84891C56.4247 1.8797 57.7791 1.88719 58.5368 1.8654L58.5576 1.87222C58.5449 1.92671 58.5364 1.98202 58.5322 2.0377C58.5302 2.55393 58.532 3.07013 58.5296 3.58642C58.5293 3.64077 58.5586 3.69656 58.4864 3.76116L57.4449 3.76116C57.2865 3.81379 57.3369 3.86656 57.3365 3.91424C57.3325 4.3361 57.3341 4.75799 57.3341 5.17985L57.3341 11.2511C57.1581 11.2687 56.981 11.2741 56.8041 11.2671C55.891 11.2681 54.9779 11.2683 54.0647 11.2679C53.8997 11.268 53.7347 11.2733 53.5697 11.2762L53.5499 11.2695C53.5621 11.2492 53.5707 11.227 53.5751 11.2039C53.5766 10.6265 53.5767 10.0491 53.5754 9.47162C53.5753 9.43945 53.597 9.40425 53.488 9.37238C53.1303 9.36477 52.7521 9.35927 52.3734 9.37552L52.3537 9.36911C52.366 9.3315 52.3744 9.29276 52.3786 9.25352C52.3799 8.08766 52.3799 6.92188 52.3786 5.75602C52.3744 5.71678 52.3661 5.67804 52.3537 5.64043L52.3736 5.63389L53.5324 5.64793C53.5363 5.70327 53.5434 5.75862 53.5435 5.81395C53.5444 6.32367 53.5424 6.83352 53.5464 7.34318C53.5468 7.39625 53.4939 7.45398 53.6375 7.51016C53.8183 7.51016 54.0161 7.51223 54.2133 7.50961C54.4248 7.5182 54.6367 7.51261 54.8474 7.49298L54.8474 5.64302C54.416 5.61839 54.0021 5.64155 53.5938 5.6283C53.588 5.57323 53.5775 5.5182 53.5773 5.46309C53.576 4.95469 53.5773 4.44622 53.5754 3.93782C53.5711 3.8824 53.5627 3.8274 53.5501 3.77316L53.5705 3.76648C53.9939 3.77923 54.4165 3.78377 54.8732 3.7613L54.8732 3.12597C54.8732 2.91605 54.8776 2.70616 54.8719 2.49623C54.8856 2.28535 54.878 2.07366 54.8492 1.86418C54.3905 1.86816 53.9805 1.85284 53.5702 1.87249L53.5506 1.86595Z" fill="#F9F9F9" fill-opacity="0.5"/>
<path d="M117.186 11.2697C117.198 11.2435 117.206 11.2159 117.21 11.1876C117.212 10.617 117.212 10.0465 117.211 9.47588C117.208 9.44525 117.202 9.41478 117.194 9.38497C116.79 9.34785 116.377 9.37201 115.971 9.36766C115.558 9.36319 115.143 9.3667 114.729 9.3667L113.498 9.3667C113.372 9.31847 113.424 9.26634 113.424 9.21881C113.42 8.70363 113.422 8.18841 113.42 7.67322C113.416 7.61766 113.407 7.5625 113.394 7.50815L113.415 7.5012C114.225 7.52074 115.035 7.50504 115.836 7.51088C115.946 6.8963 115.964 6.26979 115.889 5.65042C115.53 5.60662 115.143 5.65078 114.777 5.62439C114.684 5.01601 114.67 4.39914 114.735 3.78751C115.096 3.75613 115.481 3.79109 115.83 3.76843C115.936 3.73703 115.913 3.70188 115.913 3.66975C115.915 3.09246 115.915 2.51527 115.913 1.93796C115.909 1.9149 115.9 1.8927 115.888 1.8724L115.908 1.86545C116.733 1.88016 117.558 1.88017 118.383 1.86558L118.402 1.8724C118.39 1.92688 118.381 1.98208 118.377 2.03774C118.375 2.55393 118.377 3.07013 118.374 3.58633C118.374 3.64069 118.403 3.69645 118.325 3.76693L117.204 3.76693L117.204 5.62316C117.744 5.65474 119.339 5.64948 119.705 5.61403L119.705 5.50117C119.705 4.33001 119.704 3.15886 119.704 1.98772C119.699 1.94848 119.691 1.90982 119.678 1.87226L119.698 1.86572L120.864 1.8814L120.864 3.75576C121.294 3.79819 121.713 3.75683 122.14 3.78493L122.14 5.62971L120.888 5.62971C120.866 5.83869 120.86 6.04885 120.87 6.25863C120.866 6.45863 120.869 6.65864 120.869 6.85865L120.869 7.48389C120.492 7.51794 120.108 7.48407 119.759 7.50543C119.652 7.53634 119.673 7.57152 119.673 7.60371C119.672 8.80379 119.672 10.0039 119.674 11.204C119.678 11.227 119.686 11.2493 119.698 11.2697L119.678 11.2762C118.854 11.2616 118.029 11.2616 117.205 11.2762L117.186 11.2697Z" fill="#F9F9F9" fill-opacity="0.5"/>
<path d="M137.133 24.3817C136.953 24.3788 136.772 24.3737 136.592 24.3734C135.124 24.3707 133.656 24.3685 132.189 24.3668C132.183 23.9001 132.178 23.4334 132.172 22.9667C132.171 22.8228 132.172 22.6789 132.172 22.5174L134.639 22.5174L134.639 20.6473C134.013 20.6285 133.402 20.6409 132.793 20.6387C132.178 20.6365 131.563 20.6381 130.92 20.6381C130.831 20.4822 130.888 20.3281 130.878 20.1754C130.867 20.0198 130.875 19.8641 130.875 19.7085L130.875 18.784C130.477 18.7561 130.094 18.7821 129.702 18.7642L129.702 16.8896L132.114 16.8896C132.145 17.0974 132.153 17.3077 132.138 17.5171C132.145 17.7227 132.139 17.9283 132.139 18.1339L132.139 18.7602C132.58 18.7867 136.609 18.7899 137.099 18.7671C137.18 18.1388 137.185 17.5036 137.114 16.8742L135.918 16.8742C135.833 16.8039 135.864 16.748 135.864 16.6937C135.861 16.1879 135.863 15.6822 135.861 15.1765C135.857 15.1207 135.849 15.0654 135.837 15.0107L135.858 15.0038C136.504 15.0252 137.152 15.0071 137.799 15.0137C137.964 15.0072 138.129 15.0113 138.293 15.0261C138.352 15.0868 138.322 15.1482 138.322 15.2081C138.324 17.5805 138.325 19.953 138.324 22.3255C138.328 22.3867 138.336 22.4477 138.349 22.5079L138.329 22.5144C137.937 22.4975 137.543 22.4994 137.151 22.5204C137.14 22.5438 137.132 22.5685 137.128 22.5939C137.127 23.1713 137.127 23.7488 137.129 24.3262C137.129 24.3425 137.145 24.3587 137.153 24.375L137.133 24.3817Z" fill="#F9F9F9" fill-opacity="0.5"/>
<path d="M94.7438 7.50168C94.7562 7.44711 94.7646 7.39176 94.7687 7.33606C94.7706 6.8306 94.7687 6.32511 94.7713 5.81965C94.7716 5.76534 94.7411 5.70951 94.8164 5.64504L95.8555 5.64504C95.9025 5.62932 95.9156 5.62584 95.9256 5.62146C95.9343 5.61853 95.9422 5.61375 95.9487 5.60756C95.9562 5.59776 95.9614 5.58653 95.9641 5.57471C95.9664 5.55814 95.9672 5.54151 95.9666 5.52482C95.9701 4.31957 95.9736 3.11425 95.9773 1.909C95.9773 1.90394 95.9872 1.8989 96.0106 1.87615L97.2446 1.87615C97.2664 1.66723 97.2724 1.45711 97.2625 1.24737C97.2665 1.04741 97.2634 0.847445 97.2634 0.64748L97.2634 0.0325986C97.6124 0.000931105 101.505 -0.00752133 102.196 0.0214217L102.196 1.86361L101.02 1.86361C100.868 1.91634 100.924 1.9746 100.924 2.02745C100.92 2.54401 100.921 3.0607 100.921 3.57726L100.921 3.75555C100.547 3.7737 100.186 3.75901 99.8011 3.7655C99.7088 3.60806 99.7704 3.45369 99.7594 3.30083C99.7479 3.13984 99.7569 2.9787 99.7569 2.81762L99.7569 1.87779C99.3192 1.85069 98.9104 1.86939 98.5292 1.86443C98.4913 1.8771 98.4782 1.88063 98.4683 1.88501C98.4588 1.8892 98.4466 1.89412 98.4458 1.89891C98.4364 1.94268 98.4306 1.98705 98.4285 2.03168C98.4313 3.22025 98.4353 4.4089 98.4407 5.59747C98.4407 5.60698 98.4674 5.61646 98.4991 5.63768L100.85 5.63768C100.961 6.24788 100.979 6.8701 100.904 7.48532C100.544 7.51809 100.16 7.48403 99.8106 7.50549C99.7043 7.53614 99.7255 7.57131 99.7255 7.6035C99.7241 8.17006 99.7242 8.73669 99.7257 9.30325C99.7301 9.32627 99.7384 9.34839 99.7504 9.36881L99.7304 9.37535L98.5034 9.36063C98.43 9.30111 98.4621 9.24547 98.4618 9.19148C98.4591 8.68255 98.4618 8.17363 98.4577 7.6647C98.4573 7.61178 98.511 7.55399 98.3651 7.49922C97.7366 7.49922 97.0922 7.49712 96.4479 7.49977C95.8865 7.50208 95.3242 7.48806 94.7635 7.50808L94.7438 7.50168Z" fill="#F9F9F9" fill-opacity="0.5"/>
<path d="M98.4531 13.143C98.4407 13.1976 98.4325 13.253 98.4284 13.3088C98.4264 13.8144 98.4284 14.32 98.4256 14.8256C98.4253 14.8799 98.4567 14.9358 98.3796 15.0001L93.4653 15.0001C93.4359 15.2056 93.4278 15.4134 93.4414 15.6205C93.436 15.8261 93.4402 16.0316 93.4402 16.2372L93.4402 16.8605L92.3025 16.8605C92.268 16.659 92.2596 16.4542 92.2775 16.2507C92.2697 16.0451 92.2758 15.8396 92.2758 15.634L92.2758 13.767L92.2758 13.1418L91.0937 13.1418C91.0398 13.1258 91.026 13.1226 91.0158 13.1185C91.0058 13.1144 90.9926 13.1094 90.9926 13.1048C90.9876 11.8881 90.9835 10.6713 90.9804 9.45454C90.9848 9.42967 90.9928 9.40554 91.004 9.38271L93.447 9.36853L93.4667 9.37521C93.4545 9.39556 93.446 9.41773 93.4415 9.44077C93.4401 10.0182 93.4401 10.5957 93.4414 11.1731C93.4415 11.2053 93.4196 11.2404 93.5067 11.2659C94.0788 11.2879 95.5592 11.2827 95.9662 11.2546L95.9662 10.6281C95.9662 10.4227 95.9624 10.2173 95.9672 10.0119C95.9561 9.80323 95.9619 9.59408 95.9844 9.38625L97.2304 9.38625L97.2304 12.0745C97.2304 12.2522 97.223 12.43 97.2324 12.6076C97.2091 12.787 97.2222 12.9691 97.2709 13.1438C97.6767 13.142 98.0547 13.155 98.4335 13.1366L98.4531 13.143Z" fill="#F9F9F9" fill-opacity="0.5"/>
<path d="M52.3544 5.64042L51.0853 5.62543L51.0853 3.77165C50.6383 3.75788 50.2286 3.76426 49.821 3.76524C49.4086 3.76625 48.9952 3.75386 48.5838 3.77274L48.5641 3.76634C48.5762 3.74602 48.5846 3.72401 48.589 3.70104C48.5904 3.11956 48.5905 2.53809 48.5892 1.95659C48.5892 1.92979 48.6026 1.90068 48.5349 1.87916C47.9463 1.84979 46.4121 1.85712 46.0868 1.89075C46.0801 1.90157 46.0678 1.9125 46.0678 1.92333C46.0672 2.52695 46.0675 3.13053 46.0688 3.73417C46.0688 3.7449 46.0832 3.7556 46.0908 3.76633L46.0714 3.77274L44.9205 3.75775L44.9205 0.0262062C45.3414 -3.45509e-05 50.936 -0.0102435 52.3091 0.0128484C52.3956 0.16366 52.3341 0.318032 52.3453 0.470976C52.3567 0.626299 52.3479 0.781723 52.3479 0.937146L52.3479 1.85817C52.7486 1.88006 53.1503 1.88266 53.5513 1.86594L53.5709 1.87249C53.5663 1.8778 53.5576 1.88312 53.5576 1.88843C53.5571 2.5091 53.5572 3.12971 53.5579 3.75039C53.5579 3.75571 53.5667 3.76101 53.5713 3.76634L53.5508 3.77301C53.1581 3.75606 52.7648 3.75806 52.3724 3.77901C52.3613 3.80244 52.3536 3.82714 52.3492 3.85248C52.3483 4.42992 52.3485 5.00737 52.35 5.58481C52.35 5.60111 52.3659 5.61745 52.3744 5.63374L52.3544 5.64042Z" fill="#F9F9F9" fill-opacity="0.5"/>
<path d="M110.948 9.37607L112.191 9.37607L112.191 11.2641C112.597 11.2941 112.965 11.265 113.322 11.284C113.413 11.8971 113.418 12.5189 113.339 13.1334L109.721 13.1334C109.694 13.3391 109.687 13.5466 109.699 13.7536C109.694 13.959 109.698 14.1646 109.698 14.3701L109.698 14.9933L108.493 14.9933C108.395 13.7619 108.381 12.5255 108.451 11.2923C108.845 11.2572 109.262 11.2951 109.659 11.2707C109.76 10.6461 109.774 10.0115 109.701 9.38329C109.308 9.34205 108.889 9.38593 108.49 9.35835C108.405 8.12296 108.393 6.88387 108.456 5.64725C108.841 5.63764 109.235 5.64378 109.627 5.64275C110.025 5.64173 110.424 5.64248 110.805 5.64248C110.834 5.65114 110.848 5.65442 110.858 5.65856C110.868 5.66258 110.88 5.66735 110.882 5.67219C110.889 5.6879 110.893 5.70467 110.894 5.72181C110.9 6.92689 110.905 8.13201 110.91 9.33709C110.91 9.34221 110.919 9.34737 110.948 9.37607Z" fill="#F9F9F9" fill-opacity="0.5"/>
<path d="M133.361 9.36853C134.272 9.3876 135.184 9.3727 136.096 9.37698C136.424 9.37852 136.753 9.37725 137.104 9.37725L137.104 13.1216C136.712 13.1549 136.295 13.118 135.915 13.141C135.808 13.1735 135.831 13.2087 135.831 13.2407C135.829 13.801 135.829 14.3612 135.831 14.9214C135.835 14.9498 135.845 14.9774 135.858 15.0033L135.837 15.0103C135.191 15.0075 134.546 15.0047 133.9 15.0017C133.722 15.0081 133.543 15.0026 133.366 14.9856L133.366 13.1485C132.964 13.119 132.597 13.1474 132.235 13.1291C132.122 13.0872 132.175 13.0348 132.174 12.9873C132.17 12.4719 132.172 11.9565 132.17 11.4411C132.166 11.3855 132.158 11.3302 132.146 11.2757L132.166 11.2692C132.56 11.2862 132.954 11.2841 133.348 11.2629C133.358 11.2336 133.364 11.2036 133.368 11.1731C133.369 10.5956 133.368 10.0181 133.367 9.44064C133.363 9.4176 133.354 9.39543 133.342 9.37507L133.361 9.36853Z" fill="#F9F9F9" fill-opacity="0.5"/>
<path d="M26.1215 18.7794L24.9709 18.764L24.9709 11.2845C25.3273 11.2716 25.6875 11.2823 26.0723 11.278C26.1627 11.4352 26.1012 11.5895 26.1125 11.7425C26.1239 11.8979 26.115 12.0534 26.115 12.2088L26.115 13.1198C26.4973 13.1516 27.7951 13.1594 28.6151 13.1375L28.6347 13.1439C28.6226 13.1642 28.6142 13.1864 28.6098 13.2093C28.6084 13.7795 28.6084 14.3496 28.6096 14.9198C28.6097 14.9466 28.5961 14.9757 28.7154 15.0147L29.9051 15.0147L29.9051 15.1957C29.9051 15.6995 29.9043 16.2032 29.9063 16.7069C29.9105 16.7625 29.919 16.8177 29.9316 16.872L29.9112 16.8787C29.8624 16.8759 29.8136 16.8707 29.7649 16.8707C28.6353 16.8701 27.5058 16.8701 26.3762 16.8704C26.2971 16.8645 26.2175 16.8733 26.1419 16.8963C26.1347 16.9091 26.1179 16.9251 26.1179 16.9411C26.1171 17.5409 26.1177 18.1407 26.1195 18.7405C26.1195 18.7513 26.1338 18.7621 26.1414 18.7728L26.1215 18.7794Z" fill="#F9F9F9" fill-opacity="0.5"/>
<path d="M32.4053 3.77288C31.9804 3.75948 31.5555 3.75743 31.1308 3.77343L31.1101 3.76648C31.1219 3.72304 31.1297 3.67869 31.1336 3.63399C31.1352 3.10048 31.1352 2.56697 31.1334 2.03347C31.1332 1.98426 31.1599 1.93377 31.1013 1.88612C30.7506 1.85788 29.3783 1.85068 28.63 1.87494C28.6032 2.08192 28.5965 2.29094 28.6099 2.49909C28.6042 2.7047 28.6087 2.91026 28.6087 3.11588L28.6087 3.7553L27.468 3.7553C27.4389 3.54719 27.4314 3.33685 27.4457 3.12733C27.4396 2.92174 27.4443 2.71617 27.4443 2.51054L27.4443 1.86963L25.027 1.86963C24.9087 1.26355 24.888 0.643697 24.9656 0.0316598C24.9758 0.0269883 24.9864 0.0229475 24.9971 0.0193922C25.01 0.0148812 25.0236 0.0121099 25.0373 0.0112137C27.4139 0.00946444 29.7905 0.00806782 32.1671 0.00698851C32.2305 0.00698852 32.2939 0.0114532 32.3988 0.0154396L32.3988 0.199182C32.3988 1.32731 32.3992 2.45542 32.4 3.58355C32.4042 3.64481 32.4128 3.7058 32.4258 3.76593L32.4053 3.77288Z" fill="#F9F9F9" fill-opacity="0.5"/>
<path d="M95.9398 22.5142C95.2938 22.4941 94.6462 22.5112 93.9996 22.505C93.838 22.5112 93.6761 22.5077 93.515 22.4942C93.4593 21.8817 93.4584 21.2658 93.5122 20.6532L94.6612 20.6532C94.8219 20.5952 94.7669 20.5369 94.7674 20.4838C94.7715 19.9784 94.7699 19.473 94.7699 18.9677L94.7699 18.785C95.198 18.7837 95.6072 18.7821 96.0165 18.7815C96.4121 18.7809 96.8076 18.7813 97.2325 18.7813C97.269 18.5695 97.2788 18.3541 97.2618 18.14C97.269 17.9345 97.2634 17.7292 97.2634 17.5236L97.2634 16.8875L98.4148 16.8875L98.4148 18.7575C98.8424 18.8087 99.2625 18.7613 99.663 18.7887C99.7616 19.3961 99.7765 20.0133 99.7073 20.6245C99.307 20.6529 98.895 20.6337 98.4876 20.6372C98.0726 20.6407 97.6572 20.6378 97.2419 20.6378L96.0425 20.6378C95.9142 20.6749 95.9354 20.7101 95.9354 20.7422C95.934 21.3087 95.9341 21.8753 95.9355 22.4417C95.9399 22.4647 95.9483 22.4869 95.9603 22.5073L95.9398 22.5142Z" fill="#F9F9F9" fill-opacity="0.5"/>
<path d="M134.66 1.87226C134.647 1.90979 134.639 1.9485 134.635 1.98772C134.633 3.1583 134.633 4.32896 134.633 5.49953L134.633 5.62316C135.054 5.66151 135.467 5.6372 135.873 5.6417C136.27 5.6461 136.667 5.64266 137.06 5.64266C137.148 6.25472 137.155 6.87499 137.082 7.4888C136.92 7.50198 136.758 7.50528 136.596 7.49875C135.683 7.49981 134.771 7.50015 133.858 7.4997C133.693 7.49986 133.528 7.50528 133.364 7.50829L133.343 7.50148C133.355 7.46396 133.364 7.42524 133.368 7.38602C133.37 6.22681 133.37 5.06763 133.369 3.90842L133.369 3.78751C132.989 3.73849 132.602 3.78265 132.235 3.75739C132.15 3.1345 132.145 2.50406 132.219 1.8799L134.639 1.86545L134.66 1.87226Z" fill="#F9F9F9" fill-opacity="0.5"/>
<path d="M157.081 1.87208C156.669 1.85601 156.257 1.8614 155.819 1.86976C155.77 2.02022 155.757 2.17898 155.78 2.33484C155.771 2.49589 155.778 2.65707 155.778 2.81819L155.778 3.75612L153.317 3.75612L153.317 1.86867L152.193 1.86867C152.08 1.26204 152.061 0.642967 152.135 0.0309784C152.146 0.0263762 152.157 0.0223308 152.168 0.018847C152.181 0.0145024 152.195 0.0117838 152.209 0.0109412C153.754 0.00922912 155.299 0.00800086 156.844 0.00698851C156.907 0.00698852 156.971 0.0115171 157.033 0.0139402C157.104 0.0726748 157.073 0.128431 157.073 0.182688C157.076 0.688253 157.074 1.19394 157.076 1.69951C157.08 1.75523 157.089 1.81049 157.102 1.86499L157.081 1.87208Z" fill="#F9F9F9" fill-opacity="0.5"/>
<path d="M119.698 11.2702L122.157 11.2702C122.207 11.121 122.22 10.9628 122.196 10.8078C122.206 10.6469 122.198 10.4859 122.198 10.3249L122.198 9.38286L123.283 9.38286C123.449 9.32526 123.392 9.26682 123.393 9.21398C123.397 8.70872 123.395 8.2035 123.395 7.69824L123.395 7.52036C123.801 7.50188 124.194 7.51269 124.601 7.51273C124.707 7.56913 124.656 7.63158 124.657 7.68979C124.66 8.82248 124.659 9.95511 124.66 11.0878C124.664 11.149 124.672 11.2099 124.685 11.27L124.665 11.2766C124.241 11.2644 123.818 11.2587 123.363 11.2827C123.363 11.395 123.364 11.4994 123.363 11.6039C123.358 12.1131 123.352 12.6223 123.347 13.1316C122.64 13.1328 121.932 13.1327 121.225 13.1358C120.717 13.138 120.207 13.1253 119.699 13.1441L119.679 13.1373C119.687 13.121 119.703 13.1048 119.703 13.0885C119.704 12.5009 119.704 11.9132 119.703 11.3255C119.703 11.3092 119.687 11.293 119.678 11.2767L119.698 11.2702Z" fill="#F9F9F9" fill-opacity="0.5"/>
<path d="M88.4593 24.3816L87.332 24.3659C87.2796 24.2234 87.2704 17.0752 87.3219 16.8893L89.6911 16.8893C89.7897 18.132 89.8038 19.3796 89.7333 20.624C89.3386 20.6581 88.9214 20.621 88.5387 20.6443C88.433 20.6755 88.4549 20.7107 88.4549 20.7429C88.4537 21.9316 88.4537 23.1202 88.455 24.3089C88.4594 24.332 88.4677 24.3542 88.4797 24.3746L88.4593 24.3816Z" fill="#F9F9F9" fill-opacity="0.5"/>
<path d="M90.9787 1.86342L89.8069 1.86342L89.8069 0.00923576C90.2013 0.00821593 90.5952 0.00730387 90.9886 0.00637336C91.3863 0.00585973 91.7841 0.00623709 92.1767 0.00623711C92.2703 0.153822 92.3114 6.91023 92.2254 7.48527C91.8255 7.51207 91.4211 7.4943 90.9787 7.49699L90.9787 1.86342Z" fill="#F9F9F9" fill-opacity="0.5"/>
<path d="M54.8247 20.6325C53.7556 20.6344 52.6866 20.6365 51.6176 20.6387C51.4375 20.6391 51.2576 20.6439 51.0777 20.6467L51.058 20.6403C51.0705 20.5859 51.0788 20.5309 51.083 20.4754C51.085 19.9605 51.0827 19.4456 51.0867 18.9307C51.0871 18.8831 51.0363 18.8313 51.1423 18.7887C51.5481 18.763 51.9664 18.8086 52.3681 18.761C52.3681 18.1342 52.3681 17.5145 52.3675 16.8949C52.3675 16.8895 52.3589 16.8842 52.3543 16.8789L52.3737 16.8725C53.0196 16.8753 53.6655 16.8783 54.3114 16.8814C54.472 16.8752 54.633 16.8785 54.7932 16.891C54.8688 16.9292 54.8405 16.9688 54.8406 17.0064C54.8421 18.1875 54.8423 19.3686 54.8411 20.5498C54.8384 20.5778 54.8329 20.6055 54.8247 20.6325Z" fill="#F9F9F9" fill-opacity="0.5"/>
<path d="M115.888 1.87224C115.009 1.85259 114.129 1.86783 113.25 1.86351C112.92 1.86189 112.59 1.86338 112.238 1.86338C112.185 2.01482 112.17 2.17609 112.194 2.33418C112.184 2.49515 112.192 2.65621 112.192 2.81725L112.192 3.75573L110.984 3.75573C110.894 2.51551 110.88 1.27124 110.944 0.0294985C111.288 0.00101332 115.238 -0.00578918 115.85 0.0214566C115.911 0.0737372 115.88 0.129497 115.881 0.183798C115.883 0.689129 115.881 1.19449 115.883 1.69981C115.887 1.75548 115.896 1.81075 115.908 1.86528L115.888 1.87224Z" fill="#F9F9F9" fill-opacity="0.5"/>
<path d="M68.5322 11.2763C68.5246 11.2871 68.5103 11.2978 68.5103 11.3085C68.509 11.9073 68.5089 12.5062 68.5097 13.105C68.5097 13.1158 68.5235 13.1264 68.5309 13.1372L68.5117 13.1439C68.1214 13.1312 67.7318 13.126 67.3309 13.1481C67.3206 13.1771 67.3136 13.207 67.3099 13.2374C67.3141 13.8172 67.3195 14.397 67.326 14.9768C67.326 14.9816 67.3373 14.9868 67.3465 14.991C67.3561 14.9955 67.3694 14.9989 67.3963 15.0079C67.7578 15.0148 68.1346 15.0211 68.5117 15.0045L68.5307 15.011C68.5188 15.0656 68.5108 15.1209 68.5068 15.1765C68.5049 15.6815 68.5057 16.1866 68.5057 16.6916L68.5057 16.8623L66.0715 16.8623L66.0715 11.2841L68.5115 11.2695L68.5322 11.2763Z" fill="#F9F9F9" fill-opacity="0.5"/>
<path d="M152.088 9.35929L150.849 9.35929L150.849 5.66196C151.235 5.63757 154.76 5.62885 155.716 5.64983C155.816 6.25748 155.832 6.87522 155.761 7.4867C155.377 7.51255 154.981 7.49603 154.59 7.4987C154.174 7.50153 153.759 7.49938 153.343 7.49938L152.127 7.49938C152.083 7.65303 152.07 7.81355 152.09 7.97182C152.082 8.12737 152.088 8.28296 152.088 8.43854C152.088 8.58857 152.088 8.73859 152.088 8.88862C152.088 9.04312 152.088 9.19763 152.088 9.35929Z" fill="#F9F9F9" fill-opacity="0.5"/>
<path d="M99.7502 9.36889C100.574 9.38284 101.398 9.38396 102.222 9.36807L102.242 9.37502C102.23 9.42957 102.223 9.4848 102.219 9.54037C102.217 10.0558 102.219 10.5713 102.216 11.0868C102.216 11.1413 102.245 11.1969 102.17 11.2677L100.924 11.2677L100.924 13.1293L98.4535 13.1432L98.4339 13.1368C98.4464 13.0825 98.4548 13.0273 98.4589 12.9718C98.4609 12.4569 98.4585 11.9421 98.4626 11.4273C98.4629 11.3797 98.4122 11.3278 98.5185 11.2851C98.9242 11.2597 99.3424 11.3051 99.735 11.2584C99.7442 11.2402 99.7509 11.221 99.7547 11.2011C99.7556 10.6088 99.7555 10.0164 99.7545 9.42409C99.7545 9.40784 99.7387 9.39155 99.7302 9.3753L99.7502 9.36889Z" fill="#F9F9F9" fill-opacity="0.5"/>
<path d="M71.0313 0.014923L73.4658 0.0149231L73.4658 1.85371C73.1088 1.88169 72.7244 1.84754 72.3076 1.87565C72.2926 2.08484 72.2888 2.29461 72.2962 2.50417C72.293 2.7095 72.2955 2.91479 72.2955 3.12014L72.2955 3.75697L69.8611 3.75697L69.8611 1.88492C70.218 1.85693 70.6025 1.89117 71.0063 1.86393C71.0369 1.66108 71.0449 1.45569 71.03 1.25123C71.0361 1.04589 71.0314 0.84048 71.0314 0.635121L71.0313 0.014923Z" fill="#F9F9F9" fill-opacity="0.5"/>
<path d="M68.5105 11.2691C68.5234 11.209 68.5319 11.1481 68.5361 11.0869C68.5377 9.95904 68.538 8.8312 68.5372 7.70335L68.5372 7.51211L69.8088 7.51211C69.8382 7.30654 69.8462 7.09872 69.8327 6.89164C69.838 6.68609 69.8338 6.48042 69.8338 6.27485L69.8338 5.65152L70.9394 5.65152C71.0357 6.88414 71.0493 8.12139 70.98 9.35567C70.6182 9.38455 70.2334 9.35046 69.8216 9.37734C69.7972 9.5302 69.7908 9.6852 69.8024 9.83942C69.7977 10.0005 69.8013 10.1616 69.8013 10.3228L69.8013 11.2604L68.5313 11.276L68.5105 11.2691Z" fill="#F9F9F9" fill-opacity="0.5"/>
<path d="M56.02 26.2677C55.6431 26.2765 55.2662 26.278 54.8894 26.2673C54.8814 26.2234 54.8761 26.179 54.8735 26.1344C54.8727 24.3519 54.8728 22.5694 54.8736 20.7868C54.8765 20.7423 54.8825 20.6981 54.8915 20.6544C55.5289 20.6525 56.1663 20.6504 56.8036 20.6484C56.9826 20.6476 57.1615 20.6431 57.3404 20.6403L57.3601 20.6467C57.3516 20.663 57.3359 20.6792 57.3359 20.6955C57.3346 21.2832 57.3347 21.8709 57.336 22.4585C57.336 22.4748 57.3519 22.491 57.3604 22.5073L57.3409 22.5137C56.9293 22.4986 56.5181 22.5036 56.0968 22.5114C55.9969 22.5713 56.0396 22.6334 56.0394 22.6923C56.0364 23.8233 56.0375 24.9544 56.0365 26.0854C56.0364 26.1462 56.0257 26.2069 56.02 26.2677Z" fill="#F9F9F9" fill-opacity="0.5"/>
<path d="M87.3068 3.78268L89.7256 3.78268L89.7256 5.63087L88.4726 5.63087L88.4726 9.35342C88.0843 9.37973 87.7226 9.35893 87.385 9.36746C87.352 9.35817 87.338 9.35517 87.3276 9.3511C87.3173 9.34715 87.3034 9.34215 87.3034 9.33761C87.2981 7.51503 87.2938 5.6925 87.2903 3.86992C87.2932 3.84045 87.2987 3.81125 87.3068 3.78268Z" fill="#F9F9F9" fill-opacity="0.5"/>
<path d="M66.0636 3.78043L68.4795 3.78043L68.4795 5.63011L67.3235 5.63011C67.3057 5.83941 67.3009 6.0496 67.309 6.25945C67.3057 6.45948 67.3083 6.65944 67.3083 6.85947L67.3083 7.48076C67.0956 7.50149 66.8816 7.50745 66.668 7.49848C66.4727 7.5013 66.2767 7.49902 66.0636 7.49902L66.0636 3.78043Z" fill="#F9F9F9" fill-opacity="0.5"/>
<path d="M78.4861 13.1371C78.4983 13.0825 78.5065 13.0271 78.5106 12.9714C78.5126 12.466 78.5107 11.9606 78.5133 11.4552C78.5136 11.4009 78.4828 11.3452 78.5473 11.2904C78.7109 11.2758 78.8753 11.2719 79.0395 11.2789C79.9532 11.2778 80.8669 11.2775 81.7806 11.278C81.9457 11.2778 82.1108 11.2727 82.2759 11.2699L82.2956 11.2763C82.2872 11.2926 82.2714 11.3089 82.2714 11.3251C82.2702 11.9128 82.2702 12.5005 82.2716 13.0881C82.2716 13.1044 82.2874 13.1207 82.2959 13.1369L82.2755 13.1437C81.4987 13.124 80.7207 13.1372 79.9434 13.136C79.4644 13.1352 78.9841 13.124 78.5058 13.1439L78.4861 13.1371Z" fill="#F9F9F9" fill-opacity="0.5"/>
<path d="M157.101 1.86558C157.925 1.88032 158.749 1.88024 159.574 1.86545L159.594 1.87226C159.59 1.87759 159.581 1.88302 159.581 1.88835C159.581 2.50904 159.581 3.12974 159.581 3.75044C159.581 3.75576 159.59 3.76107 159.595 3.76639L159.574 3.77334C159.163 3.75719 158.752 3.76287 158.314 3.77088C158.263 3.92031 158.249 4.0791 158.273 4.2346C158.263 4.38981 158.271 4.54507 158.271 4.70036L158.271 5.61894C158.085 5.63296 157.899 5.63706 157.713 5.63134C157.532 5.63352 157.35 5.63188 157.156 5.63188C157.071 5.56898 157.109 5.50734 157.109 5.44841C157.106 4.31708 157.107 3.1857 157.106 2.05437C157.102 1.99326 157.093 1.93259 157.081 1.87254L157.101 1.86558Z" fill="#F9F9F9" fill-opacity="0.5"/>
<path d="M36.1453 0.0145263L37.3604 0.0145264L37.3604 3.76065C36.9758 3.76762 36.5835 3.76482 36.1935 3.76161C36.1774 3.7557 36.165 3.75193 36.1556 3.74743C36.1467 3.74314 36.1346 3.73811 36.1345 3.73339C36.1297 2.51733 36.1259 1.30133 36.1229 0.0852697C36.1271 0.0608688 36.1346 0.0370302 36.1453 0.0145263Z" fill="#F9F9F9" fill-opacity="0.5"/>
<path d="M74.7964 18.773C74.8087 18.7185 74.8169 18.6631 74.8209 18.6074C74.8228 18.0909 74.821 17.5744 74.8236 17.0579C74.8238 17.0036 74.7934 16.9478 74.8652 16.8861L77.2897 16.8725L77.3093 16.8789C77.3046 16.8842 77.2959 16.8895 77.2959 16.8949C77.2954 17.5155 77.2956 18.1361 77.2963 18.7568C77.2963 18.7621 77.305 18.7676 77.3096 18.7729L77.2892 18.7796C76.4648 18.7651 75.6404 18.7652 74.8161 18.7797L74.7964 18.773Z" fill="#F9F9F9" fill-opacity="0.5"/>
<path d="M113.394 16.8786C112.765 16.8585 112.136 16.875 111.507 16.87C111.328 16.8686 111.149 16.8698 110.949 16.8698L110.949 15.0167C111.341 15.0155 111.734 15.0144 112.126 15.0134C112.523 15.0128 112.921 15.0132 113.309 15.0132C113.439 15.0603 113.385 15.1127 113.385 15.1601C113.39 15.6756 113.387 16.1911 113.389 16.7066C113.393 16.7622 113.402 16.8174 113.414 16.8718L113.394 16.8786Z" fill="#F9F9F9" fill-opacity="0.5"/>
<path d="M134.64 1.86561C134.652 1.81122 134.661 1.756 134.665 1.70041C134.667 1.19599 134.665 0.691678 134.668 0.187264C134.668 0.132817 134.638 0.0770879 134.705 0.0155171C135.489 0.0155171 136.278 0.015459 137.068 0.0153809C137.148 0.62714 137.152 1.24585 137.08 1.85853L134.66 1.87243L134.64 1.86561Z" fill="#F9F9F9" fill-opacity="0.5"/>
<path d="M66.0619 0.0116881L68.5046 0.0116882C68.5067 0.624828 68.5057 1.23317 68.5051 1.85947C68.0976 1.86078 67.7054 1.86252 67.3132 1.86315C66.9151 1.86378 66.5169 1.86342 66.1365 1.86342C66.1066 1.85489 66.0928 1.85169 66.0824 1.84761C66.0722 1.84363 66.0586 1.83869 66.0585 1.83411C66.0532 1.25695 66.0489 0.67976 66.0455 0.102605C66.0484 0.0718863 66.0539 0.0415619 66.0619 0.0116881Z" fill="#F9F9F9" fill-opacity="0.5"/>
<path d="M52.3548 11.2761L51.1062 11.2612L51.1062 9.38344L52.3542 9.36899L52.3738 9.37539C52.3654 9.39167 52.3497 9.40791 52.3496 9.42419C52.3484 10.023 52.3484 10.6218 52.3498 11.2206C52.3498 11.2369 52.3656 11.2532 52.374 11.2695L52.3548 11.2761Z" fill="#F9F9F9" fill-opacity="0.5"/>
<path d="M164.54 3.75952L163.349 3.75952C163.262 3.13829 163.249 2.50973 163.31 1.8857C163.695 1.86308 164.089 1.87777 164.47 1.8763C164.493 1.88272 164.507 1.88576 164.517 1.88979C164.527 1.89374 164.541 1.89868 164.541 1.90315C164.547 2.48572 164.551 3.06828 164.555 3.65088C164.552 3.68731 164.547 3.72366 164.54 3.75952Z" fill="#F9F9F9" fill-opacity="0.5"/>
<path d="M145.809 3.76626C145.822 3.7119 145.831 3.65676 145.835 3.6012C145.837 3.08591 145.836 2.57061 145.836 2.05533L145.836 1.88318L147.041 1.88318C147.121 2.5057 147.125 3.13483 147.055 3.75836L145.83 3.77308L145.809 3.76626Z" fill="#F9F9F9" fill-opacity="0.5"/>
<path d="M132.146 11.2761L130.898 11.2612L130.898 9.38344L132.147 9.36899L132.166 9.37539C132.158 9.39167 132.142 9.40805 132.142 9.42433C132.14 10.0231 132.14 10.6218 132.142 11.2206C132.142 11.2369 132.158 11.2532 132.166 11.2695L132.146 11.2761Z" fill="#F9F9F9" fill-opacity="0.5"/>
<path d="M142.121 16.8786L140.898 16.8642C140.833 16.2507 140.833 15.6327 140.898 15.0193L142.121 15.0047L142.141 15.0115C142.128 15.0318 142.12 15.0539 142.115 15.0769C142.114 15.6535 142.114 16.2301 142.115 16.8066C142.12 16.8297 142.128 16.8517 142.141 16.8721L142.121 16.8786Z" fill="#F9F9F9" fill-opacity="0.5"/>
<path d="M138.373 11.2831L139.62 11.2831C139.62 11.8962 139.621 12.5046 139.619 13.1259C139.214 13.1424 138.821 13.133 138.438 13.1325C138.417 13.1261 138.403 13.1228 138.393 13.1187C138.383 13.1147 138.369 13.1096 138.369 13.1051C138.364 12.528 138.36 11.9511 138.357 11.3741C138.359 11.3434 138.365 11.3129 138.373 11.2831Z" fill="#F9F9F9" fill-opacity="0.5"/>
<path d="M132.143 7.50887L130.895 7.49265L130.895 5.6536C131.086 5.63426 131.284 5.64478 131.478 5.6431C131.676 5.64139 131.874 5.64269 132.062 5.64269C132.188 5.69112 132.136 5.74324 132.136 5.79086C132.141 6.30614 132.138 6.82143 132.14 7.33671C132.144 7.39226 132.152 7.44743 132.164 7.50192L132.143 7.50887Z" fill="#F9F9F9" fill-opacity="0.5"/>
<path d="M74.8164 11.2767C74.8037 11.3311 74.7951 11.3864 74.7908 11.4419C74.7889 11.9461 74.7907 12.4502 74.7881 12.9544C74.7879 13.0089 74.8167 13.0645 74.7522 13.1266L73.5846 13.1266C73.5051 12.5152 73.5005 11.897 73.5709 11.2846L74.7957 11.2699L74.8164 11.2767Z" fill="#F9F9F9" fill-opacity="0.5"/>
<path d="M152.093 22.5142L150.844 22.4987L150.844 20.6586L152.036 20.6586C152.137 20.6966 152.084 20.7487 152.085 20.7963C152.089 21.3115 152.087 21.8269 152.088 22.3421C152.093 22.3977 152.101 22.4528 152.113 22.5072L152.093 22.5142Z" fill="#F9F9F9" fill-opacity="0.5"/>
<path d="M23.7095 20.6539L24.9176 20.6539C24.9199 21.2669 24.9185 21.8752 24.9184 22.4944C24.5137 22.5156 24.1206 22.5028 23.7391 22.5036C23.7165 22.4971 23.7027 22.494 23.6923 22.4899C23.6822 22.486 23.6684 22.481 23.6684 22.4764C23.6631 21.905 23.6589 21.3336 23.6557 20.7621C23.6556 20.7297 23.6338 20.6956 23.7095 20.6539Z" fill="#F9F9F9" fill-opacity="0.5"/>
<path d="M167.056 9.37535L165.807 9.36063L165.807 7.51613L167.055 7.50168L167.075 7.50808C167.063 7.52843 167.055 7.55053 167.05 7.57351C167.049 8.1501 167.049 8.72664 167.05 9.30325C167.055 9.32626 167.063 9.34848 167.075 9.36881L167.056 9.37535Z" fill="#F9F9F9" fill-opacity="0.5"/>
<path d="M109.703 20.6473L108.454 20.6319L108.454 18.7916L109.647 18.7916C109.747 18.8296 109.695 18.8819 109.695 18.9294C109.699 19.4446 109.697 19.9599 109.699 20.4751C109.703 20.5307 109.711 20.5859 109.724 20.6403L109.703 20.6473Z" fill="#F9F9F9" fill-opacity="0.5"/>
<path d="M118.382 1.86588C118.394 1.81148 118.403 1.75632 118.407 1.70081C118.409 1.19704 118.408 0.693203 118.408 0.189437L118.408 0.0163268L119.619 0.0163269C119.72 0.0567935 119.669 0.108576 119.669 0.156178C119.673 0.67101 119.671 1.18597 119.673 1.70081C119.677 1.7563 119.685 1.81146 119.697 1.86588L119.678 1.87242C119.253 1.85843 118.827 1.85849 118.402 1.87256L118.382 1.86588Z" fill="#F9F9F9" fill-opacity="0.5"/>
<path d="M93.5137 0.014923L94.7109 0.0149231L94.7109 1.85998C94.3276 1.8673 93.9356 1.86424 93.5452 1.8612C93.4467 1.25 93.4361 0.628852 93.5137 0.014923Z" fill="#F9F9F9" fill-opacity="0.5"/>
<path d="M93.4477 9.36882C93.4599 9.31425 93.4681 9.25901 93.4722 9.20334C93.4741 8.69802 93.4723 8.19265 93.4749 7.68733C93.4751 7.63301 93.445 7.57723 93.5152 7.51626L94.744 7.50168L94.7637 7.50808C94.7512 7.5626 94.7428 7.6179 94.7386 7.67356C94.7367 8.17883 94.7385 8.68405 94.736 9.1893C94.7357 9.24363 94.7657 9.29943 94.6958 9.36037L93.4674 9.3755L93.4477 9.36882Z" fill="#F9F9F9" fill-opacity="0.5"/>
<path d="M58.5379 1.86563C58.5507 1.81127 58.5592 1.75613 58.5634 1.70056C58.5654 1.1964 58.5636 0.692177 58.5662 0.187964C58.5665 0.133461 58.5376 0.0778814 58.6021 0.0158081L59.7697 0.0158081C59.8492 0.627176 59.8538 1.24533 59.7835 1.85773L58.5587 1.87245L58.5379 1.86563Z" fill="#F9F9F9" fill-opacity="0.5"/>
<path d="M34.8509 1.85541L33.654 1.85541L33.654 0.0100809C34.0383 0.0031243 34.4304 0.00579689 34.8209 0.00899047C34.9183 0.620312 34.9284 1.24149 34.8509 1.85541Z" fill="#F9F9F9" fill-opacity="0.5"/>
<path d="M167.056 11.2695C167.068 11.2491 167.076 11.2269 167.08 11.2039C167.082 10.6162 167.082 10.0285 167.08 9.44077C167.076 9.41783 167.068 9.39567 167.056 9.37521L167.076 9.36867C167.468 9.38277 167.86 9.3827 168.252 9.36853L168.272 9.37535C168.267 9.38067 168.259 9.38597 168.259 9.39129C168.258 10.012 168.258 10.6327 168.259 11.2534C168.259 11.2587 168.268 11.264 168.272 11.2693L168.252 11.276C167.86 11.2619 167.468 11.262 167.076 11.2762L167.056 11.2695Z" fill="#F9F9F9" fill-opacity="0.5"/>
<path d="M44.9541 24.3886L46.0064 24.3886C46.0909 25.0087 46.1037 25.6357 46.0447 26.2585C45.8704 26.2764 45.695 26.2813 45.5199 26.2731C45.3381 26.2761 45.1556 26.2737 44.9909 26.2737C44.9611 26.2652 44.9472 26.262 44.9369 26.2579C44.9267 26.2539 44.9131 26.249 44.913 26.2444C44.9077 25.6619 44.9035 25.0793 44.9004 24.4967C44.9003 24.4643 44.8784 24.4304 44.9541 24.3886Z" fill="#F9F9F9" fill-opacity="0.5"/>
<path d="M113.395 7.50788L112.245 7.49207L112.245 5.64716C112.604 5.63822 112.963 5.64235 113.32 5.64552C113.438 5.69051 113.386 5.7426 113.386 5.79014C113.391 6.30537 113.388 6.82063 113.39 7.33586C113.394 7.39141 113.403 7.44666 113.415 7.50107L113.395 7.50788Z" fill="#F9F9F9" fill-opacity="0.5"/>
<path d="M53.5693 11.2762C53.5571 11.3306 53.5489 11.3858 53.5448 11.4413C53.5429 11.945 53.5436 12.4488 53.5436 12.9525L53.5436 13.1258L52.4318 13.1258C52.3316 13.0852 52.3822 13.0334 52.3819 12.9858C52.3778 12.471 52.3801 11.9561 52.3782 11.4413C52.3742 11.3858 52.3661 11.3306 52.354 11.2762L52.3733 11.2697C52.7654 11.2838 53.1575 11.2837 53.5496 11.2695L53.5693 11.2762Z" fill="#F9F9F9" fill-opacity="0.5"/>
<path d="M34.8984 7.50095C34.9111 7.44658 34.9197 7.39131 34.9239 7.33574C34.9259 6.8316 34.9251 6.32743 34.9251 5.82328L34.9251 5.65112L36.0304 5.65112C36.1098 6.26236 36.1146 6.88036 36.0445 7.49263L34.9192 7.50776L34.8984 7.50095Z" fill="#F9F9F9" fill-opacity="0.5"/>
<path d="M26.1211 7.50784L24.9721 7.49203L24.9721 5.64712C25.331 5.63819 25.6897 5.64233 26.0464 5.64549C26.1648 5.69049 26.1126 5.74255 26.113 5.79011C26.1172 6.30533 26.1148 6.8206 26.1167 7.33583C26.1208 7.39137 26.1292 7.44663 26.1416 7.50103L26.1211 7.50784Z" fill="#F9F9F9" fill-opacity="0.5"/>
<path d="M159.595 3.76648L160.744 3.78229L160.744 5.62735C160.385 5.63628 160.027 5.63201 159.67 5.62885C159.551 5.58385 159.604 5.53177 159.603 5.48422C159.599 4.96899 159.601 4.45373 159.6 3.9385C159.595 3.88295 159.587 3.82784 159.575 3.77343L159.595 3.76648Z" fill="#F9F9F9" fill-opacity="0.5"/>
<path d="M32.4261 3.76648L33.5752 3.78229L33.5752 5.62734C33.2163 5.63628 32.8576 5.632 32.5009 5.62884C32.3824 5.58384 32.4346 5.53178 32.4342 5.48422C32.4301 4.969 32.4324 4.45373 32.4305 3.9385C32.4264 3.88295 32.4181 3.82784 32.4057 3.77343L32.4261 3.76648Z" fill="#F9F9F9" fill-opacity="0.5"/>
<path d="M142.12 15.0046C142.133 14.95 142.141 14.8946 142.145 14.8389C142.147 14.3336 142.145 13.8284 142.148 13.3231C142.148 13.2687 142.118 13.213 142.188 13.1522L143.317 13.1373L143.337 13.1437C143.328 13.16 143.312 13.1762 143.312 13.1925C143.311 13.7801 143.311 14.3678 143.313 14.9555C143.313 14.9718 143.328 14.988 143.337 15.0043L143.316 15.0111C142.924 14.997 142.532 14.9969 142.14 15.0111L142.12 15.0046Z" fill="#F9F9F9" fill-opacity="0.5"/>
<path d="M130.819 14.9973L129.734 14.9973C129.655 14.3878 129.643 13.772 129.699 13.1602C129.874 13.1434 130.049 13.1388 130.225 13.1466C130.406 13.1437 130.589 13.1459 130.754 13.1459C130.783 13.1547 130.797 13.158 130.807 13.1622C130.817 13.1663 130.83 13.1712 130.83 13.1759C130.835 13.7584 130.839 14.341 130.842 14.9236C130.838 14.949 130.83 14.9738 130.819 14.9973Z" fill="#F9F9F9" fill-opacity="0.5"/>
<path d="M79.8031 7.50116L80.9521 7.51697L80.9521 9.36202C80.5933 9.37095 80.2346 9.36681 79.8779 9.36365C79.7595 9.31865 79.8117 9.26644 79.8112 9.2189C79.8071 8.70366 79.8095 8.18855 79.8075 7.67331C79.8034 7.61777 79.795 7.56252 79.7826 7.50811L79.8031 7.50116Z" fill="#F9F9F9" fill-opacity="0.5"/>
<path d="M87.3294 13.1532L88.4268 13.1532L88.4268 14.9951C88.077 15.0098 87.7172 15.0003 87.3603 14.9996C87.2623 14.3883 87.252 13.7672 87.3294 13.1532Z" fill="#F9F9F9" fill-opacity="0.5"/>
<path d="M159.574 1.86566C159.587 1.8113 159.595 1.75615 159.6 1.7006C159.602 1.19644 159.6 0.692277 159.602 0.188131C159.603 0.133617 159.574 0.0779566 159.638 0.0158386L160.706 0.0158386C160.786 0.627071 160.79 1.24507 160.72 1.85735L159.595 1.87248L159.574 1.86566Z" fill="#F9F9F9" fill-opacity="0.5"/>
<path d="M100.927 16.8788L99.7777 16.863L99.7777 15.0181C100.137 15.0091 100.495 15.0133 100.852 15.0164C100.97 15.0614 100.918 15.1135 100.919 15.1611C100.923 15.6763 100.92 16.1915 100.922 16.7068C100.926 16.7623 100.935 16.8176 100.947 16.872L100.927 16.8788Z" fill="#F9F9F9" fill-opacity="0.5"/>
<path d="M123.321 1.85773L122.224 1.85773L122.224 0.0163582C122.573 -0.0057845 122.934 0.0135581 123.287 0.00531739C123.389 0.618262 123.4 1.24178 123.321 1.85773Z" fill="#F9F9F9" fill-opacity="0.5"/>
<path d="M133.363 7.50843C133.356 7.51916 133.341 7.52987 133.341 7.5406C133.34 8.13932 133.34 8.73814 133.341 9.33686C133.341 9.34762 133.354 9.35827 133.362 9.36903L133.343 9.37571C132.95 9.36161 132.558 9.36154 132.166 9.37571L132.147 9.3693C132.159 9.33165 132.167 9.29298 132.171 9.25385C132.173 8.71063 132.173 8.16739 132.171 7.62416C132.166 7.58495 132.157 7.5463 132.144 7.50898L132.165 7.50203C132.557 7.51512 132.95 7.51581 133.343 7.50162L133.363 7.50843Z" fill="#F9F9F9" fill-opacity="0.5"/>
<path d="M140.823 20.6472L139.674 20.6314L139.674 18.7863C140.033 18.7774 140.392 18.7815 140.748 18.7847C140.867 18.8297 140.815 18.8818 140.815 18.9293C140.819 19.4445 140.817 19.9598 140.819 20.475C140.823 20.5306 140.831 20.5858 140.844 20.6402L140.823 20.6472Z" fill="#F9F9F9" fill-opacity="0.5"/>
<path d="M160.772 26.2825L159.643 26.2673C159.573 26.2066 159.603 26.1509 159.603 26.0965C159.6 25.5801 159.602 25.0636 159.6 24.5473C159.596 24.4916 159.588 24.4363 159.576 24.3817L159.595 24.3751L160.765 24.3911L160.765 24.5612C160.765 25.0776 160.765 25.5939 160.767 26.1103C160.771 26.166 160.779 26.2213 160.792 26.2758L160.772 26.2825Z" fill="#F9F9F9" fill-opacity="0.5"/>
<path d="M118.426 24.3896L119.606 24.3896C119.688 24.4136 119.671 24.4428 119.671 24.4696C119.672 25.0527 119.672 25.6357 119.671 26.2188C119.668 26.236 119.662 26.2527 119.654 26.2681L118.476 26.2681C118.392 26.2435 118.409 26.2143 118.409 26.1876C118.408 25.6047 118.408 25.0217 118.409 24.4389C118.412 24.4217 118.418 24.4052 118.426 24.3896Z" fill="#F9F9F9" fill-opacity="0.5"/>
<path d="M145.854 22.5C145.848 22.0787 145.84 21.6575 145.838 21.2363C145.837 21.0424 145.849 20.8486 145.856 20.6548L147.034 20.6548C147.118 20.6795 147.1 20.7086 147.1 20.7353C147.101 21.3072 147.101 21.879 147.1 22.4509C147.097 22.4681 147.091 22.4848 147.082 22.5002C146.673 22.5093 146.263 22.5091 145.854 22.5Z" fill="#F9F9F9" fill-opacity="0.5"/>
<path d="M39.8619 15.0191C39.8676 15.4403 39.8761 15.8615 39.8779 16.2828C39.8787 16.4766 39.8666 16.6704 39.8603 16.8643C39.4507 16.873 39.0411 16.8742 38.6316 16.8636C38.6261 16.4092 38.6184 15.9548 38.6161 15.5004C38.6153 15.3399 38.6275 15.1793 38.6337 15.0188C39.0431 15.0098 39.4526 15.01 39.8619 15.0191Z" fill="#F9F9F9" fill-opacity="0.5"/>
<path d="M122.149 22.4994L120.93 22.4994C120.894 22.2975 120.885 22.0921 120.904 21.8882C120.896 21.6831 120.902 21.4781 120.902 21.273L120.902 20.6474C120.462 20.6289 120.052 20.6402 119.644 20.6381C119.248 20.636 118.853 20.6377 118.491 20.6377C118.389 20.6043 118.41 20.5751 118.41 20.5485C118.408 19.9832 118.408 19.4178 118.409 18.8525C118.412 18.8299 118.418 18.8078 118.427 18.7866L119.59 18.7866C119.759 18.7286 119.702 18.6703 119.702 18.6175C119.707 18.1012 119.705 17.5848 119.705 17.0685L119.705 16.8927C120.076 16.868 120.436 16.885 120.826 16.882C120.913 17.0359 120.857 17.1898 120.867 17.3422C120.877 17.5031 120.869 17.6641 120.869 17.8251L120.869 18.7622C121.294 18.804 121.712 18.7628 122.108 18.7888C122.196 18.8187 122.164 18.854 122.164 18.8857C122.166 20.0627 122.166 21.2396 122.165 22.4165C122.162 22.4446 122.157 22.4723 122.149 22.4994Z" fill="#F9F9F9" fill-opacity="0.5"/>
<path d="M123.412 13.1514C123.822 13.1422 124.233 13.1414 124.643 13.152C124.651 13.1903 124.656 13.2291 124.659 13.2681C124.659 14.4282 124.659 15.5882 124.658 16.7483C124.656 16.7873 124.65 16.826 124.641 16.8641L122.26 16.8641C122.177 16.2509 122.171 15.6304 122.244 15.0159L123.294 15.0159C123.445 14.9575 123.392 14.8997 123.393 14.8467C123.397 14.3369 123.395 13.8271 123.396 13.3173C123.396 13.262 123.407 13.2067 123.412 13.1514Z" fill="#F9F9F9" fill-opacity="0.5"/>
</g>
<defs>
<clipPath id="clip0_1337:17240">
<rect width="28.1466" height="192" fill="white" transform="translate(192) rotate(90)"/>
</clipPath>
</defs>
</svg>
