<svg width="54" height="54" viewBox="0 0 54 54" fill="none" xmlns="http://www.w3.org/2000/svg">
<g clip-path="url(#clip0_2328_14322)">
<path d="M27 54C41.9117 54 54 41.9117 54 27C54 12.0883 41.9117 0 27 0C12.0883 0 0 12.0883 0 27C0 41.9117 12.0883 54 27 54Z" fill="#303030"/>
<g opacity="0.4">
<path opacity="0.4" d="M27 1.63421C32.8674 1.63309 38.5537 3.66643 43.09 7.38778C47.6262 11.1091 50.7319 16.2882 51.8777 22.0427C53.0235 27.7971 52.1386 33.7708 49.3738 38.946C46.609 44.1211 42.1353 48.1775 36.715 50.424C31.2947 52.6705 25.2632 52.9681 19.6481 51.266C14.0329 49.564 9.1817 45.9677 5.92089 41.0899C2.66008 36.212 1.19146 30.3544 1.76527 24.5151C2.33908 18.6759 4.91981 13.2162 9.06775 9.06638C11.4168 6.7033 14.2113 4.82966 17.2893 3.55392C20.3674 2.27818 23.668 1.62568 27 1.63421ZM27 -0.00463867C21.6598 -0.00463866 16.4396 1.57893 11.9994 4.5458C7.55927 7.51267 4.09863 11.7296 2.05511 16.6633C0.0115902 21.597 -0.523004 27.0259 0.518929 32.2634C1.56086 37.5009 4.13252 42.3119 7.9087 46.0878C11.6849 49.8638 16.496 52.4351 21.7336 53.4768C26.9712 54.5184 32.4 53.9835 37.3336 51.9396C42.2672 49.8958 46.4839 46.4349 49.4505 41.9946C52.4171 37.5542 54.0003 32.3339 54 26.9937C53.9996 19.8332 51.1547 12.966 46.0913 7.9029C41.0279 2.83977 34.1606 -0.00463869 27 -0.00463867Z" fill="#F9F9F9"/>
</g>
<path d="M12.6406 22.7618C12.5903 22.6137 12.5514 22.4619 12.5243 22.3079C12.4013 18.7335 12.4014 18.7335 15.4988 16.9505C18.8519 15.0215 22.218 13.1205 25.5449 11.1457C26.5774 10.5311 27.4558 10.5082 28.4702 11.1375C29.9698 12.0716 31.5152 12.9304 33.059 13.7908C33.8407 14.2283 34.2685 14.8396 34.2685 15.7443C34.2685 20.5674 34.257 25.3905 34.2832 30.2137C34.2832 31.0904 34.021 30.9872 33.372 30.7053C31.3628 29.8466 30.2844 28.6535 30.5335 26.205C30.8154 23.419 30.5598 20.5756 30.6138 17.7601C30.6319 16.8767 30.2549 16.4752 29.583 15.9573C27.8458 14.6168 26.384 14.6594 24.5026 15.8836C21.1085 18.0977 17.5096 19.9987 13.9943 22.0276C13.5879 22.2652 13.1716 22.475 12.6406 22.7618Z" fill="#FF6647"/>
<path d="M20.0791 31.1233C20.1446 31.0555 20.2159 30.9935 20.2921 30.9381C23.3191 29.0256 23.3175 29.0272 26.4264 30.8152C28.7043 32.1263 31.0151 33.3915 33.2522 34.7632C34.0142 35.2286 34.5354 35.1123 35.3187 34.791C37.3558 33.9552 38.0261 32.6605 37.9163 30.4202C37.6967 25.9069 37.8508 21.3755 37.8508 16.5999C39.0635 17.2849 40.0779 17.8749 41.1104 18.4321C41.6021 18.7009 41.507 19.1433 41.507 19.5563C41.507 24.3827 41.4972 29.2108 41.5185 34.0372C41.5185 34.95 41.1727 35.5957 40.3975 36.0382C38.7406 36.9887 37.0789 37.9344 35.4253 38.8914C34.7533 39.2798 34.0814 39.37 33.3865 38.9668C29.0043 36.431 24.6231 33.8935 20.243 31.3544C20.1692 31.3118 20.1332 31.202 20.0791 31.1233Z" fill="#FF6647"/>
<path d="M27.0294 18.7698C27.0294 20.1333 27.0048 21.2575 27.0376 22.3752C27.0589 23.0881 26.4804 23.2094 26.0543 23.4569C23.1257 25.1613 20.2053 26.8804 17.2373 28.5127C16.4081 28.97 16.2311 29.5075 16.1245 30.4056C15.8705 32.5197 16.5818 33.7308 18.5484 34.724C22.2047 36.5709 25.6905 38.7588 29.2451 40.8106C29.6467 41.0417 30.0302 41.3023 30.4235 41.5579C30.3317 41.7087 30.3071 41.8103 30.2432 41.848C27.0917 43.795 27.0917 43.7933 23.8648 41.9283C20.5609 40.0174 17.2685 38.082 13.9383 36.2169C12.8895 35.6302 12.4486 34.8731 12.4961 33.6784C12.565 31.9641 12.5338 30.2368 12.4961 28.5258C12.483 27.7507 12.66 27.0673 13.3434 26.6723C17.8322 24.0682 22.3276 21.4853 27.0294 18.7698Z" fill="#FF6647"/>
<g clip-path="url(#clip1_2328_14322)">
<path d="M27 54C41.9117 54 54 41.9117 54 27C54 12.0883 41.9117 0 27 0C12.0883 0 0 12.0883 0 27C0 41.9117 12.0883 54 27 54Z" fill="#303030"/>
<g opacity="0.4">
<path opacity="0.4" d="M27 1.63299C32.8664 1.63256 38.5516 3.66618 43.0868 7.38737C47.622 11.1086 50.7266 16.2871 51.8718 22.0407C53.017 27.7943 52.1319 33.767 49.3673 38.9411C46.6026 44.1153 42.1295 48.1708 36.71 50.4168C31.2905 52.6627 25.2599 52.9601 19.6458 51.2583C14.0316 49.5565 9.1811 45.9608 5.92076 41.0838C2.66043 36.2067 1.19192 30.3501 1.76545 24.5118C2.33898 18.6734 4.91906 13.2145 9.0661 9.06516C11.4153 6.70189 14.2101 4.82813 17.2885 3.55238C20.3669 2.27663 23.6677 1.62424 27 1.63299ZM27 -0.00585938C21.66 -0.00585934 16.44 1.57758 11.9999 4.54423C7.55989 7.51089 4.09924 11.7275 2.05558 16.6609C0.0119162 21.5943 -0.522965 27.023 0.518569 32.2604C1.5601 37.4978 4.13128 42.3087 7.90696 46.0849C11.6827 49.861 16.4933 52.4328 21.7305 53.4749C26.9678 54.5171 32.3965 53.9829 37.3302 51.9398C42.2638 49.8968 46.4809 46.4366 49.4481 41.9969C52.4153 37.5572 53.9993 32.3374 54 26.9974C54.0004 23.4515 53.3024 19.9401 51.9457 16.664C50.589 13.3878 48.6003 10.4109 46.093 7.90342C43.5858 5.39589 40.6092 3.40679 37.3332 2.04971C34.0572 0.692624 30.546 -0.0058594 27 -0.00585938Z" fill="#F9F9F9"/>
</g>
<path d="M32.7948 20.3086V32.1051L30.1513 30.5826V21.836L26.9998 20.0169L24.3563 18.4879L21.2032 16.6704L12.2567 21.836V32.169L21.2032 37.3346V40.3861L9.61328 33.6915V20.3086L21.2032 13.6123L26.9998 16.9605L29.6433 18.4879L32.7948 20.3086Z" fill="#FF6647"/>
<path d="M44.3867 20.3086V33.6915L32.7952 40.3861L27.0002 37.0396L24.3617 35.5171L21.2036 33.6915V21.8934L23.8487 23.4224V32.169L27.0002 33.9881L29.6388 35.5171L32.7952 37.3346L41.7433 32.169V21.836L32.7952 16.6704V13.6123L44.3867 20.3086Z" fill="#F9F9F9"/>
</g>
<g clip-path="url(#clip2_2328_14322)">
<path d="M27 53C41.9117 53 54 41.1355 54 26.5C54 11.8645 41.9117 0 27 0C12.0883 0 0 11.8645 0 26.5C0 41.1355 12.0883 53 27 53Z" fill="#303030"/>
<g opacity="0.4">
<path opacity="0.4" d="M27 1.6041C32.8675 1.60412 38.5534 3.60095 43.089 7.25435C47.6246 10.9078 50.7292 15.9917 51.8738 21.6399C53.0184 27.2881 52.1322 33.151 49.3662 38.2298C46.6002 43.3086 42.1255 47.2889 36.7046 49.4926C31.2837 51.6963 25.252 51.9869 19.6372 50.3151C14.0224 48.6432 9.172 45.1122 5.91238 40.3238C2.65276 35.5354 1.18565 29.7858 1.76101 24.0548C2.33637 18.3237 4.9186 12.9657 9.06773 8.89382C11.4171 6.57523 14.2117 4.73708 17.2898 3.48579C20.3679 2.23449 23.6683 1.59492 27 1.6041ZM27 -0.00439453C21.6598 -0.00439452 16.4396 1.54985 11.9994 4.46177C7.55927 7.3737 4.09862 11.5125 2.05511 16.3549C0.0115902 21.1972 -0.523004 26.5256 0.518929 31.6661C1.56086 36.8066 4.13252 41.5285 7.9087 45.2345C11.6849 48.9405 16.496 51.4643 21.7336 52.4866C26.9712 53.5089 32.4 52.9839 37.3336 50.978C42.2671 48.972 46.4839 45.5752 49.4505 41.217C52.4171 36.8589 54.0003 31.7353 54 26.494C53.9995 19.466 51.1547 12.7261 46.0913 7.75671C41.0279 2.78734 34.1605 -0.00439454 27 -0.00439453Z" fill="#F9F9F9"/>
</g>
<path d="M24.9269 27.8559V27.8576L18.7452 31.3593L12.5635 27.8576V27.8559L18.7452 24.3542L24.9269 27.8559Z" fill="#E6E6E6"/>
<path d="M18.7452 31.3594V38.3644L12.5635 34.8627V27.8577L18.7452 31.3594Z" fill="#B3B3B3"/>
<path d="M24.9268 27.8577V34.8627L18.7451 38.3644V31.3594L24.9268 27.8577Z" fill="#999999"/>
<path d="M41.4351 27.8576L35.255 31.3593L29.0732 27.8576L35.255 24.3542L41.4351 27.8576Z" fill="#E6E6E6"/>
<path d="M35.255 31.3594V38.3644L29.0732 34.8627V27.8577L35.255 31.3594Z" fill="#B3B3B3"/>
<path d="M41.435 27.8577V34.8627L35.2549 38.3644V31.3594L41.435 27.8577Z" fill="#999999"/>
<path d="M33.1802 33.3956L27.0001 36.8973L20.8184 33.3956L27.0001 29.8923L33.1802 33.3956Z" fill="#E6E6E6"/>
<path d="M27.0001 36.8972V43.9022L20.8184 40.4005V33.3955L27.0001 36.8972Z" fill="#B3B3B3"/>
<path d="M33.1801 33.3955V40.4005L27 43.9022V36.8972L33.1801 33.3955Z" fill="#999999"/>
<path d="M33.1818 12.5994L27.0001 16.1027L20.8184 12.5994L27.0001 9.09766L33.1818 12.5994Z" fill="#E6E6E6"/>
<path d="M27.0001 16.1027V23.1077L20.8184 19.6044V12.5994L27.0001 16.1027Z" fill="#B3B3B3"/>
<path d="M33.1817 12.5994V19.6044L27 23.1077V16.1027L33.1817 12.5994Z" fill="#999999"/>
<path d="M24.9269 18.1374V18.139L18.7452 21.6407L12.5635 18.139V18.1374L18.7452 14.6357L24.9269 18.1374Z" fill="#E6E6E6"/>
<path d="M18.7452 21.6406V28.6456L12.5635 25.1423V18.1389L18.7452 21.6406Z" fill="#B3B3B3"/>
<path d="M24.9268 18.1389V25.1423L18.7451 28.6456V21.6406L24.9268 18.1389Z" fill="#999999"/>
<path d="M41.4351 18.1374V18.139L35.255 21.6407L29.0732 18.139V18.1374L35.255 14.6357L41.4351 18.1374Z" fill="#E6E6E6"/>
<path d="M35.255 21.6406V28.6456L29.0732 25.1423V18.1389L35.255 21.6406Z" fill="#B3B3B3"/>
<path d="M41.435 18.1389V25.1423L35.2549 28.6456V21.6406L41.435 18.1389Z" fill="#999999"/>
<path d="M33.1802 23.6755V23.6771L27.0001 27.1788L20.8184 23.6771V23.6755L27.0001 20.1738L33.1802 23.6755Z" fill="#FF6647"/>
<path d="M27.0001 27.1789V34.184L20.8184 30.6806V23.6772L27.0001 27.1789Z" fill="#EA6142"/>
<path d="M33.1801 23.6772V30.6806L27 34.184V27.1789L33.1801 23.6772Z" fill="#D64129"/>
</g>
<g clip-path="url(#clip3_2328_14322)">
<path d="M27 54C41.9117 54 54 41.9117 54 27C54 12.0883 41.9117 0 27 0C12.0883 0 0 12.0883 0 27C0 41.9117 12.0883 54 27 54Z" fill="#303030"/>
<g opacity="0.4">
<path opacity="0.4" d="M27 1.63323C32.8666 1.63243 38.5519 3.66573 43.0873 7.38671C47.6228 11.1077 50.7278 16.2861 51.8733 22.0397C53.0188 27.7933 52.1339 33.7661 49.3694 38.9405C46.605 44.1148 42.1319 48.1705 36.7124 50.4167C31.2929 52.6628 25.2623 52.9604 19.648 51.2587C14.0337 49.5571 9.1831 45.9614 5.92264 41.0843C2.66219 36.2073 1.1936 30.3506 1.76709 24.5122C2.34058 18.6738 4.92066 13.2148 9.06776 9.0654C11.4168 6.70233 14.2113 4.82868 17.2894 3.55294C20.3675 2.2772 23.668 1.6247 27 1.63323ZM27 -0.00561523C21.6599 -0.00561522 16.4396 1.57795 11.9995 4.54482C7.5593 7.51169 4.09863 11.7286 2.05511 16.6623C0.0115902 21.596 -0.523004 27.0249 0.518929 32.2624C1.56086 37.5 4.13254 42.3109 7.90872 46.0868C11.6849 49.8628 16.496 52.4342 21.7336 53.4758C26.9712 54.5174 32.4 53.9825 37.3336 51.9387C42.2672 49.8948 46.4839 46.4339 49.4505 41.9936C52.4171 37.5532 54.0004 32.3329 54 26.9927C53.9996 19.8322 51.1548 12.965 46.0913 7.90192C41.0279 2.83879 34.1606 -0.00561525 27 -0.00561523Z" fill="#F9F9F9"/>
</g>
<path opacity="0.1" d="M43.2767 36.3988L26.9997 45.7959L10.7227 36.3988L26.9997 27L43.2767 36.3988Z" fill="#FF6647"/>
<path opacity="0.28" d="M43.2767 31.6986L26.9997 41.0957V41.0974L10.7227 31.6986L26.9997 22.2998L43.2767 31.6986Z" fill="#FF6647"/>
<path opacity="0.45" d="M43.2767 27.0001L26.9997 36.3973V36.3989L10.7227 27.0001L26.9997 17.6013L43.2767 27.0001Z" fill="#FF6647"/>
<path opacity="0.63" d="M43.2767 22.2997L26.9997 31.6985L10.7227 22.2997L26.9997 12.9026L43.2767 22.2997Z" fill="#FF6647"/>
<path opacity="0.8" d="M43.2767 17.6012L26.9997 26.9983V27L10.7227 17.6012L26.9997 8.20239L43.2767 17.6012Z" fill="#FF6647"/>
</g>
</g>
<defs>
<clipPath id="clip0_2328_14322">
<rect width="54" height="54" fill="white"/>
</clipPath>
<clipPath id="clip1_2328_14322">
<rect width="54" height="54" fill="white"/>
</clipPath>
<clipPath id="clip2_2328_14322">
<rect width="54" height="53" fill="white"/>
</clipPath>
<clipPath id="clip3_2328_14322">
<rect width="54" height="54" fill="white"/>
</clipPath>
</defs>
</svg>
