<svg width="" height="" viewBox="0 0 337 329" fill="none" xmlns="http://www.w3.org/2000/svg" preserveAspectRatio="none">
    <circle cx="168.806" cy="164.5" r="77.0741" stroke="white" stroke-opacity="0.3"/>
    <circle cx="168.806" cy="164.5" r="112.037" stroke="white" stroke-opacity="0.3"/>
    <circle cx="168.807" cy="164.5" r="147" stroke="white" stroke-opacity="0.3"/>
    <path d="M198.494 185.907L204 183.129V149.584L198.494 152.363V185.907Z" fill="url(#paint0_linear_1_2)"/>
    <path d="M180.088 195.236L185.519 192.457V158.913L180.088 161.692V195.236Z" fill="url(#paint1_linear_1_2)"/>
    <path d="M170.886 199.934L176.317 197.155V163.611L170.886 166.323V199.934Z" fill="url(#paint2_linear_1_2)"/>
    <path d="M189.291 190.605L194.722 187.826V154.215L189.291 156.994V190.605Z" fill="url(#paint3_linear_1_2)"/>
    <path d="M134 177.571V183.062L167.039 200L167.114 194.509L134 177.571Z" fill="url(#paint4_linear_1_2)"/>
    <path d="M134.151 158.847L134.075 164.405L167.19 181.342V175.784L134.151 158.847Z" fill="url(#paint5_linear_1_2)"/>
    <path d="M134.151 149.518V155.076L167.19 172.013L167.265 166.456L134.151 149.518Z" fill="url(#paint6_linear_1_2)"/>
    <path d="M134.075 168.242V173.733L167.114 190.671L167.19 185.113L134.075 168.242Z" fill="url(#paint7_linear_1_2)"/>
    <path d="M174.431 132.779L169 130L135.81 146.739L141.317 149.518L174.431 132.779Z" fill="url(#paint8_linear_1_2)"/>
    <path d="M192.912 142.108L187.405 139.395L154.216 156.134L159.722 158.913L192.912 142.108Z" fill="url(#paint9_linear_1_2)"/>
    <path d="M202.114 146.805L196.683 144.026L163.494 160.766L168.925 163.544L202.114 146.805Z" fill="url(#paint10_linear_1_2)"/>
    <path d="M183.634 137.476L178.203 134.698L145.013 151.437L150.52 154.215L183.634 137.476Z" fill="url(#paint11_linear_1_2)"/>
    <circle cx="75.9362" cy="101.676" r="2.73148" fill="#FF6647"/>
    <circle cx="127.288" cy="23.0093" r="2.73148" fill="#8B8B8B"/>
    <circle cx="195.575" cy="309.268" r="2.73148" fill="#8B8B8B"/>
    <circle cx="261.677" cy="227.87" r="2.73148" fill="#8B8B8B"/>
    <circle cx="143.131" cy="237.157" r="2.73148" fill="#8B8B8B"/>
    <circle cx="199.945" cy="94.0278" r="2.73148" fill="#8B8B8B"/>
    <path d="M57.9881 237.444C57.9881 247.099 50.1614 254.926 40.5066 254.926C30.8519 254.926 23.0251 247.099 23.0251 237.444C23.0251 227.79 30.8519 219.963 40.5066 219.963C50.1614 219.963 57.9881 227.79 57.9881 237.444Z" fill="black"/>
    <path d="M57.4881 237.444C57.4881 246.823 49.8852 254.426 40.5066 254.426C31.128 254.426 23.5251 246.823 23.5251 237.444C23.5251 228.066 31.128 220.463 40.5066 220.463C49.8852 220.463 57.4881 228.066 57.4881 237.444Z" stroke="white" stroke-opacity="0.3"/>
    <path d="M48.855 235.652C49.2186 233.232 47.3719 231.93 44.8773 231.061L45.6956 227.782L43.701 227.288L42.9055 230.476C42.3771 230.345 41.8429 230.226 41.3087 230.101L42.1043 226.89L40.1155 226.39L39.2972 229.669C38.8596 229.572 38.4335 229.47 38.0243 229.368L35.274 228.68L34.7399 230.811C34.7399 230.811 36.223 231.146 36.1889 231.169C36.4608 231.202 36.7094 231.338 36.883 231.55C37.0567 231.762 37.1418 232.032 37.1208 232.305L36.1889 236.039L36.3992 236.107L36.1832 236.056L34.882 241.284C34.8232 241.468 34.6941 241.621 34.5228 241.71C34.3514 241.8 34.1517 241.818 33.9671 241.761C33.9671 241.789 32.5181 241.397 32.5181 241.397L31.5237 243.67L34.1205 244.318C34.6035 244.437 35.0809 244.568 35.5468 244.687L34.7172 248L36.7117 248.5L37.53 245.216L39.121 245.631L38.2914 248.943L40.2859 249.443L41.1156 246.136C44.525 246.778 47.0764 246.517 48.1504 243.443C49.0198 240.965 48.1049 239.533 46.3206 238.601C47.6219 238.278 48.6049 237.42 48.855 235.652ZM44.3091 242.039C43.6897 244.517 39.5188 243.176 38.1664 242.846L39.2631 238.454C40.6155 238.789 44.9512 239.46 44.3091 242.039ZM44.9228 235.613C44.3545 237.885 40.8883 236.749 39.7631 236.442L40.7576 232.464C41.8827 232.737 45.5081 233.266 44.9228 235.613V235.613Z" stroke="white" stroke-width="0.5" stroke-miterlimit="10"/>
    <path d="M287.353 116.426C287.353 126.081 279.526 133.907 269.871 133.907C260.217 133.907 252.39 126.081 252.39 116.426C252.39 106.771 260.217 98.9444 269.871 98.9444C279.526 98.9444 287.353 106.771 287.353 116.426Z" fill="black"/>
    <path d="M286.853 116.426C286.853 125.805 279.25 133.407 269.871 133.407C260.493 133.407 252.89 125.805 252.89 116.426C252.89 107.047 260.493 99.4444 269.871 99.4444C279.25 99.4444 286.853 107.047 286.853 116.426Z" stroke="white" stroke-opacity="0.3"/>
    <path d="M268.241 122.496L266.605 128.424L276.7 120.212L268.241 122.496Z" stroke="white" stroke-width="0.5" stroke-miterlimit="10"/>
    <path d="M270.72 113.518L268.62 121.123L277.082 118.83L270.72 113.518Z" stroke="white" stroke-width="0.5" stroke-miterlimit="10"/>
    <path d="M273.141 104.75L270.72 113.518L277.082 118.83L273.141 104.75Z" stroke="white" stroke-width="0.5" stroke-miterlimit="10"/>
    <path d="M268.241 122.496L266.605 128.424L262.15 116.195L268.241 122.496Z" stroke="white" stroke-width="0.5" stroke-miterlimit="10"/>
    <path d="M270.72 113.518L268.62 121.123L262.532 114.813L270.72 113.518Z" stroke="white" stroke-width="0.5" stroke-miterlimit="10"/>
    <path d="M273.141 104.751L270.72 113.518L262.531 114.813L273.141 104.751Z" stroke="white" stroke-width="0.5" stroke-miterlimit="10"/>
    <path d="M1 9V1H9" stroke="#F9F9F9" stroke-opacity="0.5" stroke-miterlimit="10"/>
    <path d="M328 1H336V9" stroke="#F9F9F9" stroke-opacity="0.5" stroke-miterlimit="10"/>
    <path d="M336 320V328H328" stroke="#F9F9F9" stroke-opacity="0.5" stroke-miterlimit="10"/>
    <path d="M9 328H1V320" stroke="#F9F9F9" stroke-opacity="0.5" stroke-miterlimit="10"/>
    <defs>
        <linearGradient id="paint0_linear_1_2" x1="197.309" y1="152.782" x2="204.177" y2="186.686" gradientUnits="userSpaceOnUse">
            <stop stop-color="#FF6647"/>
            <stop offset="1" stop-color="#FF6647" stop-opacity="0"/>
        </linearGradient>
        <linearGradient id="paint1_linear_1_2" x1="178.864" y1="162.116" x2="185.732" y2="196.02" gradientUnits="userSpaceOnUse">
            <stop stop-color="#FF6647"/>
            <stop offset="1" stop-color="#FF6647" stop-opacity="0"/>
        </linearGradient>
        <linearGradient id="paint2_linear_1_2" x1="169.643" y1="166.796" x2="176.511" y2="200.7" gradientUnits="userSpaceOnUse">
            <stop stop-color="#FF6647"/>
            <stop offset="1" stop-color="#FF6647" stop-opacity="0"/>
        </linearGradient>
        <linearGradient id="paint3_linear_1_2" x1="188.082" y1="157.439" x2="194.949" y2="191.343" gradientUnits="userSpaceOnUse">
            <stop stop-color="#FF6647"/>
            <stop offset="1" stop-color="#FF6647" stop-opacity="0"/>
        </linearGradient>
        <linearGradient id="paint4_linear_1_2" x1="167.168" y1="193.543" x2="130.692" y2="180.612" gradientUnits="userSpaceOnUse">
            <stop stop-color="#FF6647"/>
            <stop offset="1" stop-color="#FF6647" stop-opacity="0"/>
        </linearGradient>
        <linearGradient id="paint5_linear_1_2" x1="167.278" y1="174.865" x2="130.802" y2="161.933" gradientUnits="userSpaceOnUse">
            <stop stop-color="#FF6647"/>
            <stop offset="1" stop-color="#FF6647" stop-opacity="0"/>
        </linearGradient>
        <linearGradient id="paint6_linear_1_2" x1="167.319" y1="165.521" x2="130.843" y2="152.589" gradientUnits="userSpaceOnUse">
            <stop stop-color="#FF6647"/>
            <stop offset="1" stop-color="#FF6647" stop-opacity="0"/>
        </linearGradient>
        <linearGradient id="paint7_linear_1_2" x1="167.235" y1="184.205" x2="130.759" y2="171.274" gradientUnits="userSpaceOnUse">
            <stop stop-color="#FF6647"/>
            <stop offset="1" stop-color="#FF6647" stop-opacity="0"/>
        </linearGradient>
        <linearGradient id="paint8_linear_1_2" x1="142.403" y1="150.386" x2="167.603" y2="123.658" gradientUnits="userSpaceOnUse">
            <stop stop-color="#FF6647"/>
            <stop offset="1" stop-color="#FF6647" stop-opacity="0"/>
        </linearGradient>
        <linearGradient id="paint9_linear_1_2" x1="160.828" y1="159.75" x2="186.027" y2="133.022" gradientUnits="userSpaceOnUse">
            <stop stop-color="#FF6647"/>
            <stop offset="1" stop-color="#FF6647" stop-opacity="0"/>
        </linearGradient>
        <linearGradient id="paint10_linear_1_2" x1="170.052" y1="164.423" x2="195.251" y2="137.695" gradientUnits="userSpaceOnUse">
            <stop stop-color="#FF6647"/>
            <stop offset="1" stop-color="#FF6647" stop-opacity="0"/>
        </linearGradient>
        <linearGradient id="paint11_linear_1_2" x1="151.608" y1="155.076" x2="176.808" y2="128.348" gradientUnits="userSpaceOnUse">
            <stop stop-color="#FF6647"/>
            <stop offset="1" stop-color="#FF6647" stop-opacity="0"/>
        </linearGradient>
    </defs>
</svg>
