<svg width="95" height="32" viewBox="0 0 95 32" fill="none" xmlns="http://www.w3.org/2000/svg">
<g clip-path="url(#clip0_2105:9198)">
<path d="M32 16C32 24.8366 24.8366 32 16 32C7.16345 32 0 24.8366 0 16C0 7.16345 7.16345 0 16 0C24.8366 0 32 7.16345 32 16Z" fill="url(#paint0_linear_2105:9198)"/>
<path fill-rule="evenodd" clip-rule="evenodd" d="M16 31.2C24.3947 31.2 31.2 24.3947 31.2 16C31.2 7.60527 24.3947 0.8 16 0.8C7.60527 0.8 0.8 7.60527 0.8 16C0.8 24.3947 7.60527 31.2 16 31.2ZM16 32C24.8366 32 32 24.8366 32 16C32 7.16345 24.8366 0 16 0C7.16345 0 0 7.16345 0 16C0 24.8366 7.16345 32 16 32Z" fill="url(#paint1_linear_2105:9198)"/>
<path d="M16.4309 12.144C16.1906 11.8498 15.888 11.6125 15.5449 11.4492C15.2018 11.286 14.8267 11.2008 14.4467 11.2H11.5105C11.5002 11.2004 11.4901 11.2029 11.4808 11.2074C11.4715 11.2118 11.4632 11.218 11.4564 11.2257C11.4485 11.2323 11.4421 11.2406 11.4376 11.2499C11.4332 11.2592 11.4308 11.2694 11.4307 11.2797V12.818C11.4305 12.8283 11.4328 12.8386 11.4373 12.848C11.4417 12.8573 11.4483 12.8655 11.4564 12.872C11.4629 12.8801 11.4711 12.8866 11.4805 12.8911C11.4898 12.8956 11.5001 12.8978 11.5105 12.8977H14.2898C14.4154 12.8986 14.5392 12.9276 14.6523 12.9823C14.7653 13.037 14.8648 13.1162 14.9434 13.2141L16.925 15.6552L18.1062 14.207L16.4309 12.144Z" fill="url(#paint2_linear_2105:9198)"/>
<path d="M25.5766 19.4395C25.5695 19.4315 25.5608 19.4251 25.551 19.4206C25.5413 19.4162 25.5307 19.4139 25.52 19.4137H22.7535C22.6268 19.4143 22.5016 19.3871 22.3864 19.3343C22.2713 19.2814 22.1691 19.2041 22.087 19.1077L20.1054 16.6665L18.9268 18.1147L20.5995 20.1777C20.84 20.4716 21.1426 20.7085 21.4858 20.8713C21.8289 21.0341 22.2039 21.1188 22.5837 21.1192H25.52C25.5411 21.1188 25.5613 21.1106 25.5766 21.0961C25.5921 21.0783 25.6004 21.0553 25.5998 21.0317V19.5038C25.6009 19.4801 25.5925 19.457 25.5766 19.4395Z" fill="url(#paint3_linear_2105:9198)"/>
<path d="M25.5766 11.2257C25.5615 11.2105 25.5414 11.2014 25.52 11.2H22.5837C22.2051 11.2002 21.8313 11.285 21.4897 11.4484C21.1482 11.6118 20.8475 11.8494 20.6098 12.144L18.515 14.7112L17.3338 16.1594L14.9431 19.1073C14.8613 19.2034 14.7595 19.2806 14.6449 19.3335C14.5302 19.3863 14.4054 19.4136 14.2791 19.4134H11.5101C11.4997 19.4133 11.4895 19.4155 11.4801 19.42C11.4707 19.4244 11.4625 19.431 11.4561 19.4391C11.4473 19.4473 11.4405 19.4573 11.436 19.4684C11.4315 19.4795 11.4296 19.4915 11.4303 19.5034V21.0314C11.4299 21.0433 11.4319 21.0552 11.4363 21.0663C11.4408 21.0774 11.4475 21.0874 11.4561 21.0957C11.463 21.103 11.4714 21.1089 11.4807 21.1129C11.49 21.1168 11.5 21.1189 11.5101 21.1188H14.4464C14.8262 21.1184 15.2012 21.0338 15.5443 20.871C15.8874 20.7082 16.1901 20.4713 16.4305 20.1774L18.515 17.6076L19.6963 16.1594L22.087 13.2141C22.1675 13.115 22.2691 13.0352 22.3844 12.9805C22.4997 12.9257 22.6259 12.8974 22.7535 12.8977H25.52C25.5307 12.8976 25.5413 12.8952 25.551 12.8908C25.5608 12.8864 25.5695 12.88 25.5766 12.872C25.584 12.865 25.5898 12.8566 25.5938 12.8474C25.5978 12.8381 25.5998 12.8281 25.5998 12.818V11.2797C25.5994 11.2594 25.5911 11.24 25.5766 11.2257Z" fill="url(#paint4_linear_2105:9198)"/>
<path d="M8.39341 21.0392C8.39321 21.0495 8.39089 21.0596 8.38665 21.069C8.38237 21.0783 8.37621 21.0868 8.36861 21.0937C8.36005 21.102 8.34993 21.1085 8.33877 21.1128C8.32761 21.1171 8.31573 21.119 8.30381 21.1186H6.47973C6.46937 21.1184 6.45917 21.1161 6.44977 21.1118C6.44033 21.1075 6.43189 21.1013 6.42493 21.0937C6.41725 21.0868 6.41109 21.0784 6.40677 21.069C6.40249 21.0596 6.40017 21.0495 6.39997 21.0392V11.2892C6.39949 11.2773 6.40145 11.2655 6.40577 11.2544C6.41005 11.2433 6.41657 11.2332 6.42493 11.2247C6.43193 11.2171 6.44037 11.211 6.44977 11.2067C6.45921 11.2025 6.46941 11.2002 6.47973 11.2H8.30377C8.31569 11.1995 8.32757 11.2015 8.33873 11.2057C8.34985 11.21 8.36001 11.2165 8.36857 11.2247C8.37689 11.2332 8.38337 11.2433 8.38761 11.2544C8.39189 11.2655 8.39385 11.2773 8.39341 11.2892V21.0392Z" fill="url(#paint5_linear_2105:9198)"/>
</g>
<path d="M45.9469 14.3926C45.9469 11.5631 43.9479 11.4223 41.8786 11.4223H38.5V20.8119H40.5553V17.4193H41.8786C43.9901 17.4193 45.9469 17.2081 45.9469 14.3926ZM43.8916 14.4208C43.8916 15.1387 43.596 15.4344 43.413 15.5047C43.0892 15.6455 42.2305 15.6033 41.8504 15.6033H40.5553V13.2383H41.8504C42.2727 13.2383 43.047 13.1961 43.4271 13.3509C43.596 13.4213 43.8916 13.7028 43.8916 14.4208Z" fill="white"/>
<path d="M49.2607 20.8119V11.4223H47.2054V20.8119H49.2607Z" fill="white"/>
<path d="M59.0523 20.8119L55.899 16.0397L58.9819 11.4223H56.6451L54.6461 14.5616L52.633 11.4223H50.268L53.3369 16.0397L50.1836 20.8119H52.5204L54.5898 17.5178L56.6873 20.8119H59.0523Z" fill="white"/>
<path d="M66.3467 12.5344V11.4223H59.2376V12.5344H62.1657V20.8119H63.4186V12.5344H66.3467Z" fill="white"/>
<path d="M72.6937 17.4052C72.6937 16.0115 72.5529 15.195 72.0039 14.646C71.4549 14.097 70.6666 13.8858 69.5685 13.8858C68.4564 13.8858 67.6681 14.097 67.1191 14.646C66.5701 15.195 66.4293 16.0115 66.4293 17.4052C66.4293 18.7988 66.5701 19.6153 67.1191 20.1643C67.6681 20.7133 68.4564 20.9245 69.5685 20.9245C70.6666 20.9245 71.4549 20.7133 72.0039 20.1643C72.5529 19.6153 72.6937 18.7988 72.6937 17.4052ZM71.483 17.4052C71.483 19.0522 71.3845 19.8405 69.5685 19.8405C67.7526 19.8405 67.6399 19.0522 67.6399 17.4052C67.6399 15.7581 67.7526 14.9698 69.5685 14.9698C71.3563 14.9698 71.483 15.7159 71.483 17.4052Z" fill="white"/>
<path d="M80.3392 20.8119L76.651 17.1236L80.3392 13.9985H78.6922L75.5389 16.6872V11H74.3423V20.8119H75.5389V17.5741L78.7063 20.8119H80.3392Z" fill="white"/>
<path d="M86.882 17.8134C86.882 15.4907 86.7413 13.8858 83.8836 13.8858C81.2511 13.8858 80.8569 15.3217 80.8569 17.4615C80.8569 19.559 81.2511 20.9245 83.9258 20.9245C85.2772 20.9245 86.7976 20.5585 86.7976 18.827H85.6714C85.6714 19.7842 84.7 19.8828 83.9539 19.8828C82.321 19.8828 82.0676 19.2493 82.0676 17.8134H86.882ZM85.6995 16.7858H82.0817C82.0817 15.5751 82.4054 14.9135 83.8836 14.9135C85.4321 14.9135 85.6995 15.4766 85.6995 16.7858Z" fill="white"/>
<path d="M94.2798 20.8119V17.0814C94.2798 15.6033 94.4769 13.8858 91.7036 13.8858C90.6901 13.8858 90.0425 14.1955 89.6202 14.6601V13.9985H88.5363V20.8119H89.7328V17.6726C89.7328 16.279 89.6765 14.998 91.591 14.998C93.224 14.998 93.0832 15.7581 93.0832 17.2222V20.8119H94.2798Z" fill="white"/>
<defs>
<linearGradient id="paint0_linear_2105:9198" x1="-0.410256" y1="-0.410256" x2="32.4103" y2="32.4103" gradientUnits="userSpaceOnUse">
<stop stop-color="#3F4359"/>
<stop offset="1" stop-color="#232632"/>
</linearGradient>
<linearGradient id="paint1_linear_2105:9198" x1="3.82081e-09" y1="3.82081e-09" x2="32" y2="32" gradientUnits="userSpaceOnUse">
<stop stop-color="#C9CCDD"/>
<stop offset="1" stop-color="#CACDDE" stop-opacity="0.17"/>
</linearGradient>
<linearGradient id="paint2_linear_2105:9198" x1="14.7761" y1="13.0006" x2="16.9624" y2="15.7025" gradientUnits="userSpaceOnUse">
<stop stop-color="white"/>
<stop offset="1" stop-color="white" stop-opacity="0.5"/>
</linearGradient>
<linearGradient id="paint3_linear_2105:9198" x1="20.0514" y1="16.7308" x2="22.2377" y2="19.4327" gradientUnits="userSpaceOnUse">
<stop stop-color="white" stop-opacity="0.5"/>
<stop offset="1" stop-color="white"/>
</linearGradient>
<linearGradient id="paint4_linear_2105:9198" x1="12.5149" y1="22.1541" x2="24.5071" y2="10.1566" gradientUnits="userSpaceOnUse">
<stop stop-color="#2147FF"/>
<stop offset="1" stop-color="#33A3FF"/>
</linearGradient>
<linearGradient id="paint5_linear_2105:9198" x1="8.05309" y1="21.1192" x2="8.00437" y2="11.2002" gradientUnits="userSpaceOnUse">
<stop stop-color="white" stop-opacity="0.5"/>
<stop offset="1" stop-color="white"/>
</linearGradient>
<clipPath id="clip0_2105:9198">
<rect width="32" height="32" fill="white"/>
</clipPath>
</defs>
</svg>
