<svg width="38" height="36" viewBox="0 0 38 36" fill="none" xmlns="http://www.w3.org/2000/svg">
<path d="M7.91688 2.6416L37.3669 22.7499L30.0835 33.5166L0.633545 13.2499L7.91688 2.6416Z" fill="url(#paint0_linear_2449_25434)"/>
<path d="M37.3666 22.7499C34.8333 26.3916 26.2833 24.9666 18.2083 19.2666C9.97498 13.7249 5.54165 6.28327 7.91665 2.64161C10.45 -1.00006 19 0.424941 27.075 6.12494C35.3083 11.5083 39.7416 19.1083 37.3666 22.7499Z" fill="url(#paint1_linear_2449_25434)"/>
<path d="M30.0835 33.3582C27.5501 36.9999 19.0001 35.5749 10.9251 29.8749C2.85013 24.1749 -1.74154 16.8916 0.791791 13.0916C3.32512 9.44989 11.8751 10.8749 19.9501 16.5749C28.0251 22.2749 32.4585 29.7166 30.0835 33.3582Z" fill="url(#paint2_linear_2449_25434)"/>
<path d="M37.3667 22.75L30.0834 33.5167C27.55 37.1583 19 35.575 10.925 30.0333C9.3417 28.925 7.9167 27.8167 6.4917 26.55C7.60003 26.3917 9.02503 25.7583 10.45 24.175C12.9834 21.4833 14.25 20.85 15.3584 21.0083C16.4667 21.0083 17.7334 22.1167 19.7917 24.8083C21.85 27.5 24.7 28.2917 26.4417 26.8667C26.6 26.7083 26.7584 26.7083 26.9167 26.55C28.3417 25.4417 28.8167 24.9667 31.5084 19.9C32.1417 18.6333 34.3584 16.575 37.3667 17.525C38.1584 19.5833 38.1584 21.325 37.3667 22.75Z" fill="#0E0F23"/>
<path fill-rule="evenodd" clip-rule="evenodd" d="M36.2584 22.1167C34.0417 25.2834 26.2834 23.7 18.8417 18.475C11.2417 13.25 6.8084 6.60005 9.02507 3.43338C11.2417 0.266712 19.0001 1.85005 26.4417 7.07505C33.8834 12.3 38.3167 18.95 36.2584 22.1167ZM29.2917 17.3667C28.1834 18.95 24.3834 18.1584 20.5834 15.625C16.9417 13.0917 14.7251 9.76671 15.8334 8.18338C16.9417 6.60005 20.7417 7.39171 24.5417 9.92505C28.1834 12.4584 30.4001 15.7834 29.2917 17.3667Z" fill="white"/>
<path d="M7.28348 6.28324C7.28348 6.12491 7.12515 5.96658 6.96681 6.12491C6.80848 6.28324 6.65015 6.28324 6.65015 6.44158C6.80848 6.91658 6.96681 7.23324 6.96681 7.54991C6.96681 7.70824 7.12515 7.86658 7.28348 7.70824C7.44181 7.70824 7.60015 7.54991 7.44181 7.39158C7.44181 7.07491 7.44181 6.75824 7.28348 6.28324Z" fill="white"/>
<path d="M8.0751 8.81669C8.0751 8.65836 7.91676 8.50002 7.75843 8.65836C7.6001 8.81669 7.6001 8.81669 7.6001 8.97502C9.34176 12.9334 12.9834 17.2084 17.7334 20.375C17.8918 20.5334 18.0501 20.375 18.2084 20.375C18.3668 20.2167 18.2084 20.0584 18.2084 19.9C13.3001 16.7334 9.81676 12.6167 8.0751 8.81669Z" fill="white"/>
<path d="M27.2334 24.3333C27.0751 24.3333 26.9167 24.3333 26.9167 24.4916C26.9167 24.6499 26.9167 24.8082 27.0751 24.8082C27.5501 24.9666 28.1834 25.1249 28.6584 25.2833C28.8168 25.2833 28.9751 25.2833 28.9751 25.1249C28.9751 24.9666 28.9751 24.8082 28.8168 24.8082C28.3418 24.6499 27.7084 24.4916 27.2334 24.3333Z" fill="white"/>
<path d="M30.0835 24.9666C29.9252 24.9666 29.7668 25.1249 29.7668 25.2832C29.7668 25.4416 29.9252 25.5999 30.0835 25.5999C31.3502 25.7582 32.7752 25.9166 33.8835 25.7582C34.0418 25.7582 34.2002 25.5999 34.2002 25.4416C34.2002 25.2832 34.0418 25.1249 33.8835 25.1249C32.6168 25.2832 31.3502 25.1249 30.0835 24.9666Z" fill="white"/>
<defs>
<linearGradient id="paint0_linear_2449_25434" x1="13.6869" y1="-0.217424" x2="19.5271" y2="19.8374" gradientUnits="userSpaceOnUse">
<stop stop-color="#03B8FF"/>
<stop offset="1" stop-color="#FA52A0"/>
</linearGradient>
<linearGradient id="paint1_linear_2449_25434" x1="18.4962" y1="-1.61819" x2="24.3366" y2="18.4368" gradientUnits="userSpaceOnUse">
<stop stop-color="#03B8FF"/>
<stop offset="1" stop-color="#FA52A0"/>
</linearGradient>
<linearGradient id="paint2_linear_2449_25434" x1="8.89212" y1="1.17872" x2="14.7326" y2="21.2337" gradientUnits="userSpaceOnUse">
<stop stop-color="#03B8FF"/>
<stop offset="1" stop-color="#FA52A0"/>
</linearGradient>
</defs>
</svg>
