<svg width="54" height="54" viewBox="0 0 54 54" fill="none" xmlns="http://www.w3.org/2000/svg">
<g clip-path="url(#clip0_1590:7832)">
<path d="M54 27C54 41.9117 41.9117 54 27 54C12.0883 54 0 41.9117 0 27C0 12.0883 12.0883 0 27 0C41.9117 0 54 12.0883 54 27Z" fill="url(#paint0_linear_1590:7832)"/>
<path fill-rule="evenodd" clip-rule="evenodd" d="M27 52.65C41.1661 52.65 52.65 41.1661 52.65 27C52.65 12.8339 41.1661 1.35 27 1.35C12.8339 1.35 1.35 12.8339 1.35 27C1.35 41.1661 12.8339 52.65 27 52.65ZM27 54C41.9117 54 54 41.9117 54 27C54 12.0883 41.9117 0 27 0C12.0883 0 0 12.0883 0 27C0 41.9117 12.0883 54 27 54Z" fill="url(#paint1_linear_1590:7832)"/>
<path d="M27.7269 20.493C27.3214 19.9964 26.8108 19.596 26.2319 19.3206C25.6528 19.0451 25.02 18.9014 24.3787 18.8999H19.4237C19.4064 18.9006 19.3894 18.9049 19.3737 18.9124C19.3581 18.9198 19.344 18.9303 19.3325 18.9433C19.3191 18.9545 19.3083 18.9684 19.3008 18.9841C19.2933 18.9999 19.2893 19.017 19.2891 19.0345V21.6303C19.2889 21.6478 19.2926 21.6651 19.3002 21.6809C19.3078 21.6967 19.3188 21.7105 19.3325 21.7214C19.3434 21.7351 19.3572 21.7462 19.3731 21.7537C19.3889 21.7612 19.4062 21.765 19.4237 21.7648H24.1138C24.3258 21.7664 24.5348 21.8152 24.7255 21.9076C24.9163 21.9999 25.0841 22.1336 25.2169 22.2987L28.5608 26.4182L30.5541 23.9743L27.7269 20.493Z" fill="url(#paint2_linear_1590:7832)"/>
<path d="M43.1606 32.8039C43.1486 32.7904 43.1338 32.7796 43.1174 32.7721C43.101 32.7646 43.0831 32.7607 43.0651 32.7605H38.3966C38.1828 32.7614 37.9714 32.7156 37.7772 32.6264C37.5829 32.5371 37.4104 32.4066 37.2719 32.244L33.928 28.1245L31.939 30.5684L34.7617 34.0497C35.1675 34.5457 35.6783 34.9455 36.2573 35.2202C36.8363 35.4949 37.4691 35.6378 38.11 35.6385H43.0651C43.1006 35.6378 43.1347 35.6239 43.1606 35.5994C43.1868 35.5694 43.2007 35.5307 43.1997 35.4909V32.9124C43.2015 32.8725 43.1874 32.8335 43.1606 32.8039Z" fill="url(#paint3_linear_1590:7832)"/>
<path d="M43.1607 18.9433C43.1353 18.9177 43.1012 18.9023 43.0652 18.8999H38.1102C37.4712 18.9002 36.8405 19.0435 36.2641 19.3191C35.6877 19.5948 35.1804 19.9959 34.7792 20.493L31.2443 24.8251L29.2509 27.269L25.2166 32.2435C25.0785 32.4058 24.9068 32.536 24.7134 32.6252C24.5198 32.7144 24.3092 32.7604 24.0961 32.7601H19.4235C19.4059 32.7599 19.3886 32.7637 19.3728 32.7712C19.357 32.7787 19.3431 32.7898 19.3323 32.8035C19.3175 32.8173 19.3059 32.8341 19.2985 32.8529C19.2909 32.8717 19.2877 32.8918 19.2888 32.912V35.4905C19.2881 35.5106 19.2915 35.5306 19.299 35.5493C19.3065 35.568 19.3178 35.5849 19.3323 35.5989C19.3439 35.6113 19.3581 35.6212 19.3738 35.628C19.3895 35.6346 19.4064 35.6381 19.4235 35.638H24.3784C25.0194 35.6373 25.6522 35.4945 26.2312 35.2198C26.8102 34.9451 27.321 34.5453 27.7267 34.0493L31.2443 29.7128L33.2376 27.269L37.272 22.2987C37.4078 22.1316 37.5793 21.9969 37.7739 21.9045C37.9685 21.8121 38.1813 21.7644 38.3968 21.7648H43.0652C43.0832 21.7647 43.1011 21.7607 43.1175 21.7533C43.134 21.7458 43.1487 21.7349 43.1607 21.7214C43.1731 21.7097 43.183 21.6955 43.1897 21.6799C43.1964 21.6642 43.1999 21.6474 43.1999 21.6303V19.0345C43.1991 19.0001 43.1851 18.9675 43.1607 18.9433Z" fill="url(#paint4_linear_1590:7832)"/>
<path d="M14.1639 35.5036C14.1635 35.521 14.1596 35.5381 14.1524 35.5539C14.1452 35.5697 14.1348 35.5839 14.122 35.5956C14.1076 35.6097 14.0905 35.6206 14.0716 35.6278C14.0528 35.635 14.0328 35.6383 14.0127 35.6376H10.9345C10.917 35.6373 10.8998 35.6333 10.884 35.6261C10.868 35.6189 10.8538 35.6085 10.842 35.5956C10.8291 35.5839 10.8187 35.5698 10.8114 35.554C10.8042 35.5381 10.8003 35.521 10.7999 35.5036V19.0505C10.7991 19.0304 10.8024 19.0105 10.8097 18.9918C10.8169 18.9731 10.8279 18.956 10.842 18.9417C10.8539 18.9288 10.8681 18.9185 10.884 18.9114C10.8999 18.9042 10.9171 18.9004 10.9345 18.9H14.0126C14.0327 18.8992 14.0527 18.9025 14.0716 18.9097C14.0903 18.9168 14.1075 18.9278 14.1219 18.9417C14.136 18.956 14.1469 18.9731 14.1541 18.9918C14.1613 19.0105 14.1646 19.0305 14.1639 19.0505V35.5036Z" fill="url(#paint5_linear_1590:7832)"/>
</g>
<defs>
<linearGradient id="paint0_linear_1590:7832" x1="-0.692308" y1="-0.692308" x2="54.6923" y2="54.6923" gradientUnits="userSpaceOnUse">
<stop stop-color="#3F4359"/>
<stop offset="1" stop-color="#232632"/>
</linearGradient>
<linearGradient id="paint1_linear_1590:7832" x1="6.44761e-09" y1="6.44761e-09" x2="54" y2="54" gradientUnits="userSpaceOnUse">
<stop stop-color="#C9CCDD"/>
<stop offset="1" stop-color="#CACDDE" stop-opacity="0.17"/>
</linearGradient>
<linearGradient id="paint2_linear_1590:7832" x1="24.9346" y1="21.9385" x2="28.6239" y2="26.4979" gradientUnits="userSpaceOnUse">
<stop stop-color="white"/>
<stop offset="1" stop-color="white" stop-opacity="0.5"/>
</linearGradient>
<linearGradient id="paint3_linear_1590:7832" x1="33.8368" y1="28.2331" x2="37.5261" y2="32.7925" gradientUnits="userSpaceOnUse">
<stop stop-color="white" stop-opacity="0.5"/>
<stop offset="1" stop-color="white"/>
</linearGradient>
<linearGradient id="paint4_linear_1590:7832" x1="21.1191" y1="37.385" x2="41.3559" y2="17.1392" gradientUnits="userSpaceOnUse">
<stop stop-color="#2147FF"/>
<stop offset="1" stop-color="#33A3FF"/>
</linearGradient>
<linearGradient id="paint5_linear_1590:7832" x1="13.5896" y1="35.6386" x2="13.5073" y2="18.9003" gradientUnits="userSpaceOnUse">
<stop stop-color="white" stop-opacity="0.5"/>
<stop offset="1" stop-color="white"/>
</linearGradient>
<clipPath id="clip0_1590:7832">
<rect width="54" height="54" fill="white"/>
</clipPath>
</defs>
</svg>
